{"glyphs":{"0":{"ha":875,"x_min":35,"x_max":840,"o":"m 734 117 q 681 48 734 117 q 438 -21 628 -21 q 141 117 247 -21 q 35 486 35 256 q 141 855 35 717 q 438 993 247 993 q 734 855 628 993 q 840 486 840 717 q 734 117 840 256 m 283 486 q 283 353 283 486 q 438 221 283 221 q 592 486 592 221 q 438 751 592 751 q 283 486 283 751 z "},"1":{"ha":575,"x_min":7,"x_max":485,"o":"m 271 972 l 485 972 l 485 0 l 236 0 l 236 711 l 67 668 l 7 878 l 271 972 z "},"2":{"ha":749,"x_min":14,"x_max":710,"o":"m 29 0 l 29 181 l 351 521 q 422 606 400 574 q 444 671 444 639 q 422 729 444 707 q 358 751 399 751 q 228 650 272 751 l 14 769 q 153 936 61 879 q 356 993 244 993 q 594 910 494 993 q 693 685 693 828 q 653 528 693 600 q 538 378 614 457 l 406 240 l 710 240 l 710 0 l 29 0 z "},"3":{"ha":761,"x_min":18,"x_max":725,"o":"m 518 576 q 668 476 611 547 q 725 306 725 406 q 622 64 725 149 q 368 -21 519 -21 q 153 35 247 -21 q 18 199 60 90 l 235 322 q 368 221 265 221 q 449 246 421 221 q 478 313 478 271 q 449 378 478 354 q 368 403 421 403 l 315 403 l 219 544 l 375 735 l 49 735 l 49 972 l 681 972 l 681 776 l 518 576 z "},"4":{"ha":803,"x_min":21,"x_max":792,"o":"m 792 375 l 792 149 l 694 149 l 694 0 l 447 0 l 447 149 l 21 149 l 21 375 l 311 972 l 586 972 l 293 375 l 447 375 l 447 550 l 694 550 l 694 375 l 792 375 z "},"5":{"ha":764,"x_min":18,"x_max":736,"o":"m 403 631 q 641 547 546 631 q 736 311 736 464 q 633 66 736 153 q 378 -21 531 -21 q 156 34 250 -21 q 18 199 61 89 l 235 322 q 378 221 265 221 q 459 245 431 221 q 488 311 488 269 q 459 378 488 354 q 382 401 431 401 l 71 401 l 111 972 l 683 972 l 683 735 l 340 735 l 333 631 l 403 631 z "},"6":{"ha":778,"x_min":21,"x_max":757,"o":"m 446 663 q 672 552 588 644 q 757 322 757 460 q 656 75 757 171 q 389 -21 554 -21 q 122 75 224 -21 q 21 322 21 171 q 82 524 21 436 l 369 972 l 651 972 l 446 663 m 389 207 q 474 238 440 207 q 508 322 508 268 q 475 408 508 378 q 389 439 442 439 q 303 408 336 439 q 269 322 269 378 q 303 237 269 267 q 389 207 336 207 z "},"7":{"ha":681,"x_min":1,"x_max":660,"o":"m 1 972 l 660 972 l 660 767 l 356 0 l 88 0 l 376 732 l 1 732 l 1 972 z "},"8":{"ha":790,"x_min":32,"x_max":758,"o":"m 629 508 q 758 274 758 428 q 664 59 758 138 q 396 -19 569 -19 q 126 59 221 -19 q 32 274 32 138 q 161 508 32 428 q 65 703 65 579 q 158 915 65 839 q 396 992 251 992 q 632 915 539 992 q 725 703 725 838 q 629 508 725 579 m 396 767 q 326 744 351 767 q 300 683 300 721 q 326 622 300 644 q 396 600 351 600 q 464 623 438 600 q 490 683 490 646 q 464 744 490 721 q 396 767 438 767 m 396 208 q 479 235 447 208 q 511 308 511 263 q 479 383 511 356 q 396 410 447 410 q 312 383 343 410 q 281 308 281 356 q 312 235 281 263 q 396 208 343 208 z "},"9":{"ha":778,"x_min":21,"x_max":757,"o":"m 757 650 q 696 449 757 536 l 408 0 l 126 0 l 332 310 q 106 420 190 328 q 21 650 21 513 q 122 897 21 801 q 389 993 224 993 q 656 897 554 993 q 757 650 757 801 m 269 650 q 303 564 269 594 q 389 533 336 533 q 475 564 442 533 q 508 650 508 594 q 475 735 508 706 q 389 765 442 765 q 303 735 338 765 q 269 650 269 704 z "}," ":{"ha":315,"x_min":0,"x_max":0,"o":""},"!":{"ha":408,"x_min":60,"x_max":349,"o":"m 108 354 l 63 694 l 63 972 l 346 972 l 346 694 l 300 354 l 108 354 m 306 22 q 285 1 306 22 q 204 -19 264 -19 q 102 22 144 -19 q 60 125 60 64 q 102 227 60 185 q 204 269 144 269 q 306 227 264 269 q 349 125 349 185 q 306 22 349 64 z "},"\"":{"ha":614,"x_min":63,"x_max":551,"o":"m 90 613 l 63 972 l 276 972 l 249 613 l 90 613 m 365 613 l 338 972 l 551 972 l 524 613 l 365 613 z "},"#":{"ha":876,"x_min":28,"x_max":849,"o":"m 822 535 l 682 535 l 665 438 l 807 438 l 781 271 l 638 271 l 604 69 l 426 69 l 460 271 l 346 271 l 313 69 l 135 69 l 168 271 l 28 271 l 54 438 l 196 438 l 213 535 l 71 535 l 97 701 l 240 701 l 274 903 l 451 903 l 418 701 l 532 701 l 565 903 l 743 903 l 710 701 l 849 701 l 822 535 m 488 438 l 504 535 l 390 535 l 374 438 l 488 438 z "},"$":{"ha":772,"x_min":25,"x_max":747,"o":"m 747 285 q 667 76 747 154 q 450 -18 586 -3 l 450 -139 l 353 -139 l 353 -19 q 145 48 231 -11 q 25 207 60 107 l 240 328 q 353 217 271 238 l 353 382 l 340 386 q 232 432 275 410 q 144 490 189 454 q 78 576 100 525 q 57 693 57 626 q 140 902 57 824 q 353 992 224 981 l 353 1111 l 450 1111 l 450 989 q 733 785 650 965 l 522 667 q 450 750 501 731 l 450 586 l 451 586 q 491 571 458 583 q 534 554 524 558 q 574 537 544 550 q 614 516 603 524 q 649 492 625 508 q 682 463 672 476 q 708 430 692 450 q 730 389 724 410 q 742 341 736 368 q 747 285 747 314 m 299 692 q 353 629 299 657 l 353 756 q 299 692 299 742 m 450 218 q 506 281 506 233 q 450 343 506 318 l 450 218 z "},"%":{"ha":1143,"x_min":49,"x_max":1094,"o":"m 304 494 q 122 567 196 494 q 49 744 49 640 q 122 921 49 849 q 304 993 196 993 q 485 921 413 993 q 557 744 557 849 q 484 567 557 639 q 304 494 411 494 m 193 153 l 832 847 l 929 792 l 289 99 l 193 153 m 303 671 q 355 692 335 671 q 375 744 375 714 q 355 796 375 775 q 303 817 335 817 q 252 796 272 817 q 232 744 232 775 q 252 692 232 713 q 303 671 272 671 m 842 -19 q 659 53 732 -19 q 586 229 586 125 q 659 407 586 335 q 842 479 732 479 q 1022 406 950 479 q 1094 229 1094 333 q 1022 53 1094 125 q 842 -19 949 -19 m 790 178 q 800 167 790 178 q 840 157 810 157 q 891 178 871 157 q 911 229 911 200 q 891 282 911 261 q 840 303 871 303 q 790 282 810 303 q 769 229 769 261 q 790 178 769 199 z "},"&":{"ha":944,"x_min":49,"x_max":924,"o":"m 924 72 l 733 -37 l 651 51 q 399 -21 539 -21 q 144 62 240 -21 q 49 276 49 144 q 206 547 49 449 q 161 706 161 622 q 251 912 161 831 q 481 993 340 993 q 815 775 718 993 l 606 653 q 489 757 567 757 q 433 737 453 757 q 413 686 413 717 q 424 642 413 665 q 447 606 436 619 q 489 558 458 593 l 653 376 q 696 518 682 446 l 896 403 q 806 204 868 300 l 924 72 m 424 194 q 506 211 468 194 l 342 389 q 300 296 300 351 q 331 223 300 251 q 424 194 363 194 z "},"'":{"ha":338,"x_min":63,"x_max":276,"o":"m 90 613 l 63 972 l 276 972 l 249 613 l 90 613 z "},"(":{"ha":454,"x_min":63,"x_max":447,"o":"m 215 -139 q 63 486 63 167 q 215 1111 63 806 l 447 1111 q 294 486 294 806 q 447 -139 294 167 l 215 -139 z "},")":{"ha":454,"x_min":7,"x_max":392,"o":"m 239 -139 l 7 -139 q 160 486 160 167 q 7 1111 160 806 l 239 1111 q 392 486 392 806 q 239 -139 392 167 z "},"*":{"ha":563,"x_min":63,"x_max":499,"o":"m 499 840 l 499 707 l 372 721 l 451 624 l 340 554 l 281 668 l 222 554 l 111 624 l 189 721 l 63 707 l 63 840 l 189 826 l 111 924 l 222 993 l 281 879 l 340 993 l 451 924 l 372 826 l 499 840 z "},"+":{"ha":778,"x_min":57,"x_max":721,"o":"m 721 596 l 721 376 l 499 376 l 499 154 l 279 154 l 279 376 l 57 376 l 57 596 l 279 596 l 279 818 l 499 818 l 499 596 l 721 596 z "},",":{"ha":419,"x_min":60,"x_max":363,"o":"m 363 242 l 246 -194 l 60 -194 l 108 242 l 363 242 z "},"-":{"ha":694,"x_min":76,"x_max":618,"o":"m 76 308 l 76 528 l 618 528 l 618 308 l 76 308 z "},".":{"ha":401,"x_min":56,"x_max":346,"o":"m 201 -19 q 98 23 140 -19 q 56 125 56 65 q 99 227 56 185 q 201 269 142 269 q 303 227 261 269 q 346 125 346 185 q 303 23 346 65 q 201 -19 261 -19 z "},"/":{"ha":722,"x_min":35,"x_max":688,"o":"m 132 -139 l 35 -139 l 590 1111 l 688 1111 l 132 -139 z "},":":{"ha":401,"x_min":56,"x_max":346,"o":"m 201 426 q 98 469 140 426 q 56 571 56 511 q 99 673 56 631 q 201 715 142 715 q 303 673 261 715 q 346 571 346 631 q 303 469 346 511 q 201 426 261 426 m 201 -19 q 98 23 140 -19 q 56 125 56 65 q 99 227 56 185 q 201 269 142 269 q 303 227 261 269 q 346 125 346 185 q 303 23 346 65 q 201 -19 261 -19 z "},";":{"ha":422,"x_min":60,"x_max":367,"o":"m 222 426 q 119 469 161 426 q 76 571 76 511 q 119 673 76 631 q 222 715 163 715 q 324 673 282 715 q 367 571 367 631 q 324 469 367 511 q 222 426 282 426 m 363 242 l 246 -194 l 60 -194 l 108 242 l 363 242 z "},"<":{"ha":724,"x_min":50,"x_max":675,"o":"m 675 860 l 675 621 l 299 486 l 675 351 l 675 113 l 50 383 l 50 589 l 675 860 z "},"=":{"ha":710,"x_min":49,"x_max":660,"o":"m 49 528 l 49 749 l 660 749 l 660 528 l 49 528 m 49 224 l 49 444 l 660 444 l 660 224 l 49 224 z "},">":{"ha":724,"x_min":49,"x_max":674,"o":"m 49 860 l 674 589 l 674 383 l 49 113 l 49 351 l 425 486 l 49 621 l 49 860 z "},"?":{"ha":760,"x_min":29,"x_max":703,"o":"m 247 354 q 280 462 247 411 q 351 544 313 513 q 423 613 390 575 q 456 686 456 651 q 374 753 456 753 q 240 643 289 753 l 29 764 q 170 935 75 876 q 383 993 265 993 q 610 919 517 993 q 703 717 703 844 q 680 609 703 658 q 625 526 657 560 q 561 465 593 493 q 506 408 529 436 q 483 354 483 381 l 247 354 m 467 22 q 446 1 467 22 q 365 -19 425 -19 q 263 22 306 -19 q 221 125 221 64 q 263 227 221 185 q 365 269 306 269 q 467 227 425 269 q 510 125 510 185 q 467 22 510 64 z "},"@":{"ha":1068,"x_min":39,"x_max":1031,"o":"m 544 850 q 806 778 692 850 q 975 600 919 707 q 1031 375 1031 493 q 970 145 1031 226 q 800 64 910 64 q 676 94 726 64 q 604 178 626 125 q 472 118 553 118 q 324 183 381 118 q 268 347 268 247 q 324 512 268 447 q 472 576 381 576 q 592 531 543 576 l 592 560 l 781 560 l 781 232 q 850 144 781 144 q 935 201 903 144 q 968 375 968 257 q 846 672 968 551 q 544 793 724 793 q 228 665 357 793 q 100 347 100 536 q 233 27 100 153 q 569 -99 365 -99 q 779 -68 689 -99 l 779 -128 q 569 -156 689 -156 q 190 -13 342 -156 q 39 347 39 129 q 184 703 39 557 q 544 850 329 850 m 525 275 q 572 295 554 275 q 590 347 590 315 q 573 399 590 379 q 525 419 556 419 q 476 399 494 419 q 458 347 458 379 q 476 295 458 315 q 525 275 494 275 z "},"A":{"ha":932,"x_min":-7,"x_max":938,"o":"m 669 0 l 628 140 l 304 140 l 263 0 l -7 0 l 314 972 l 617 972 l 938 0 l 669 0 m 368 354 l 564 354 l 465 685 l 368 354 z "},"B":{"ha":836,"x_min":76,"x_max":813,"o":"m 690 503 q 813 285 813 431 q 724 78 813 156 q 486 0 635 0 l 76 0 l 76 972 l 460 972 q 693 898 606 972 q 781 696 781 824 q 690 503 781 574 m 453 750 l 325 750 l 325 597 l 453 597 q 509 617 486 597 q 532 674 532 638 q 510 729 532 708 q 453 750 488 750 m 479 222 q 540 245 517 222 q 564 304 564 268 q 540 364 564 342 q 479 386 517 386 l 325 386 l 325 222 l 479 222 z "},"C":{"ha":999,"x_min":39,"x_max":967,"o":"m 546 -21 q 183 124 326 -21 q 39 486 39 269 q 183 848 39 703 q 546 993 326 993 q 790 931 678 993 q 967 763 903 868 l 751 639 q 669 720 724 690 q 546 750 614 750 q 358 677 429 750 q 286 486 286 604 q 358 295 286 368 q 546 222 429 222 q 669 252 614 222 q 751 335 724 282 l 967 210 q 791 41 903 103 q 546 -21 679 -21 z "},"D":{"ha":983,"x_min":76,"x_max":944,"o":"m 472 972 q 809 833 674 972 q 944 486 944 693 q 809 140 944 279 q 472 0 674 0 l 76 0 l 76 972 l 472 972 m 472 240 q 638 308 574 240 q 701 486 701 375 q 638 665 701 597 q 472 732 574 732 l 332 732 l 332 240 l 472 240 z "},"E":{"ha":743,"x_min":76,"x_max":701,"o":"m 325 233 l 701 233 l 701 0 l 76 0 l 76 972 l 694 972 l 694 740 l 325 740 l 325 606 l 660 606 l 660 376 l 325 376 l 325 233 z "},"F":{"ha":719,"x_min":76,"x_max":674,"o":"m 674 732 l 325 732 l 325 574 l 667 574 l 667 333 l 325 333 l 325 0 l 76 0 l 76 972 l 674 972 l 674 732 z "},"G":{"ha":1081,"x_min":39,"x_max":1042,"o":"m 1042 557 l 1042 458 q 908 112 1042 244 q 560 -21 774 -21 q 185 125 332 -21 q 39 485 39 271 q 185 846 39 699 q 546 993 331 993 q 795 932 682 993 q 972 769 908 871 l 761 649 q 676 722 732 694 q 549 750 619 750 q 360 675 433 750 q 286 483 286 600 q 359 293 286 371 q 564 215 432 215 q 788 343 733 215 l 551 343 l 551 557 l 1042 557 z "},"H":{"ha":924,"x_min":76,"x_max":846,"o":"m 599 972 l 846 972 l 846 0 l 599 0 l 599 374 l 325 374 l 325 0 l 76 0 l 76 972 l 325 972 l 325 613 l 599 613 l 599 972 z "},"I":{"ha":401,"x_min":76,"x_max":325,"o":"m 76 972 l 325 972 l 325 0 l 76 0 l 76 972 z "},"J":{"ha":793,"x_min":35,"x_max":726,"o":"m 371 -21 q 35 174 132 -21 l 247 297 q 296 239 268 257 q 371 221 324 221 q 478 319 478 221 l 478 972 l 726 972 l 726 315 q 630 69 726 158 q 371 -21 533 -21 z "},"K":{"ha":876,"x_min":76,"x_max":882,"o":"m 882 0 l 604 0 l 325 435 l 325 0 l 76 0 l 76 972 l 325 972 l 325 564 l 590 972 l 868 972 l 560 500 l 882 0 z "},"L":{"ha":674,"x_min":76,"x_max":660,"o":"m 325 240 l 660 240 l 660 0 l 76 0 l 76 972 l 325 972 l 325 240 z "},"M":{"ha":1146,"x_min":76,"x_max":1068,"o":"m 1068 972 l 1068 0 l 821 0 l 821 524 l 585 133 l 560 133 l 325 522 l 325 0 l 76 0 l 76 972 l 325 972 l 572 557 l 821 972 l 1068 972 z "},"N":{"ha":938,"x_min":76,"x_max":860,"o":"m 613 972 l 860 972 l 860 0 l 668 0 l 325 489 l 325 0 l 76 0 l 76 972 l 269 972 l 613 483 l 613 972 z "},"O":{"ha":1097,"x_min":39,"x_max":1058,"o":"m 910 126 q 836 52 910 126 q 549 -21 763 -21 q 187 126 335 -21 q 39 486 39 272 q 187 847 39 700 q 549 993 335 993 q 910 847 763 993 q 1058 486 1058 700 q 910 126 1058 272 m 361 297 q 399 259 361 297 q 549 222 436 222 q 736 297 661 222 q 811 486 811 371 q 736 676 811 601 q 549 750 661 750 q 361 676 436 750 q 286 486 286 601 q 361 297 286 371 z "},"P":{"ha":822,"x_min":76,"x_max":801,"o":"m 454 972 q 701 876 601 972 q 801 632 801 781 q 701 388 801 483 q 454 292 601 292 l 325 292 l 325 0 l 76 0 l 76 972 l 454 972 m 454 528 q 524 557 496 528 q 553 632 553 586 q 524 706 553 678 q 454 735 496 735 l 325 735 l 325 528 l 454 528 z "},"Q":{"ha":1104,"x_min":39,"x_max":1058,"o":"m 1058 486 q 954 175 1058 310 l 1042 81 l 868 -74 l 772 29 q 549 -21 668 -21 q 187 126 335 -21 q 39 486 39 272 q 187 847 39 700 q 549 993 335 993 q 910 847 763 993 q 1058 486 1058 700 m 549 222 q 589 225 564 222 l 458 365 l 633 518 l 782 360 q 811 486 811 418 q 736 676 811 601 q 549 750 661 750 q 361 676 436 750 q 286 486 286 601 q 361 297 286 371 q 549 222 436 222 z "},"R":{"ha":861,"x_min":76,"x_max":850,"o":"m 583 0 l 414 314 l 325 314 l 325 0 l 76 0 l 76 972 l 465 972 q 715 877 614 972 q 815 636 815 782 q 771 476 815 549 q 650 360 726 403 l 850 0 l 583 0 m 325 743 l 325 525 l 463 525 q 538 554 508 524 q 567 633 567 585 q 538 713 567 682 q 463 743 508 743 l 325 743 z "},"S":{"ha":813,"x_min":25,"x_max":792,"o":"m 422 -21 q 167 44 268 -21 q 25 221 65 110 l 238 344 q 429 215 292 215 q 543 281 543 215 q 478 350 543 324 q 356 388 450 361 q 144 497 222 426 q 67 692 67 567 q 163 910 67 826 q 404 993 260 993 q 621 936 526 993 q 765 771 715 879 l 557 649 q 406 757 511 757 q 338 739 361 757 q 315 693 315 721 q 349 639 315 661 q 482 588 383 617 q 596 549 553 567 q 690 497 639 531 q 767 409 742 463 q 792 283 792 356 q 690 60 792 140 q 422 -21 589 -21 z "},"T":{"ha":757,"x_min":14,"x_max":743,"o":"m 743 972 l 743 732 l 503 732 l 503 0 l 254 0 l 254 732 l 14 732 l 14 972 l 743 972 z "},"U":{"ha":903,"x_min":67,"x_max":836,"o":"m 728 72 q 675 26 728 72 q 451 -21 621 -21 q 174 72 282 -21 q 67 319 67 165 l 67 972 l 315 972 l 315 343 q 451 221 315 221 q 588 343 588 221 l 588 972 l 836 972 l 836 319 q 728 72 836 165 z "},"V":{"ha":924,"x_min":0,"x_max":924,"o":"m 314 0 l 0 972 l 272 972 l 461 303 l 651 972 l 924 972 l 610 0 l 314 0 z "},"W":{"ha":1394,"x_min":7,"x_max":1386,"o":"m 279 0 l 7 972 l 275 972 l 425 360 l 599 972 l 794 972 l 968 360 l 1119 972 l 1386 972 l 1115 0 l 853 0 l 697 549 l 542 0 l 279 0 z "},"X":{"ha":878,"x_min":7,"x_max":869,"o":"m 869 0 l 592 0 l 439 258 l 286 0 l 7 0 l 300 496 l 18 972 l 297 972 l 439 732 l 581 972 l 860 972 l 578 494 l 869 0 z "},"Y":{"ha":904,"x_min":0,"x_max":904,"o":"m 904 972 l 576 374 l 576 0 l 328 0 l 328 371 l 0 972 l 279 972 l 451 613 l 625 972 l 904 972 z "},"Z":{"ha":753,"x_min":46,"x_max":722,"o":"m 368 240 l 722 240 l 722 0 l 46 0 l 46 192 l 389 732 l 53 732 l 53 972 l 711 972 l 711 781 l 368 240 z "},"[":{"ha":457,"x_min":63,"x_max":429,"o":"m 429 890 l 294 890 l 294 82 l 429 82 l 429 -139 l 63 -139 l 63 1111 l 429 1111 l 429 890 z "},"\\":{"ha":722,"x_min":35,"x_max":688,"o":"m 590 -139 l 35 1111 l 132 1111 l 688 -139 l 590 -139 z "},"]":{"ha":457,"x_min":28,"x_max":394,"o":"m 394 1111 l 394 -139 l 28 -139 l 28 82 l 163 82 l 163 890 l 28 890 l 28 1111 l 394 1111 z "},"^":{"ha":806,"x_min":43,"x_max":763,"o":"m 485 972 l 763 481 l 515 481 l 403 700 l 290 481 l 43 481 l 321 972 l 485 972 z "},"_":{"ha":715,"x_min":35,"x_max":681,"o":"m 35 -258 l 35 -39 l 681 -39 l 681 -258 l 35 -258 z "},"`":{"ha":436,"x_min":28,"x_max":408,"o":"m 408 771 l 297 972 l 28 972 l 189 771 l 408 771 z "},"a":{"ha":854,"x_min":33,"x_max":788,"o":"m 557 694 l 788 694 l 788 0 l 557 0 l 557 64 q 360 -19 486 -19 q 127 85 221 -19 q 33 347 33 190 q 127 609 33 504 q 360 714 221 714 q 557 631 486 714 l 557 694 m 306 238 q 326 217 306 238 q 411 196 346 196 q 517 238 476 196 q 557 347 557 279 q 517 457 557 415 q 411 499 476 499 q 306 457 346 499 q 265 347 265 415 q 306 238 265 279 z "},"b":{"ha":854,"x_min":67,"x_max":821,"o":"m 494 714 q 727 609 633 714 q 821 347 821 504 q 727 85 821 190 q 494 -19 633 -19 q 297 64 368 -19 l 297 0 l 67 0 l 67 972 l 297 972 l 297 631 q 494 714 368 714 m 338 238 q 358 217 338 238 q 443 196 378 196 q 549 238 508 196 q 589 347 589 279 q 549 457 589 415 q 443 499 508 499 q 338 457 378 499 q 297 347 297 415 q 338 238 297 279 z "},"c":{"ha":733,"x_min":33,"x_max":719,"o":"m 403 -19 q 139 86 244 -19 q 33 347 33 192 q 139 608 33 503 q 403 714 244 714 q 590 665 506 714 q 719 535 674 617 l 522 421 q 401 489 485 489 q 304 449 343 489 q 265 347 265 410 q 304 245 265 285 q 401 206 343 206 q 522 275 488 206 l 719 161 q 590 29 674 78 q 403 -19 506 -19 z "},"d":{"ha":854,"x_min":33,"x_max":788,"o":"m 557 972 l 788 972 l 788 0 l 557 0 l 557 64 q 360 -19 486 -19 q 127 85 221 -19 q 33 347 33 190 q 127 609 33 504 q 360 714 221 714 q 557 631 486 714 l 557 972 m 306 238 q 326 217 306 238 q 411 196 346 196 q 517 238 476 196 q 557 347 557 279 q 517 457 557 415 q 411 499 476 499 q 306 457 346 499 q 265 347 265 415 q 306 238 265 279 z "},"e":{"ha":793,"x_min":33,"x_max":761,"o":"m 272 263 q 428 178 307 178 q 554 226 503 178 l 721 110 q 422 -19 618 -19 q 140 84 246 -19 q 33 346 33 188 q 138 608 33 503 q 403 714 242 714 q 660 610 558 714 q 761 349 761 506 q 751 263 761 303 l 272 263 m 269 422 l 536 422 q 406 519 508 519 q 269 422 299 519 z "},"f":{"ha":458,"x_min":21,"x_max":458,"o":"m 458 779 q 339 694 339 788 l 458 694 l 458 474 l 339 474 l 339 0 l 108 0 l 108 474 l 21 474 l 21 694 l 108 694 q 197 924 108 844 q 458 993 285 1003 l 458 779 z "},"g":{"ha":858,"x_min":39,"x_max":792,"o":"m 564 694 l 792 694 l 792 28 q 760 -120 792 -56 q 676 -223 729 -185 q 560 -280 624 -261 q 426 -299 497 -299 q 221 -256 311 -299 q 85 -129 131 -212 l 276 -18 q 424 -97 326 -97 q 525 -65 486 -97 q 564 28 564 -33 l 564 94 q 369 8 493 8 q 133 111 226 8 q 39 361 39 214 q 133 611 39 508 q 369 714 226 714 q 564 628 493 714 l 564 694 m 310 258 q 331 237 310 258 q 417 217 351 217 q 523 258 482 217 q 564 361 564 299 q 523 465 564 424 q 417 506 482 506 q 310 465 351 506 q 269 361 269 424 q 310 258 269 299 z "},"h":{"ha":804,"x_min":67,"x_max":746,"o":"m 490 714 q 674 637 603 714 q 746 415 746 560 l 746 0 l 515 0 l 515 386 q 487 468 515 440 q 411 496 458 496 q 327 463 357 496 q 297 369 297 431 l 297 0 l 67 0 l 67 972 l 297 972 l 297 625 q 490 714 360 714 z "},"i":{"ha":364,"x_min":49,"x_max":315,"o":"m 276 791 q 256 771 276 791 q 182 751 236 751 q 88 791 128 751 q 49 885 49 831 q 88 978 49 939 q 182 1017 128 1017 q 276 978 236 1017 q 315 885 315 939 q 276 791 315 831 m 67 0 l 67 694 l 297 694 l 297 0 l 67 0 z "},"j":{"ha":385,"x_min":-14,"x_max":336,"o":"m 297 791 q 277 771 297 791 q 203 751 257 751 q 109 791 149 751 q 69 885 69 831 q 109 978 69 939 q 203 1017 149 1017 q 297 978 257 1017 q 336 885 336 939 q 297 791 336 831 m 88 0 l 88 694 l 318 694 l 318 0 q 238 -236 318 -164 q -14 -299 157 -308 l -14 -85 q 63 -67 39 -87 q 88 0 88 -47 z "},"k":{"ha":753,"x_min":67,"x_max":753,"o":"m 753 0 l 494 0 l 297 296 l 297 0 l 67 0 l 67 972 l 297 972 l 297 404 l 476 694 l 743 694 l 510 347 l 753 0 z "},"l":{"ha":364,"x_min":67,"x_max":297,"o":"m 67 0 l 67 1014 l 297 1014 l 297 0 l 67 0 z "},"m":{"ha":1183,"x_min":67,"x_max":1125,"o":"m 864 714 q 1055 637 985 714 q 1125 425 1125 560 l 1125 0 l 893 0 l 893 399 q 807 496 893 496 q 735 465 760 496 q 711 379 711 433 l 711 0 l 481 0 l 481 399 q 393 496 481 496 q 322 465 346 496 q 297 379 297 433 l 297 0 l 67 0 l 67 694 l 297 694 l 297 629 q 485 714 361 714 q 663 625 604 714 q 864 714 735 714 z "},"n":{"ha":804,"x_min":67,"x_max":746,"o":"m 490 714 q 674 637 603 714 q 746 415 746 560 l 746 0 l 515 0 l 515 386 q 487 468 515 440 q 411 496 458 496 q 327 463 357 496 q 297 369 297 431 l 297 0 l 67 0 l 67 694 l 297 694 l 297 625 q 490 714 360 714 z "},"o":{"ha":810,"x_min":33,"x_max":775,"o":"m 404 -19 q 142 87 250 -19 q 33 347 33 193 q 142 608 33 501 q 404 714 250 714 q 667 608 560 714 q 775 347 775 501 q 667 87 775 193 q 404 -19 560 -19 m 404 203 q 505 243 465 203 q 544 347 544 283 q 505 451 544 411 q 404 492 465 492 q 305 451 344 492 q 265 347 265 411 q 305 243 265 283 q 404 203 344 203 z "},"p":{"ha":854,"x_min":67,"x_max":821,"o":"m 494 714 q 727 609 633 714 q 821 347 821 504 q 727 85 821 190 q 494 -19 633 -19 q 297 64 368 -19 l 297 -278 l 67 -278 l 67 694 l 297 694 l 297 631 q 494 714 368 714 m 338 238 q 358 217 338 238 q 443 196 378 196 q 549 238 508 196 q 589 347 589 279 q 549 457 589 415 q 443 499 508 499 q 338 457 378 499 q 297 347 297 415 q 338 238 297 279 z "},"q":{"ha":854,"x_min":33,"x_max":788,"o":"m 557 694 l 788 694 l 788 -278 l 557 -278 l 557 64 q 360 -19 486 -19 q 127 85 221 -19 q 33 347 33 190 q 127 609 33 504 q 360 714 221 714 q 557 631 486 714 l 557 694 m 306 238 q 326 217 306 238 q 411 196 346 196 q 517 238 476 196 q 557 347 557 279 q 517 457 557 415 q 411 499 476 499 q 306 457 346 499 q 265 347 265 415 q 306 238 265 279 z "},"r":{"ha":526,"x_min":67,"x_max":506,"o":"m 297 565 q 375 671 317 633 q 506 708 433 708 l 506 453 q 362 424 426 465 q 297 288 297 382 l 297 0 l 67 0 l 67 694 l 297 694 l 297 565 z "},"s":{"ha":660,"x_min":21,"x_max":632,"o":"m 288 492 q 323 460 288 472 q 409 436 358 447 q 510 405 460 425 q 597 336 561 385 q 632 214 632 288 q 543 38 632 94 q 332 -19 454 -19 q 21 146 99 -19 l 222 247 q 331 171 249 171 q 393 208 393 171 q 358 240 393 228 q 274 265 324 253 q 174 299 224 278 q 89 366 124 319 q 54 481 54 413 q 136 653 54 592 q 333 714 218 714 q 619 553 539 714 l 425 465 q 339 525 394 525 q 288 492 288 525 z "},"t":{"ha":547,"x_min":18,"x_max":497,"o":"m 497 474 l 353 474 l 353 272 q 386 215 353 226 q 497 208 419 204 l 497 0 q 206 38 290 -25 q 122 267 122 101 l 122 474 l 18 474 l 18 694 l 122 694 l 122 819 l 353 889 l 353 694 l 497 694 l 497 474 z "},"u":{"ha":804,"x_min":58,"x_max":738,"o":"m 507 694 l 738 694 l 738 0 l 507 0 l 507 69 q 314 -19 444 -19 q 130 58 201 -19 q 58 279 58 135 l 58 694 l 289 694 l 289 308 q 317 226 289 254 q 393 199 346 199 q 477 231 447 199 q 507 325 507 264 l 507 694 z "},"v":{"ha":769,"x_min":0,"x_max":769,"o":"m 514 694 l 769 694 l 510 0 l 260 0 l 0 694 l 256 694 l 385 296 l 514 694 z "},"w":{"ha":1108,"x_min":17,"x_max":1092,"o":"m 847 694 l 1092 694 l 879 0 l 654 0 l 554 353 l 454 0 l 229 0 l 17 694 l 261 694 l 353 317 l 457 694 l 651 694 l 756 317 l 847 694 z "},"x":{"ha":763,"x_min":0,"x_max":763,"o":"m 763 0 l 501 0 l 381 171 l 260 0 l 0 0 l 251 354 l 10 694 l 269 694 l 381 538 l 492 694 l 753 694 l 511 354 l 763 0 z "},"y":{"ha":763,"x_min":0,"x_max":763,"o":"m 507 694 l 763 694 l 525 11 q 368 -215 469 -146 q 106 -278 267 -285 l 106 -61 q 217 -43 179 -61 q 278 22 254 -25 l 0 694 l 258 694 l 399 292 l 507 694 z "},"z":{"ha":672,"x_min":56,"x_max":624,"o":"m 364 214 l 624 214 l 624 0 l 56 0 l 56 158 l 301 481 l 69 481 l 69 694 l 610 694 l 610 536 l 364 214 z "},"{":{"ha":503,"x_min":57,"x_max":475,"o":"m 475 -149 q 236 -87 315 -158 q 157 122 157 -17 l 157 308 q 132 368 157 353 q 57 378 107 383 l 57 599 q 132 608 107 593 q 157 668 157 624 l 157 854 q 236 1064 157 993 q 475 1125 315 1135 l 475 911 q 388 854 388 919 l 388 668 q 294 489 388 539 q 388 308 388 438 l 388 122 q 475 65 388 57 l 475 -149 z "},"|":{"ha":385,"x_min":76,"x_max":308,"o":"m 76 -278 l 76 1000 l 308 1000 l 308 -278 l 76 -278 z "},"}":{"ha":503,"x_min":28,"x_max":446,"o":"m 28 -149 l 28 65 q 115 122 115 57 l 115 308 q 208 489 115 438 q 115 668 115 539 l 115 854 q 28 911 115 919 l 28 1125 q 267 1064 188 1135 q 346 854 346 993 l 346 668 q 371 608 346 624 q 446 599 396 593 l 446 378 q 371 368 396 383 q 346 308 346 353 l 346 122 q 267 -87 346 -17 q 28 -149 188 -158 z "},"~":{"ha":842,"x_min":49,"x_max":792,"o":"m 610 640 l 792 556 q 653 349 756 401 q 429 354 551 296 q 291 396 329 400 q 232 326 253 392 l 49 411 q 188 618 85 565 q 413 613 290 671 q 518 574 485 581 q 572 581 551 567 q 610 640 593 594 z "},"¡":{"ha":408,"x_min":60,"x_max":349,"o":"m 102 672 q 123 693 102 672 q 204 714 144 714 q 306 672 264 714 q 349 569 349 631 q 306 467 349 510 q 204 425 264 425 q 102 467 144 425 q 60 569 60 510 q 102 672 60 631 m 108 340 l 300 340 l 346 0 l 346 -278 l 63 -278 l 63 0 l 108 340 z "},"¢":{"ha":733,"x_min":33,"x_max":719,"o":"m 401 344 q 522 414 488 344 l 719 300 q 590 168 674 217 q 403 119 506 119 q 325 126 367 119 l 285 0 l 197 0 l 246 151 q 91 284 149 194 q 33 486 33 374 q 139 747 33 642 q 403 853 244 853 q 471 847 442 853 l 511 972 l 599 972 l 550 824 q 719 674 661 778 l 522 560 q 481 606 510 585 l 396 344 l 401 344 m 265 486 q 318 372 265 411 l 400 628 q 303 588 342 626 q 265 486 265 549 z "},"£":{"ha":799,"x_min":35,"x_max":792,"o":"m 369 240 l 792 240 l 792 0 l 35 0 l 35 240 l 121 240 l 121 378 l 49 378 l 49 572 l 121 572 l 121 678 q 216 911 121 829 q 440 993 311 993 q 769 776 676 993 l 554 657 q 450 756 522 756 q 391 731 413 756 q 369 664 369 707 l 369 572 l 632 572 l 632 378 l 369 378 l 369 240 z "},"¤":{"ha":740,"x_min":35,"x_max":706,"o":"m 671 486 q 608 306 671 383 l 706 210 l 646 151 l 549 249 q 371 194 471 194 q 193 250 271 194 l 94 151 l 35 210 l 132 307 q 71 486 71 383 q 132 665 71 589 l 35 763 l 94 821 l 193 722 q 371 778 271 778 q 549 724 471 778 l 646 821 l 706 763 l 610 667 q 671 486 671 588 m 371 408 q 427 429 406 408 q 449 486 449 450 q 427 543 449 522 q 371 564 406 564 q 314 543 335 564 q 293 486 293 522 q 314 429 293 450 q 371 408 335 408 z "},"¥":{"ha":876,"x_min":0,"x_max":904,"o":"m 904 972 l 656 517 l 774 517 l 774 386 l 583 386 l 576 374 l 576 329 l 774 329 l 774 200 l 576 200 l 576 0 l 328 0 l 328 200 l 101 200 l 101 329 l 328 329 l 328 371 l 319 386 l 101 386 l 101 517 l 249 517 l 0 972 l 279 972 l 451 613 l 625 972 l 904 972 z "},"¦":{"ha":385,"x_min":76,"x_max":308,"o":"m 76 486 l 76 1000 l 308 1000 l 308 486 l 76 486 m 76 -278 l 76 236 l 308 236 l 308 -278 l 76 -278 z "},"§":{"ha":757,"x_min":53,"x_max":718,"o":"m 718 404 q 642 231 718 299 q 685 88 685 172 q 598 -93 685 -31 q 382 -156 511 -156 q 65 18 143 -156 l 264 126 q 382 36 300 36 q 454 88 454 36 q 444 113 454 101 q 414 135 435 125 q 374 153 393 146 q 321 174 356 161 q 265 194 286 186 q 111 292 169 235 q 53 444 53 349 q 133 617 53 554 q 97 753 97 674 q 181 931 97 868 q 378 993 264 993 q 674 813 590 993 l 486 718 q 385 806 450 806 q 342 792 357 806 q 326 758 326 779 q 335 730 326 743 q 366 705 344 717 q 406 685 388 693 q 460 665 424 678 q 515 643 496 651 q 663 551 608 606 q 718 404 718 497 m 300 501 q 281 456 281 485 q 303 408 281 426 q 375 372 326 390 q 422 356 390 367 q 469 339 453 344 q 490 386 490 356 q 476 422 490 407 q 446 444 461 438 q 396 465 431 451 q 356 480 392 467 q 300 501 319 493 z "},"¨":{"ha":540,"x_min":28,"x_max":519,"o":"m 139 743 q 60 776 93 743 q 28 854 28 808 q 60 933 28 900 q 139 965 93 965 q 216 933 183 965 q 249 854 249 900 q 216 776 249 808 q 139 743 183 743 m 408 743 q 331 776 364 743 q 299 854 299 808 q 331 933 299 900 q 408 965 364 965 q 487 933 454 965 q 519 854 519 900 q 487 776 519 808 q 408 743 454 743 z "},"©":{"ha":1082,"x_min":39,"x_max":1044,"o":"m 897 131 q 824 57 897 131 q 542 -17 750 -17 q 186 131 333 -17 q 39 486 39 278 q 186 842 39 694 q 542 989 333 989 q 897 842 750 989 q 1044 486 1044 694 q 897 131 1044 278 m 542 40 q 853 171 724 40 q 982 486 982 301 q 853 801 982 671 q 542 932 724 932 q 229 801 358 932 q 100 486 100 671 q 229 171 100 301 q 542 40 358 40 m 546 213 q 351 294 432 213 q 269 486 269 375 q 351 678 269 597 q 546 760 432 760 q 679 724 617 760 q 779 625 742 688 l 615 529 q 540 571 589 571 q 480 545 503 571 q 457 486 457 519 q 480 427 457 453 q 540 401 503 401 q 615 443 589 401 l 779 347 q 680 249 743 285 q 546 213 617 213 z "},"«":{"ha":790,"x_min":76,"x_max":714,"o":"m 429 700 l 274 429 l 429 158 l 233 158 l 76 429 l 233 700 l 429 700 m 714 700 l 557 429 l 714 158 l 517 158 l 361 429 l 517 700 l 714 700 z "},"¬":{"ha":790,"x_min":49,"x_max":742,"o":"m 49 596 l 742 596 l 742 210 l 507 210 l 507 376 l 49 376 l 49 596 z "},"®":{"ha":1082,"x_min":39,"x_max":1044,"o":"m 186 842 q 260 915 186 842 q 542 989 333 989 q 897 842 750 989 q 1044 486 1044 694 q 897 131 1044 278 q 542 -17 750 -17 q 186 131 333 -17 q 39 486 39 278 q 186 842 39 694 m 542 40 q 853 171 724 40 q 982 486 982 301 q 853 801 982 671 q 542 932 724 932 q 229 801 358 932 q 100 486 100 671 q 229 171 100 301 q 542 40 358 40 m 775 568 q 704 410 775 469 l 807 229 l 611 229 l 544 364 l 515 364 l 515 229 l 333 229 l 333 743 l 578 743 q 717 694 658 743 q 775 568 775 646 m 549 583 l 515 583 l 515 510 l 549 510 q 593 547 593 510 q 549 583 593 583 z "},"¯":{"ha":485,"x_min":28,"x_max":457,"o":"m 28 769 l 28 950 l 457 950 l 457 769 l 28 769 z "},"°":{"ha":576,"x_min":42,"x_max":535,"o":"m 289 640 q 113 711 183 640 q 42 882 42 782 q 113 1054 42 983 q 289 1125 183 1125 q 465 1054 394 1125 q 535 882 535 983 q 465 710 535 781 q 289 640 396 640 m 244 837 q 252 828 244 837 q 289 819 261 819 q 333 837 317 819 q 350 882 350 854 q 333 928 350 910 q 289 946 315 946 q 244 928 261 946 q 226 882 226 910 q 244 837 226 854 z "},"±":{"ha":778,"x_min":57,"x_max":721,"o":"m 499 735 l 721 735 l 721 515 l 499 515 l 499 326 l 279 326 l 279 515 l 57 515 l 57 735 l 279 735 l 279 924 l 499 924 l 499 735 m 57 29 l 57 250 l 721 250 l 721 29 l 57 29 z "},"´":{"ha":436,"x_min":28,"x_max":408,"o":"m 28 771 l 247 771 l 408 972 l 139 972 l 28 771 z "},"µ":{"ha":844,"x_min":67,"x_max":824,"o":"m 788 207 l 824 207 l 824 0 l 724 0 q 561 65 618 0 q 365 -21 499 -21 q 297 -11 328 -21 l 297 -278 l 67 -278 l 67 694 l 297 694 l 297 308 q 326 225 297 253 q 403 197 354 197 q 485 230 456 197 q 515 325 515 263 l 515 694 l 746 694 l 746 249 q 788 207 746 207 z "},"¶":{"ha":1010,"x_min":28,"x_max":961,"o":"m 961 972 l 961 750 l 868 750 l 868 -278 l 649 -278 l 649 750 l 560 750 l 560 -278 l 340 -278 l 340 349 q 119 440 211 349 q 28 660 28 531 q 119 881 28 790 q 340 972 210 972 l 961 972 z "},"·":{"ha":401,"x_min":56,"x_max":346,"o":"m 201 342 q 98 384 140 342 q 56 486 56 426 q 99 588 56 546 q 201 631 142 631 q 303 588 261 631 q 346 486 346 546 q 303 384 346 426 q 201 342 261 342 z "},"¸":{"ha":381,"x_min":28,"x_max":353,"o":"m 272 -64 q 328 -100 303 -74 q 353 -171 353 -126 q 28 -307 353 -326 l 28 -156 q 160 -136 160 -165 q 86 -108 160 -115 l 86 0 l 272 0 l 272 -64 z "},"»":{"ha":790,"x_min":76,"x_max":714,"o":"m 274 700 l 429 429 l 274 158 l 76 158 l 233 429 l 76 700 l 274 700 m 557 700 l 714 429 l 557 158 l 361 158 l 517 429 l 361 700 l 557 700 z "},"¼":{"ha":1136,"x_min":0,"x_max":1118,"o":"m 151 417 l 151 786 l 42 757 l 0 908 l 176 972 l 333 972 l 333 417 l 151 417 m 710 972 l 868 972 l 307 0 l 149 0 l 710 972 m 1118 238 l 1118 78 l 1069 78 l 1069 0 l 900 0 l 900 78 l 644 78 l 644 238 l 806 556 l 997 556 l 843 238 l 900 238 l 900 325 l 1069 325 l 1069 238 l 1118 238 z "},"½":{"ha":1128,"x_min":0,"x_max":1089,"o":"m 151 417 l 151 786 l 42 757 l 0 908 l 176 972 l 333 972 l 333 417 l 151 417 m 710 972 l 868 972 l 307 0 l 149 0 l 710 972 m 928 163 l 1089 163 l 1089 0 l 664 0 l 664 124 l 863 317 q 903 383 903 357 q 867 414 903 414 q 803 353 829 414 l 654 436 q 874 575 719 575 q 1022 525 961 575 q 1083 396 1083 475 q 986 218 1083 308 l 928 163 z "},"¾":{"ha":1218,"x_min":4,"x_max":1200,"o":"m 453 590 q 392 447 453 497 q 229 397 332 397 q 4 528 63 397 l 154 614 q 229 554 175 554 q 274 590 274 554 q 229 625 274 625 l 190 625 l 126 719 l 204 811 l 32 811 l 32 972 l 429 972 l 429 851 l 339 746 q 453 590 453 704 m 792 972 l 950 972 l 389 0 l 231 0 l 792 972 m 1200 238 l 1200 78 l 1151 78 l 1151 0 l 982 0 l 982 78 l 726 78 l 726 238 l 888 556 l 1079 556 l 925 238 l 982 238 l 982 325 l 1151 325 l 1151 238 l 1200 238 z "},"¿":{"ha":760,"x_min":57,"x_max":731,"o":"m 292 672 q 313 693 292 672 q 394 714 333 714 q 497 672 456 714 q 539 569 539 631 q 497 467 539 510 q 394 425 454 425 q 292 467 335 425 q 250 569 250 510 q 292 672 250 631 m 513 340 q 480 233 513 283 q 408 151 447 182 q 337 81 369 119 q 304 8 304 43 q 386 -58 304 -58 q 519 51 471 -58 l 731 -69 q 590 -240 685 -182 q 376 -299 494 -299 q 150 -224 243 -299 q 57 -22 57 -150 q 80 85 57 36 q 135 168 103 135 q 199 230 167 201 q 253 286 231 258 q 276 340 276 314 l 513 340 z "},"À":{"ha":932,"x_min":-7,"x_max":938,"o":"m 597 1049 l 378 1049 l 217 1250 l 486 1250 l 597 1049 m 669 0 l 628 140 l 304 140 l 263 0 l -7 0 l 314 972 l 617 972 l 938 0 l 669 0 m 368 354 l 564 354 l 465 685 l 368 354 z "},"Á":{"ha":932,"x_min":-7,"x_max":938,"o":"m 708 1250 l 547 1049 l 328 1049 l 439 1250 l 708 1250 m 669 0 l 628 140 l 304 140 l 263 0 l -7 0 l 314 972 l 617 972 l 938 0 l 669 0 m 368 354 l 564 354 l 465 685 l 368 354 z "},"Â":{"ha":932,"x_min":-7,"x_max":938,"o":"m 460 1113 l 404 1035 l 196 1035 l 343 1250 l 575 1250 l 722 1035 l 514 1035 l 460 1113 m 669 0 l 628 140 l 304 140 l 263 0 l -7 0 l 314 972 l 617 972 l 938 0 l 669 0 m 368 354 l 564 354 l 465 685 l 368 354 z "},"Ã":{"ha":932,"x_min":-7,"x_max":938,"o":"m 450 1067 q 400 1085 417 1089 q 383 1039 383 1082 l 217 1039 q 233 1156 217 1107 q 275 1228 249 1204 q 336 1262 301 1253 q 407 1264 371 1271 q 481 1238 443 1257 q 531 1218 514 1215 q 549 1264 549 1221 l 715 1264 q 699 1147 715 1196 q 657 1073 683 1097 q 596 1040 631 1049 q 524 1040 561 1032 q 450 1067 488 1047 m 669 0 l 628 140 l 304 140 l 263 0 l -7 0 l 314 972 l 617 972 l 938 0 l 669 0 m 368 354 l 564 354 l 465 685 l 368 354 z "},"Ä":{"ha":932,"x_min":-7,"x_max":938,"o":"m 331 1021 q 252 1053 285 1021 q 219 1132 219 1086 q 252 1210 219 1178 q 331 1243 285 1243 q 408 1210 375 1243 q 440 1132 440 1178 q 408 1053 440 1086 q 331 1021 375 1021 m 600 1021 q 523 1053 556 1021 q 490 1132 490 1086 q 523 1210 490 1178 q 600 1243 556 1243 q 678 1210 646 1243 q 711 1132 711 1178 q 678 1053 711 1086 q 600 1021 646 1021 m 669 0 l 628 140 l 304 140 l 263 0 l -7 0 l 314 972 l 617 972 l 938 0 l 669 0 m 368 354 l 564 354 l 465 685 l 368 354 z "},"Å":{"ha":932,"x_min":-7,"x_max":938,"o":"m 669 0 l 628 140 l 304 140 l 263 0 l -7 0 l 308 957 q 271 1069 271 1006 q 326 1201 271 1149 q 465 1253 381 1253 q 607 1201 553 1253 q 661 1069 661 1149 q 622 954 661 1004 l 938 0 l 669 0 m 465 1114 q 432 1101 444 1114 q 419 1069 419 1089 q 432 1038 419 1050 q 465 1025 444 1025 q 513 1069 513 1025 q 465 1114 513 1114 m 368 354 l 564 354 l 465 685 l 368 354 z "},"Æ":{"ha":1229,"x_min":-7,"x_max":1188,"o":"m 860 233 l 1188 233 l 1188 0 l 618 0 l 618 140 l 349 140 l 269 0 l -7 0 l 549 972 l 1181 972 l 1181 740 l 860 740 l 860 606 l 1146 606 l 1146 376 l 860 376 l 860 233 m 468 354 l 618 354 l 618 621 l 468 354 z "},"Ç":{"ha":999,"x_min":39,"x_max":967,"o":"m 546 222 q 669 252 614 222 q 751 335 724 282 l 967 210 q 831 66 915 124 q 646 -11 747 8 l 646 -64 q 701 -100 676 -74 q 726 -171 726 -126 q 401 -307 726 -326 l 401 -156 q 533 -136 533 -165 q 460 -108 533 -115 l 460 -14 q 156 153 274 14 q 39 486 39 293 q 183 848 39 703 q 546 993 326 993 q 790 931 678 993 q 967 763 903 868 l 751 639 q 669 720 724 690 q 546 750 614 750 q 358 677 429 750 q 286 486 286 604 q 358 295 286 368 q 546 222 429 222 z "},"È":{"ha":743,"x_min":76,"x_max":701,"o":"m 518 1049 l 299 1049 l 138 1250 l 407 1250 l 518 1049 m 325 233 l 701 233 l 701 0 l 76 0 l 76 972 l 694 972 l 694 740 l 325 740 l 325 606 l 660 606 l 660 376 l 325 376 l 325 233 z "},"É":{"ha":743,"x_min":76,"x_max":701,"o":"m 629 1250 l 468 1049 l 249 1049 l 360 1250 l 629 1250 m 325 233 l 701 233 l 701 0 l 76 0 l 76 972 l 694 972 l 694 740 l 325 740 l 325 606 l 660 606 l 660 376 l 325 376 l 325 233 z "},"Ê":{"ha":743,"x_min":76,"x_max":701,"o":"m 381 1113 l 325 1035 l 117 1035 l 264 1250 l 496 1250 l 643 1035 l 435 1035 l 381 1113 m 325 233 l 701 233 l 701 0 l 76 0 l 76 972 l 694 972 l 694 740 l 325 740 l 325 606 l 660 606 l 660 376 l 325 376 l 325 233 z "},"Ë":{"ha":743,"x_min":76,"x_max":701,"o":"m 251 1021 q 173 1053 206 1021 q 140 1132 140 1086 q 173 1210 140 1178 q 251 1243 206 1243 q 328 1210 296 1243 q 361 1132 361 1178 q 328 1053 361 1086 q 251 1021 296 1021 m 521 1021 q 444 1053 476 1021 q 411 1132 411 1086 q 444 1210 411 1178 q 521 1243 476 1243 q 599 1210 567 1243 q 632 1132 632 1178 q 599 1053 632 1086 q 521 1021 567 1021 m 325 233 l 701 233 l 701 0 l 76 0 l 76 972 l 694 972 l 694 740 l 325 740 l 325 606 l 660 606 l 660 376 l 325 376 l 325 233 z "},"Ì":{"ha":401,"x_min":-47,"x_max":333,"o":"m 333 1049 l 222 1250 l -47 1250 l 114 1049 l 333 1049 m 76 972 l 325 972 l 325 0 l 76 0 l 76 972 z "},"Í":{"ha":401,"x_min":64,"x_max":444,"o":"m 64 1049 l 283 1049 l 444 1250 l 175 1250 l 64 1049 m 76 972 l 325 972 l 325 0 l 76 0 l 76 972 z "},"Î":{"ha":401,"x_min":-68,"x_max":458,"o":"m 196 1113 l 140 1035 l -68 1035 l 79 1250 l 311 1250 l 458 1035 l 250 1035 l 196 1113 m 76 0 l 76 972 l 325 972 l 325 0 l 76 0 z "},"Ï":{"ha":401,"x_min":-44,"x_max":447,"o":"m 67 1021 q -12 1053 21 1021 q -44 1132 -44 1086 q -12 1210 -44 1178 q 67 1243 21 1243 q 144 1210 111 1243 q 176 1132 176 1178 q 144 1053 176 1086 q 67 1021 111 1021 m 336 1021 q 259 1053 292 1021 q 226 1132 226 1086 q 259 1210 226 1178 q 336 1243 292 1243 q 415 1210 382 1243 q 447 1132 447 1178 q 415 1053 447 1086 q 336 1021 382 1021 m 76 972 l 325 972 l 325 0 l 76 0 l 76 972 z "},"Ð":{"ha":1025,"x_min":14,"x_max":988,"o":"m 515 972 q 852 833 717 972 q 988 486 988 693 q 852 140 988 279 q 515 0 717 0 l 119 0 l 119 365 l 14 365 l 14 585 l 119 585 l 119 972 l 515 972 m 515 240 q 681 308 617 240 q 744 486 744 375 q 681 665 744 597 q 515 732 617 732 l 375 732 l 375 585 l 556 585 l 556 365 l 375 365 l 375 240 l 515 240 z "},"Ñ":{"ha":938,"x_min":76,"x_max":860,"o":"m 203 1039 q 219 1156 203 1107 q 261 1228 235 1204 q 322 1262 288 1253 q 393 1264 357 1271 q 467 1238 429 1257 q 517 1218 500 1215 q 535 1264 535 1221 l 701 1264 q 685 1147 701 1196 q 643 1073 669 1097 q 582 1040 617 1049 q 510 1040 547 1032 q 436 1067 474 1047 q 386 1085 403 1089 q 369 1039 369 1082 l 203 1039 m 613 972 l 860 972 l 860 0 l 668 0 l 325 489 l 325 0 l 76 0 l 76 972 l 269 972 l 613 483 l 613 972 z "},"Ò":{"ha":1097,"x_min":39,"x_max":1058,"o":"m 681 1063 l 569 1264 l 300 1264 l 461 1063 l 681 1063 m 910 126 q 836 52 910 126 q 549 -21 763 -21 q 187 126 335 -21 q 39 486 39 272 q 187 847 39 700 q 549 993 335 993 q 910 847 763 993 q 1058 486 1058 700 q 910 126 1058 272 m 361 297 q 399 259 361 297 q 549 222 436 222 q 736 297 661 222 q 811 486 811 371 q 736 676 811 601 q 549 750 661 750 q 361 676 436 750 q 286 486 286 601 q 361 297 286 371 z "},"Ó":{"ha":1097,"x_min":39,"x_max":1058,"o":"m 411 1063 l 631 1063 l 792 1264 l 522 1264 l 411 1063 m 910 126 q 836 52 910 126 q 549 -21 763 -21 q 187 126 335 -21 q 39 486 39 272 q 187 847 39 700 q 549 993 335 993 q 910 847 763 993 q 1058 486 1058 700 q 910 126 1058 272 m 361 297 q 399 259 361 297 q 549 222 436 222 q 736 297 661 222 q 811 486 811 371 q 736 676 811 601 q 549 750 661 750 q 361 676 436 750 q 286 486 286 601 q 361 297 286 371 z "},"Ô":{"ha":1097,"x_min":39,"x_max":1058,"o":"m 543 1126 l 488 1049 l 279 1049 l 426 1264 l 658 1264 l 806 1049 l 597 1049 l 543 1126 m 187 847 q 261 920 187 847 q 549 993 335 993 q 910 847 763 993 q 1058 486 1058 700 q 910 126 1058 272 q 549 -21 763 -21 q 187 126 335 -21 q 39 486 39 272 q 187 847 39 700 m 361 297 q 399 259 361 297 q 549 222 436 222 q 736 297 661 222 q 811 486 811 371 q 736 676 811 601 q 549 750 661 750 q 361 676 436 750 q 286 486 286 601 q 361 297 286 371 z "},"Õ":{"ha":1097,"x_min":39,"x_max":1058,"o":"m 300 1053 q 316 1169 300 1121 q 358 1242 332 1218 q 419 1276 385 1267 q 490 1278 454 1285 q 564 1251 526 1271 q 615 1232 597 1229 q 632 1278 632 1235 l 799 1278 q 783 1160 799 1210 q 740 1087 767 1111 q 679 1054 714 1063 q 608 1053 644 1046 q 533 1081 571 1061 q 483 1099 500 1103 q 467 1053 467 1096 l 300 1053 m 910 126 q 836 52 910 126 q 549 -21 763 -21 q 187 126 335 -21 q 39 486 39 272 q 187 847 39 700 q 549 993 335 993 q 910 847 763 993 q 1058 486 1058 700 q 910 126 1058 272 m 361 297 q 399 259 361 297 q 549 222 436 222 q 736 297 661 222 q 811 486 811 371 q 736 676 811 601 q 549 750 661 750 q 361 676 436 750 q 286 486 286 601 q 361 297 286 371 z "},"Ö":{"ha":1097,"x_min":39,"x_max":1058,"o":"m 414 1035 q 335 1067 368 1035 q 303 1146 303 1100 q 335 1224 303 1192 q 414 1257 368 1257 q 491 1224 458 1257 q 524 1146 524 1192 q 491 1067 524 1100 q 414 1035 458 1035 m 683 1035 q 606 1067 639 1035 q 574 1146 574 1100 q 606 1224 574 1192 q 683 1257 639 1257 q 762 1224 729 1257 q 794 1146 794 1192 q 762 1067 794 1100 q 683 1035 729 1035 m 910 126 q 836 52 910 126 q 549 -21 763 -21 q 187 126 335 -21 q 39 486 39 272 q 187 847 39 700 q 549 993 335 993 q 910 847 763 993 q 1058 486 1058 700 q 910 126 1058 272 m 361 297 q 399 259 361 297 q 549 222 436 222 q 736 297 661 222 q 811 486 811 371 q 736 676 811 601 q 549 750 661 750 q 361 676 436 750 q 286 486 286 601 q 361 297 286 371 z "},"×":{"ha":747,"x_min":57,"x_max":690,"o":"m 690 647 l 529 486 l 690 325 l 535 169 l 374 331 l 213 169 l 57 325 l 218 486 l 57 647 l 213 803 l 374 642 l 535 803 l 690 647 z "},"Ø":{"ha":1104,"x_min":46,"x_max":1065,"o":"m 922 840 q 1065 486 1065 694 q 917 126 1065 272 q 556 -21 769 -21 q 281 57 407 -21 l 217 -19 l 113 40 l 188 132 q 46 486 46 278 q 194 847 46 700 q 556 993 342 993 q 831 915 707 993 l 893 992 l 997 932 l 922 840 m 293 486 q 344 324 293 393 l 674 725 q 556 750 617 750 q 368 676 443 750 q 293 486 293 601 m 556 222 q 743 297 668 222 q 818 486 818 371 q 765 650 818 579 l 436 249 q 556 222 493 222 z "},"Ù":{"ha":903,"x_min":67,"x_max":836,"o":"m 583 1049 l 472 1250 l 203 1250 l 364 1049 l 583 1049 m 728 72 q 675 26 728 72 q 451 -21 621 -21 q 174 72 282 -21 q 67 319 67 165 l 67 972 l 315 972 l 315 343 q 451 221 315 221 q 588 343 588 221 l 588 972 l 836 972 l 836 319 q 728 72 836 165 z "},"Ú":{"ha":903,"x_min":67,"x_max":836,"o":"m 314 1049 l 533 1049 l 694 1250 l 425 1250 l 314 1049 m 728 72 q 675 26 728 72 q 451 -21 621 -21 q 174 72 282 -21 q 67 319 67 165 l 67 972 l 315 972 l 315 343 q 451 221 315 221 q 588 343 588 221 l 588 972 l 836 972 l 836 319 q 728 72 836 165 z "},"Û":{"ha":903,"x_min":67,"x_max":836,"o":"m 446 1113 l 390 1035 l 182 1035 l 329 1250 l 561 1250 l 708 1035 l 500 1035 l 446 1113 m 588 972 l 836 972 l 836 319 q 728 72 836 165 q 451 -21 621 -21 q 174 72 282 -21 q 67 319 67 165 l 67 972 l 315 972 l 315 343 q 451 221 315 221 q 588 343 588 221 l 588 972 z "},"Ü":{"ha":903,"x_min":67,"x_max":836,"o":"m 317 1021 q 238 1053 271 1021 q 206 1132 206 1086 q 238 1210 206 1178 q 317 1243 271 1243 q 394 1210 361 1243 q 426 1132 426 1178 q 394 1053 426 1086 q 317 1021 361 1021 m 586 1021 q 509 1053 542 1021 q 476 1132 476 1086 q 509 1210 476 1178 q 586 1243 542 1243 q 665 1210 632 1243 q 697 1132 697 1178 q 665 1053 697 1086 q 586 1021 632 1021 m 728 72 q 675 26 728 72 q 451 -21 621 -21 q 174 72 282 -21 q 67 319 67 165 l 67 972 l 315 972 l 315 343 q 451 221 315 221 q 588 343 588 221 l 588 972 l 836 972 l 836 319 q 728 72 836 165 z "},"Ý":{"ha":904,"x_min":0,"x_max":904,"o":"m 694 1250 l 533 1049 l 314 1049 l 425 1250 l 694 1250 m 904 972 l 576 374 l 576 0 l 328 0 l 328 371 l 0 972 l 279 972 l 451 613 l 625 972 l 904 972 z "},"Þ":{"ha":822,"x_min":76,"x_max":801,"o":"m 458 828 q 702 731 603 828 q 801 486 801 635 q 702 242 801 339 q 458 146 603 146 l 325 146 l 325 0 l 76 0 l 76 972 l 325 972 l 325 828 l 458 828 m 458 383 q 525 413 497 383 q 553 486 553 442 q 525 560 553 531 q 458 590 497 590 l 325 590 l 325 383 l 458 383 z "},"ß":{"ha":765,"x_min":67,"x_max":751,"o":"m 381 -7 l 381 199 q 519 261 519 181 q 451 403 519 303 q 383 542 383 503 q 415 626 383 574 q 446 717 446 679 q 428 768 446 747 q 376 789 410 789 q 319 765 340 789 q 297 697 297 740 l 297 0 l 67 0 l 67 690 q 153 912 67 831 q 386 993 240 993 q 603 922 524 993 q 683 754 683 851 q 667 669 683 707 q 633 604 650 632 q 617 553 617 576 q 650 470 617 522 q 717 349 683 418 q 751 206 751 279 q 666 28 751 89 q 381 -7 581 -32 z "},"à":{"ha":854,"x_min":33,"x_max":788,"o":"m 558 771 l 339 771 l 178 972 l 447 972 l 558 771 m 557 694 l 788 694 l 788 0 l 557 0 l 557 64 q 360 -19 486 -19 q 127 85 221 -19 q 33 347 33 190 q 127 609 33 504 q 360 714 221 714 q 557 631 486 714 l 557 694 m 306 238 q 326 217 306 238 q 411 196 346 196 q 517 238 476 196 q 557 347 557 279 q 517 457 557 415 q 411 499 476 499 q 306 457 346 499 q 265 347 265 415 q 306 238 265 279 z "},"á":{"ha":854,"x_min":33,"x_max":788,"o":"m 669 972 l 508 771 l 289 771 l 400 972 l 669 972 m 557 694 l 788 694 l 788 0 l 557 0 l 557 64 q 360 -19 486 -19 q 127 85 221 -19 q 33 347 33 190 q 127 609 33 504 q 360 714 221 714 q 557 631 486 714 l 557 694 m 306 238 q 326 217 306 238 q 411 196 346 196 q 517 238 476 196 q 557 347 557 279 q 517 457 557 415 q 411 499 476 499 q 306 457 346 499 q 265 347 265 415 q 306 238 265 279 z "},"â":{"ha":854,"x_min":33,"x_max":788,"o":"m 421 835 l 365 757 l 157 757 l 304 972 l 536 972 l 683 757 l 475 757 l 421 835 m 557 694 l 788 694 l 788 0 l 557 0 l 557 64 q 360 -19 486 -19 q 127 85 221 -19 q 33 347 33 190 q 127 609 33 504 q 360 714 221 714 q 557 631 486 714 l 557 694 m 306 238 q 326 217 306 238 q 411 196 346 196 q 517 238 476 196 q 557 347 557 279 q 517 457 557 415 q 411 499 476 499 q 306 457 346 499 q 265 347 265 415 q 306 238 265 279 z "},"ã":{"ha":854,"x_min":33,"x_max":788,"o":"m 411 789 q 361 808 378 811 q 344 761 344 804 l 178 761 q 194 878 178 829 q 236 951 210 926 q 297 984 263 975 q 368 986 332 993 q 442 960 404 979 q 492 940 475 938 q 510 986 510 943 l 676 986 q 660 869 676 918 q 618 795 644 819 q 557 763 592 771 q 485 762 522 754 q 411 789 449 769 m 557 694 l 788 694 l 788 0 l 557 0 l 557 64 q 360 -19 486 -19 q 127 85 221 -19 q 33 347 33 190 q 127 609 33 504 q 360 714 221 714 q 557 631 486 714 l 557 694 m 306 238 q 326 217 306 238 q 411 196 346 196 q 517 238 476 196 q 557 347 557 279 q 517 457 557 415 q 411 499 476 499 q 306 457 346 499 q 265 347 265 415 q 306 238 265 279 z "},"ä":{"ha":854,"x_min":33,"x_max":788,"o":"m 292 743 q 213 776 246 743 q 181 854 181 808 q 213 933 181 900 q 292 965 246 965 q 369 933 336 965 q 401 854 401 900 q 369 776 401 808 q 292 743 336 743 m 561 743 q 484 776 517 743 q 451 854 451 808 q 484 933 451 900 q 561 965 517 965 q 640 933 607 965 q 672 854 672 900 q 640 776 672 808 q 561 743 607 743 m 557 694 l 788 694 l 788 0 l 557 0 l 557 64 q 360 -19 486 -19 q 127 85 221 -19 q 33 347 33 190 q 127 609 33 504 q 360 714 221 714 q 557 631 486 714 l 557 694 m 306 238 q 326 217 306 238 q 411 196 346 196 q 517 238 476 196 q 557 347 557 279 q 517 457 557 415 q 411 499 476 499 q 306 457 346 499 q 265 347 265 415 q 306 238 265 279 z "},"å":{"ha":854,"x_min":33,"x_max":788,"o":"m 426 740 q 287 792 342 740 q 232 924 232 844 q 287 1055 232 1003 q 426 1107 342 1107 q 568 1055 514 1107 q 622 924 622 1003 q 568 792 622 843 q 426 740 514 740 m 426 968 q 393 956 406 968 q 381 924 381 943 q 393 892 381 904 q 426 879 406 879 q 474 924 474 879 q 426 968 474 968 m 557 694 l 788 694 l 788 0 l 557 0 l 557 64 q 360 -19 486 -19 q 127 85 221 -19 q 33 347 33 190 q 127 609 33 504 q 360 714 221 714 q 557 631 486 714 l 557 694 m 306 238 q 326 217 306 238 q 411 196 346 196 q 517 238 476 196 q 557 347 557 279 q 517 457 557 415 q 411 499 476 499 q 306 457 346 499 q 265 347 265 415 q 306 238 265 279 z "},"æ":{"ha":1317,"x_min":33,"x_max":1285,"o":"m 797 263 q 954 171 836 171 q 1085 224 1036 171 l 1249 113 q 982 -19 1147 -19 q 767 68 850 -19 l 767 0 l 557 0 l 557 57 q 365 -19 488 -19 q 130 86 226 -19 q 33 347 33 192 q 130 608 33 503 q 365 714 226 714 q 557 638 488 714 l 557 694 l 767 694 l 767 631 q 969 714 846 714 q 1197 610 1110 714 q 1285 349 1285 507 q 1275 263 1285 303 l 797 263 m 793 424 l 1061 424 q 931 519 1033 519 q 793 424 825 519 m 306 240 q 326 219 306 240 q 411 199 346 199 q 517 240 476 199 q 557 347 557 281 q 517 455 557 414 q 411 496 476 496 q 306 455 346 496 q 265 347 265 414 q 306 240 265 281 z "},"ç":{"ha":733,"x_min":33,"x_max":719,"o":"m 401 206 q 522 275 488 206 l 719 161 q 504 -6 650 33 l 504 -64 q 560 -100 535 -74 q 585 -171 585 -126 q 260 -307 585 -326 l 260 -156 q 392 -136 392 -165 q 318 -108 392 -115 l 318 -11 q 113 116 192 17 q 33 347 33 215 q 139 608 33 503 q 403 714 244 714 q 590 665 506 714 q 719 535 674 617 l 522 421 q 401 489 485 489 q 304 449 343 489 q 265 347 265 410 q 304 245 265 285 q 401 206 343 206 z "},"è":{"ha":793,"x_min":33,"x_max":761,"o":"m 535 781 l 315 781 l 154 982 l 424 982 l 535 781 m 272 263 q 428 178 307 178 q 554 226 503 178 l 721 110 q 422 -19 618 -19 q 140 84 246 -19 q 33 346 33 188 q 138 608 33 503 q 403 714 242 714 q 660 610 558 714 q 761 349 761 506 q 751 263 761 303 l 272 263 m 269 422 l 536 422 q 406 519 508 519 q 269 422 299 519 z "},"é":{"ha":793,"x_min":33,"x_max":761,"o":"m 646 982 l 485 781 l 265 781 l 376 982 l 646 982 m 272 263 q 428 178 307 178 q 554 226 503 178 l 721 110 q 422 -19 618 -19 q 140 84 246 -19 q 33 346 33 188 q 138 608 33 503 q 403 714 242 714 q 660 610 558 714 q 761 349 761 506 q 751 263 761 303 l 272 263 m 269 422 l 536 422 q 406 519 508 519 q 269 422 299 519 z "},"ê":{"ha":793,"x_min":33,"x_max":761,"o":"m 397 844 l 342 767 l 133 767 l 281 982 l 513 982 l 660 767 l 451 767 l 397 844 m 272 263 q 428 178 307 178 q 554 226 503 178 l 721 110 q 422 -19 618 -19 q 140 84 246 -19 q 33 346 33 188 q 138 608 33 503 q 403 714 242 714 q 660 610 558 714 q 761 349 761 506 q 751 263 761 303 l 272 263 m 269 422 l 536 422 q 406 519 508 519 q 269 422 299 519 z "},"ë":{"ha":793,"x_min":33,"x_max":761,"o":"m 268 753 q 190 785 222 753 q 157 864 157 818 q 190 942 157 910 q 268 975 222 975 q 345 942 313 975 q 378 864 378 910 q 345 785 378 818 q 268 753 313 753 m 538 753 q 460 785 493 753 q 428 864 428 818 q 460 942 428 910 q 538 975 493 975 q 616 942 583 975 q 649 864 649 910 q 616 785 649 818 q 538 753 583 753 m 272 263 q 428 178 307 178 q 554 226 503 178 l 721 110 q 422 -19 618 -19 q 140 84 246 -19 q 33 346 33 188 q 138 608 33 503 q 403 714 242 714 q 660 610 558 714 q 761 349 761 506 q 751 263 761 303 l 272 263 m 269 422 l 536 422 q 406 519 508 519 q 269 422 299 519 z "},"ì":{"ha":364,"x_min":-26,"x_max":297,"o":"m 290 764 l 235 972 l -26 972 l 71 764 l 290 764 m 297 0 l 67 0 l 67 694 l 297 694 l 297 0 z "},"í":{"ha":364,"x_min":67,"x_max":385,"o":"m 67 764 l 286 764 l 385 972 l 122 972 l 67 764 m 67 0 l 67 694 l 297 694 l 297 0 l 67 0 z "},"î":{"ha":364,"x_min":-61,"x_max":425,"o":"m 182 825 l 140 757 l -61 757 l 67 972 l 297 972 l 425 757 l 224 757 l 182 825 m 67 0 l 67 694 l 297 694 l 297 0 l 67 0 z "},"ï":{"ha":364,"x_min":-50,"x_max":414,"o":"m 132 785 q 116 770 132 785 q 57 754 100 754 q -18 785 14 754 q -50 861 -50 817 q -18 937 -50 906 q 57 968 14 968 q 132 937 100 968 q 164 861 164 906 q 132 785 164 817 m 382 785 q 366 770 382 785 q 307 754 350 754 q 232 785 264 754 q 200 861 200 817 q 232 937 200 906 q 307 968 264 968 q 382 937 350 968 q 414 861 414 906 q 382 785 414 817 m 67 0 l 67 694 l 297 694 l 297 0 l 67 0 z "},"ð":{"ha":783,"x_min":33,"x_max":750,"o":"m 686 514 q 750 319 750 426 q 644 74 750 167 q 392 -19 539 -19 q 138 73 242 -19 q 33 319 33 165 q 116 531 33 440 q 321 635 199 622 l 268 708 l 92 639 l 92 803 l 176 836 l 79 972 l 344 972 l 385 918 l 565 989 l 565 824 l 481 790 l 686 514 m 300 224 q 317 208 300 224 q 392 192 335 192 q 483 224 449 192 q 518 317 518 257 q 496 389 518 358 q 392 436 460 436 q 300 404 335 436 q 265 317 265 372 q 300 224 265 257 z "},"ñ":{"ha":804,"x_min":67,"x_max":746,"o":"m 399 803 q 349 822 365 825 q 332 775 332 818 l 165 775 q 181 892 165 843 q 224 965 197 940 q 285 998 250 989 q 356 1000 319 1007 q 429 974 392 993 q 480 954 463 951 q 497 1000 497 957 l 664 1000 q 648 883 664 932 q 606 809 632 833 q 544 776 579 785 q 473 776 510 768 q 399 803 436 783 m 490 714 q 674 637 603 714 q 746 415 746 560 l 746 0 l 515 0 l 515 386 q 487 468 515 440 q 411 496 458 496 q 327 463 357 496 q 297 369 297 431 l 297 0 l 67 0 l 67 694 l 297 694 l 297 625 q 490 714 360 714 z "},"ò":{"ha":810,"x_min":33,"x_max":775,"o":"m 536 785 l 425 986 l 156 986 l 317 785 l 536 785 m 404 -19 q 142 87 250 -19 q 33 347 33 193 q 142 608 33 501 q 404 714 250 714 q 667 608 560 714 q 775 347 775 501 q 667 87 775 193 q 404 -19 560 -19 m 404 203 q 505 243 465 203 q 544 347 544 283 q 505 451 544 411 q 404 492 465 492 q 305 451 344 492 q 265 347 265 411 q 305 243 265 283 q 404 203 344 203 z "},"ó":{"ha":810,"x_min":33,"x_max":775,"o":"m 267 785 l 486 785 l 647 986 l 378 986 l 267 785 m 404 -19 q 142 87 250 -19 q 33 347 33 193 q 142 608 33 501 q 404 714 250 714 q 667 608 560 714 q 775 347 775 501 q 667 87 775 193 q 404 -19 560 -19 m 404 203 q 505 243 465 203 q 544 347 544 283 q 505 451 544 411 q 404 492 465 492 q 305 451 344 492 q 265 347 265 411 q 305 243 265 283 q 404 203 344 203 z "},"ô":{"ha":810,"x_min":33,"x_max":775,"o":"m 399 849 l 343 771 l 135 771 l 282 986 l 514 986 l 661 771 l 453 771 l 399 849 m 404 714 q 667 608 560 714 q 775 347 775 501 q 667 87 775 193 q 404 -19 560 -19 q 142 87 250 -19 q 33 347 33 193 q 142 608 33 501 q 404 714 250 714 m 404 203 q 505 243 465 203 q 544 347 544 283 q 505 451 544 411 q 404 492 465 492 q 305 451 344 492 q 265 347 265 411 q 305 243 265 283 q 404 203 344 203 z "},"õ":{"ha":810,"x_min":33,"x_max":775,"o":"m 156 775 q 172 892 156 843 q 214 965 188 940 q 275 998 240 989 q 346 1000 310 1007 q 419 974 382 993 q 470 954 453 951 q 488 1000 488 957 l 654 1000 q 638 883 654 932 q 596 809 622 833 q 535 776 569 785 q 463 776 500 768 q 389 803 426 783 q 339 822 356 825 q 322 775 322 818 l 156 775 m 404 -19 q 142 87 250 -19 q 33 347 33 193 q 142 608 33 501 q 404 714 250 714 q 667 608 560 714 q 775 347 775 501 q 667 87 775 193 q 404 -19 560 -19 m 404 203 q 505 243 465 203 q 544 347 544 283 q 505 451 544 411 q 404 492 465 492 q 305 451 344 492 q 265 347 265 411 q 305 243 265 283 q 404 203 344 203 z "},"ö":{"ha":810,"x_min":33,"x_max":775,"o":"m 269 757 q 191 790 224 757 q 158 868 158 822 q 191 947 158 914 q 269 979 224 979 q 347 947 314 979 q 379 868 379 914 q 347 790 379 822 q 269 757 314 757 m 539 757 q 462 790 494 757 q 429 868 429 822 q 462 947 429 914 q 539 979 494 979 q 617 947 585 979 q 650 868 650 914 q 617 790 650 822 q 539 757 585 757 m 404 -19 q 142 87 250 -19 q 33 347 33 193 q 142 608 33 501 q 404 714 250 714 q 667 608 560 714 q 775 347 775 501 q 667 87 775 193 q 404 -19 560 -19 m 404 203 q 505 243 465 203 q 544 347 544 283 q 505 451 544 411 q 404 492 465 492 q 305 451 344 492 q 265 347 265 411 q 305 243 265 283 q 404 203 344 203 z "},"÷":{"ha":765,"x_min":49,"x_max":715,"o":"m 382 638 q 289 676 326 638 q 251 769 251 714 q 289 863 251 825 q 382 901 326 901 q 476 863 439 901 q 514 769 514 825 q 476 676 514 714 q 382 638 439 638 m 49 376 l 49 596 l 715 596 l 715 376 l 49 376 m 382 71 q 289 109 326 71 q 251 203 251 147 q 289 297 251 258 q 382 335 326 335 q 476 297 439 335 q 514 203 514 258 q 476 109 514 147 q 382 71 439 71 z "},"ø":{"ha":810,"x_min":33,"x_max":775,"o":"m 675 600 q 775 347 775 496 q 667 87 775 193 q 404 -19 560 -19 q 210 35 299 -19 l 168 -17 l 83 31 l 135 93 q 33 347 33 199 q 142 608 33 501 q 404 714 250 714 q 600 660 511 714 l 642 711 l 726 663 l 675 600 m 265 347 q 282 274 265 306 l 454 483 q 404 492 431 492 q 305 451 344 492 q 265 347 265 411 m 404 203 q 505 243 465 203 q 544 347 544 283 q 528 421 544 389 l 356 211 q 404 203 378 203 z "},"ù":{"ha":804,"x_min":58,"x_max":738,"o":"m 531 771 l 311 771 l 150 972 l 419 972 l 531 771 m 507 694 l 738 694 l 738 0 l 507 0 l 507 69 q 314 -19 444 -19 q 130 58 201 -19 q 58 279 58 135 l 58 694 l 289 694 l 289 308 q 317 226 289 254 q 393 199 346 199 q 477 231 447 199 q 507 325 507 264 l 507 694 z "},"ú":{"ha":804,"x_min":58,"x_max":738,"o":"m 642 972 l 481 771 l 261 771 l 372 972 l 642 972 m 507 694 l 738 694 l 738 0 l 507 0 l 507 69 q 314 -19 444 -19 q 130 58 201 -19 q 58 279 58 135 l 58 694 l 289 694 l 289 308 q 317 226 289 254 q 393 199 346 199 q 477 231 447 199 q 507 325 507 264 l 507 694 z "},"û":{"ha":804,"x_min":58,"x_max":738,"o":"m 393 835 l 338 757 l 129 757 l 276 972 l 508 972 l 656 757 l 447 757 l 393 835 m 507 694 l 738 694 l 738 0 l 507 0 l 507 69 q 314 -19 444 -19 q 130 58 201 -19 q 58 279 58 135 l 58 694 l 289 694 l 289 308 q 317 226 289 254 q 393 199 346 199 q 477 231 447 199 q 507 325 507 264 l 507 694 z "},"ü":{"ha":804,"x_min":58,"x_max":738,"o":"m 264 743 q 185 776 218 743 q 153 854 153 808 q 185 933 153 900 q 264 965 218 965 q 341 933 308 965 q 374 854 374 900 q 341 776 374 808 q 264 743 308 743 m 533 743 q 456 776 489 743 q 424 854 424 808 q 456 933 424 900 q 533 965 489 965 q 612 933 579 965 q 644 854 644 900 q 612 776 644 808 q 533 743 579 743 m 507 694 l 738 694 l 738 0 l 507 0 l 507 69 q 314 -19 444 -19 q 130 58 201 -19 q 58 279 58 135 l 58 694 l 289 694 l 289 308 q 317 226 289 254 q 393 199 346 199 q 477 231 447 199 q 507 325 507 264 l 507 694 z "},"ý":{"ha":763,"x_min":0,"x_max":763,"o":"m 629 972 l 468 771 l 249 771 l 360 972 l 629 972 m 507 694 l 763 694 l 525 11 q 368 -215 469 -146 q 106 -278 267 -285 l 106 -61 q 217 -43 179 -61 q 278 22 254 -25 l 0 694 l 258 694 l 399 292 l 507 694 z "},"þ":{"ha":854,"x_min":67,"x_max":821,"o":"m 494 714 q 727 609 633 714 q 821 347 821 504 q 727 85 821 190 q 494 -19 633 -19 q 297 64 368 -19 l 297 -278 l 67 -278 l 67 972 l 297 972 l 297 631 q 494 714 368 714 m 338 238 q 358 217 338 238 q 443 196 378 196 q 549 238 508 196 q 589 347 589 279 q 549 457 589 415 q 443 499 508 499 q 338 457 378 499 q 297 347 297 415 q 338 238 297 279 z "},"ÿ":{"ha":763,"x_min":0,"x_max":763,"o":"m 251 743 q 173 776 206 743 q 140 854 140 808 q 173 933 140 900 q 251 965 206 965 q 328 933 296 965 q 361 854 361 900 q 328 776 361 808 q 251 743 296 743 m 521 743 q 444 776 476 743 q 411 854 411 808 q 444 933 411 900 q 521 965 476 965 q 599 933 567 965 q 632 854 632 900 q 599 776 632 808 q 521 743 567 743 m 507 694 l 763 694 l 525 11 q 368 -215 469 -146 q 106 -278 267 -285 l 106 -61 q 217 -43 179 -61 q 278 22 254 -25 l 0 694 l 258 694 l 399 292 l 507 694 z "},"Ā":{"ha":932,"x_min":-7,"x_max":938,"o":"m 679 1228 l 679 1047 l 250 1047 l 250 1228 l 679 1228 m 669 0 l 628 140 l 304 140 l 263 0 l -7 0 l 314 972 l 617 972 l 938 0 l 669 0 m 368 354 l 564 354 l 465 685 l 368 354 z "},"ā":{"ha":854,"x_min":33,"x_max":788,"o":"m 640 950 l 640 769 l 211 769 l 211 950 l 640 950 m 557 694 l 788 694 l 788 0 l 557 0 l 557 64 q 360 -19 486 -19 q 127 85 221 -19 q 33 347 33 190 q 127 609 33 504 q 360 714 221 714 q 557 631 486 714 l 557 694 m 306 238 q 326 217 306 238 q 411 196 346 196 q 517 238 476 196 q 557 347 557 279 q 517 457 557 415 q 411 499 476 499 q 306 457 346 499 q 265 347 265 415 q 306 238 265 279 z "},"Ă":{"ha":932,"x_min":-7,"x_max":938,"o":"m 651 1081 q 618 1052 651 1081 q 465 1024 586 1024 q 281 1081 344 1024 q 217 1246 217 1138 l 411 1246 q 465 1185 411 1185 q 521 1246 521 1185 l 715 1246 q 651 1081 715 1138 m 669 0 l 628 140 l 304 140 l 263 0 l -7 0 l 314 972 l 617 972 l 938 0 l 669 0 m 368 354 l 564 354 l 465 685 l 368 354 z "},"ă":{"ha":854,"x_min":33,"x_max":788,"o":"m 612 803 q 580 774 612 803 q 426 746 547 746 q 242 803 306 746 q 178 968 178 860 l 372 968 q 426 907 372 907 q 482 968 482 907 l 676 968 q 612 803 676 860 m 557 694 l 788 694 l 788 0 l 557 0 l 557 64 q 360 -19 486 -19 q 127 85 221 -19 q 33 347 33 190 q 127 609 33 504 q 360 714 221 714 q 557 631 486 714 l 557 694 m 306 238 q 326 217 306 238 q 411 196 346 196 q 517 238 476 196 q 557 347 557 279 q 517 457 557 415 q 411 499 476 499 q 306 457 346 499 q 265 347 265 415 q 306 238 265 279 z "},"Ą":{"ha":932,"x_min":-7,"x_max":938,"o":"m 908 -140 q 938 -136 918 -142 l 938 -274 q 815 -297 879 -297 q 711 -265 751 -297 q 671 -171 671 -233 q 756 0 671 -89 l 669 0 l 628 140 l 304 140 l 263 0 l -7 0 l 314 972 l 617 972 l 938 0 q 879 -108 879 -64 q 908 -140 876 -140 m 368 354 l 564 354 l 465 685 l 368 354 z "},"ą":{"ha":854,"x_min":33,"x_max":788,"o":"m 788 694 l 788 0 q 728 -108 728 -67 q 758 -140 728 -140 q 788 -136 765 -142 l 788 -274 q 665 -297 729 -297 q 560 -265 601 -297 q 519 -171 519 -233 q 606 0 519 -90 l 557 0 l 557 64 q 360 -19 486 -19 q 127 85 221 -19 q 33 347 33 190 q 127 609 33 504 q 360 714 221 714 q 557 631 486 714 l 557 694 l 788 694 m 306 238 q 326 217 306 238 q 411 196 346 196 q 517 238 476 196 q 557 347 557 279 q 517 457 557 415 q 411 499 476 499 q 306 457 346 499 q 265 347 265 415 q 306 238 265 279 z "},"Ć":{"ha":999,"x_min":39,"x_max":967,"o":"m 408 1063 l 628 1063 l 789 1264 l 519 1264 l 408 1063 m 546 -21 q 183 124 326 -21 q 39 486 39 269 q 183 848 39 703 q 546 993 326 993 q 790 931 678 993 q 967 763 903 868 l 751 639 q 669 720 724 690 q 546 750 614 750 q 358 677 429 750 q 286 486 286 604 q 358 295 286 368 q 546 222 429 222 q 669 252 614 222 q 751 335 724 282 l 967 210 q 791 41 903 103 q 546 -21 679 -21 z "},"ć":{"ha":733,"x_min":33,"x_max":719,"o":"m 267 778 l 486 778 l 647 979 l 378 979 l 267 778 m 403 -19 q 139 86 244 -19 q 33 347 33 192 q 139 608 33 503 q 403 714 244 714 q 590 665 506 714 q 719 535 674 617 l 522 421 q 401 489 485 489 q 304 449 343 489 q 265 347 265 410 q 304 245 265 285 q 401 206 343 206 q 522 275 488 206 l 719 161 q 590 29 674 78 q 403 -19 506 -19 z "},"Ċ":{"ha":999,"x_min":39,"x_max":967,"o":"m 546 1046 q 458 1083 494 1046 q 421 1169 421 1119 q 458 1258 421 1221 q 546 1294 494 1294 q 633 1258 596 1294 q 669 1169 669 1221 q 633 1083 669 1119 q 546 1046 596 1046 m 546 -21 q 183 124 326 -21 q 39 486 39 269 q 183 848 39 703 q 546 993 326 993 q 790 931 678 993 q 967 763 903 868 l 751 639 q 669 720 724 690 q 546 750 614 750 q 358 677 429 750 q 286 486 286 604 q 358 295 286 368 q 546 222 429 222 q 669 252 614 222 q 751 335 724 282 l 967 210 q 791 41 903 103 q 546 -21 679 -21 z "},"ċ":{"ha":733,"x_min":33,"x_max":719,"o":"m 404 761 q 316 798 353 761 q 279 885 279 835 q 316 973 279 936 q 404 1010 353 1010 q 491 973 454 1010 q 528 885 528 936 q 491 798 528 835 q 404 761 454 761 m 403 -19 q 139 86 244 -19 q 33 347 33 192 q 139 608 33 503 q 403 714 244 714 q 590 665 506 714 q 719 535 674 617 l 522 421 q 401 489 485 489 q 304 449 343 489 q 265 347 265 410 q 304 245 265 285 q 401 206 343 206 q 522 275 488 206 l 719 161 q 590 29 674 78 q 403 -19 506 -19 z "},"Č":{"ha":999,"x_min":39,"x_max":967,"o":"m 424 1049 l 276 1264 l 485 1264 l 540 1186 l 594 1264 l 803 1264 l 656 1049 l 424 1049 m 546 222 q 669 252 614 222 q 751 335 724 282 l 967 210 q 791 41 903 103 q 546 -21 679 -21 q 183 124 326 -21 q 39 486 39 269 q 183 848 39 703 q 546 993 326 993 q 790 931 678 993 q 967 763 903 868 l 751 639 q 669 720 724 690 q 546 750 614 750 q 358 677 429 750 q 286 486 286 604 q 358 295 286 368 q 546 222 429 222 z "},"č":{"ha":733,"x_min":33,"x_max":719,"o":"m 282 764 l 135 979 l 343 979 l 399 901 l 453 979 l 661 979 l 514 764 l 282 764 m 401 206 q 522 275 488 206 l 719 161 q 590 29 674 78 q 403 -19 506 -19 q 139 86 244 -19 q 33 347 33 192 q 139 608 33 503 q 403 714 244 714 q 590 665 506 714 q 719 535 674 617 l 522 421 q 401 489 485 489 q 304 449 343 489 q 265 347 265 410 q 304 245 265 285 q 401 206 343 206 z "},"Ď":{"ha":983,"x_min":76,"x_max":944,"o":"m 336 1035 l 189 1250 l 397 1250 l 453 1172 l 507 1250 l 715 1250 l 568 1035 l 336 1035 m 472 972 q 809 833 674 972 q 944 486 944 693 q 809 140 944 279 q 472 0 674 0 l 76 0 l 76 972 l 472 972 m 472 240 q 638 308 574 240 q 701 486 701 375 q 638 665 701 597 q 472 732 574 732 l 332 732 l 332 240 l 472 240 z "},"ď":{"ha":1049,"x_min":33,"x_max":1069,"o":"m 557 631 l 557 972 l 788 972 l 788 0 l 557 0 l 557 64 q 360 -19 486 -19 q 127 85 221 -19 q 33 347 33 190 q 127 609 33 504 q 360 714 221 714 q 557 631 486 714 m 856 972 l 1069 972 l 1021 668 l 842 668 l 856 972 m 306 238 q 326 217 306 238 q 411 196 346 196 q 517 238 476 196 q 557 347 557 279 q 517 457 557 415 q 411 499 476 499 q 306 457 346 499 q 265 347 265 415 q 306 238 265 279 z "},"Đ":{"ha":1025,"x_min":14,"x_max":988,"o":"m 515 972 q 852 833 717 972 q 988 486 988 693 q 852 140 988 279 q 515 0 717 0 l 119 0 l 119 365 l 14 365 l 14 585 l 119 585 l 119 972 l 515 972 m 515 240 q 681 308 617 240 q 744 486 744 375 q 681 665 744 597 q 515 732 617 732 l 375 732 l 375 585 l 556 585 l 556 365 l 375 365 l 375 240 l 515 240 z "},"đ":{"ha":868,"x_min":33,"x_max":868,"o":"m 868 892 l 868 746 l 788 746 l 788 0 l 557 0 l 557 57 q 365 -19 488 -19 q 130 85 226 -19 q 33 340 33 189 q 130 597 33 492 q 365 701 226 701 q 557 625 488 701 l 557 746 l 368 746 l 368 892 l 557 892 l 557 972 l 788 972 l 788 892 l 868 892 m 306 234 q 327 214 306 234 q 411 193 347 193 q 516 234 475 193 q 557 340 557 275 q 516 447 557 406 q 411 489 475 489 q 306 447 347 489 q 265 340 265 406 q 306 234 265 275 z "},"Ē":{"ha":743,"x_min":76,"x_max":701,"o":"m 600 1228 l 600 1047 l 171 1047 l 171 1228 l 600 1228 m 325 233 l 701 233 l 701 0 l 76 0 l 76 972 l 694 972 l 694 740 l 325 740 l 325 606 l 660 606 l 660 376 l 325 376 l 325 233 z "},"ē":{"ha":793,"x_min":33,"x_max":761,"o":"m 617 960 l 617 779 l 188 779 l 188 960 l 617 960 m 272 263 q 428 178 307 178 q 554 226 503 178 l 721 110 q 422 -19 618 -19 q 140 84 246 -19 q 33 346 33 188 q 138 608 33 503 q 403 714 242 714 q 660 610 558 714 q 761 349 761 506 q 751 263 761 303 l 272 263 m 269 422 l 536 422 q 406 519 508 519 q 269 422 299 519 z "},"Ė":{"ha":743,"x_min":76,"x_max":701,"o":"m 386 1032 q 298 1069 335 1032 q 261 1156 261 1106 q 298 1244 261 1207 q 386 1281 335 1281 q 473 1244 436 1281 q 510 1156 510 1207 q 473 1069 510 1106 q 386 1032 436 1032 m 325 233 l 701 233 l 701 0 l 76 0 l 76 972 l 694 972 l 694 740 l 325 740 l 325 606 l 660 606 l 660 376 l 325 376 l 325 233 z "},"ė":{"ha":793,"x_min":33,"x_max":761,"o":"m 403 764 q 315 801 351 764 q 278 888 278 838 q 315 976 278 939 q 403 1013 351 1013 q 490 976 453 1013 q 526 888 526 939 q 490 801 526 838 q 403 764 453 764 m 272 263 q 428 178 307 178 q 554 226 503 178 l 721 110 q 422 -19 618 -19 q 140 84 246 -19 q 33 346 33 188 q 138 608 33 503 q 403 714 242 714 q 660 610 558 714 q 761 349 761 506 q 751 263 761 303 l 272 263 m 269 422 l 536 422 q 406 519 508 519 q 269 422 299 519 z "},"Ę":{"ha":743,"x_min":76,"x_max":701,"o":"m 701 0 q 642 -108 642 -64 q 672 -140 639 -140 q 701 -136 679 -142 l 701 -274 q 579 -297 643 -297 q 474 -265 515 -297 q 433 -171 433 -233 q 519 0 433 -90 l 76 0 l 76 972 l 694 972 l 694 740 l 325 740 l 325 606 l 660 606 l 660 376 l 325 376 l 325 233 l 701 233 l 701 0 z "},"ę":{"ha":793,"x_min":33,"x_max":761,"o":"m 272 263 q 428 178 307 178 q 554 226 503 178 l 721 110 q 676 64 697 81 q 579 -108 579 -57 q 610 -140 579 -140 q 639 -136 617 -142 l 639 -274 q 517 -297 581 -297 q 412 -265 453 -297 q 371 -171 371 -233 q 468 -18 371 -93 q 422 -19 453 -19 q 140 84 246 -19 q 33 346 33 188 q 138 608 33 503 q 403 714 242 714 q 660 610 558 714 q 761 349 761 506 q 751 263 761 303 l 272 263 m 269 422 l 536 422 q 406 519 508 519 q 269 422 299 519 z "},"Ě":{"ha":743,"x_min":76,"x_max":701,"o":"m 264 1035 l 117 1250 l 325 1250 l 381 1172 l 435 1250 l 643 1250 l 496 1035 l 264 1035 m 325 233 l 701 233 l 701 0 l 76 0 l 76 972 l 694 972 l 694 740 l 325 740 l 325 606 l 660 606 l 660 376 l 325 376 l 325 233 z "},"ě":{"ha":793,"x_min":33,"x_max":761,"o":"m 281 767 l 133 982 l 342 982 l 397 904 l 451 982 l 660 982 l 513 767 l 281 767 m 272 263 q 428 178 307 178 q 554 226 503 178 l 721 110 q 422 -19 618 -19 q 140 84 246 -19 q 33 346 33 188 q 138 608 33 503 q 403 714 242 714 q 660 610 558 714 q 761 349 761 506 q 751 263 761 303 l 272 263 m 269 422 l 536 422 q 406 519 508 519 q 269 422 299 519 z "},"Ğ":{"ha":1081,"x_min":39,"x_max":1042,"o":"m 734 1094 q 702 1066 734 1094 q 549 1038 669 1038 q 364 1094 428 1038 q 300 1260 300 1151 l 494 1260 q 549 1199 494 1199 q 604 1260 604 1199 l 799 1260 q 734 1094 799 1151 m 1042 557 l 1042 458 q 908 112 1042 244 q 560 -21 774 -21 q 185 125 332 -21 q 39 485 39 271 q 185 846 39 699 q 546 993 331 993 q 795 932 682 993 q 972 769 908 871 l 761 649 q 676 722 732 694 q 549 750 619 750 q 360 675 433 750 q 286 483 286 600 q 359 293 286 371 q 564 215 432 215 q 788 343 733 215 l 551 343 l 551 557 l 1042 557 z "},"ğ":{"ha":858,"x_min":39,"x_max":792,"o":"m 417 760 q 233 817 297 760 q 168 982 168 874 l 363 982 q 417 921 363 921 q 472 982 472 921 l 667 982 q 602 817 667 874 q 417 760 538 760 m 564 694 l 792 694 l 792 28 q 760 -120 792 -56 q 676 -223 729 -185 q 560 -280 624 -261 q 426 -299 497 -299 q 221 -256 311 -299 q 85 -129 131 -212 l 276 -18 q 424 -97 326 -97 q 525 -65 486 -97 q 564 28 564 -33 l 564 94 q 369 8 493 8 q 133 111 226 8 q 39 361 39 214 q 133 611 39 508 q 369 714 226 714 q 564 628 493 714 l 564 694 m 310 258 q 331 237 310 258 q 417 217 351 217 q 523 258 482 217 q 564 361 564 299 q 523 465 564 424 q 417 506 482 506 q 310 465 351 506 q 269 361 269 424 q 310 258 269 299 z "},"Ġ":{"ha":1081,"x_min":39,"x_max":1042,"o":"m 549 1046 q 460 1083 497 1046 q 424 1169 424 1119 q 460 1258 424 1221 q 549 1294 497 1294 q 635 1258 599 1294 q 672 1169 672 1221 q 635 1083 672 1119 q 549 1046 599 1046 m 1042 557 l 1042 458 q 908 112 1042 244 q 560 -21 774 -21 q 185 125 332 -21 q 39 485 39 271 q 185 846 39 699 q 546 993 331 993 q 795 932 682 993 q 972 769 908 871 l 761 649 q 676 722 732 694 q 549 750 619 750 q 360 675 433 750 q 286 483 286 600 q 359 293 286 371 q 564 215 432 215 q 788 343 733 215 l 551 343 l 551 557 l 1042 557 z "},"ġ":{"ha":858,"x_min":39,"x_max":792,"o":"m 417 768 q 328 805 365 768 q 292 892 292 842 q 328 980 292 943 q 417 1017 365 1017 q 503 980 467 1017 q 540 892 540 943 q 503 805 540 842 q 417 768 467 768 m 564 694 l 792 694 l 792 28 q 760 -120 792 -56 q 676 -223 729 -185 q 560 -280 624 -261 q 426 -299 497 -299 q 221 -256 311 -299 q 85 -129 131 -212 l 276 -18 q 424 -97 326 -97 q 525 -65 486 -97 q 564 28 564 -33 l 564 94 q 369 8 493 8 q 133 111 226 8 q 39 361 39 214 q 133 611 39 508 q 369 714 226 714 q 564 628 493 714 l 564 694 m 310 258 q 331 237 310 258 q 417 217 351 217 q 523 258 482 217 q 564 361 564 299 q 523 465 564 424 q 417 506 482 506 q 310 465 351 506 q 269 361 269 424 q 310 258 269 299 z "},"Ģ":{"ha":1081,"x_min":39,"x_max":1042,"o":"m 1042 557 l 1042 458 q 908 112 1042 244 q 560 -21 774 -21 q 185 125 332 -21 q 39 485 39 271 q 185 846 39 699 q 546 993 331 993 q 795 932 682 993 q 972 769 908 871 l 761 649 q 676 722 732 694 q 549 750 619 750 q 360 675 433 750 q 286 483 286 600 q 359 293 286 371 q 564 215 432 215 q 788 343 733 215 l 551 343 l 551 557 l 1042 557 m 443 -385 l 457 -79 l 671 -79 l 622 -385 l 443 -385 z "},"ģ":{"ha":858,"x_min":39,"x_max":792,"o":"m 521 1104 l 507 799 l 293 799 l 342 1104 l 521 1104 m 564 694 l 792 694 l 792 28 q 760 -120 792 -56 q 676 -223 729 -185 q 560 -280 624 -261 q 426 -299 497 -299 q 221 -256 311 -299 q 85 -129 131 -212 l 276 -18 q 424 -97 326 -97 q 525 -65 486 -97 q 564 28 564 -33 l 564 94 q 369 8 493 8 q 133 111 226 8 q 39 361 39 214 q 133 611 39 508 q 369 714 226 714 q 564 628 493 714 l 564 694 m 310 258 q 331 237 310 258 q 417 217 351 217 q 523 258 482 217 q 564 361 564 299 q 523 465 564 424 q 417 506 482 506 q 310 465 351 506 q 269 361 269 424 q 310 258 269 299 z "},"Ħ":{"ha":979,"x_min":21,"x_max":957,"o":"m 957 844 l 957 664 l 874 664 l 874 0 l 626 0 l 626 306 l 353 306 l 353 0 l 104 0 l 104 664 l 21 664 l 21 844 l 104 844 l 104 972 l 353 972 l 353 844 l 626 844 l 626 972 l 874 972 l 874 844 l 957 844 m 626 546 l 626 664 l 353 664 l 353 546 l 626 546 z "},"ħ":{"ha":818,"x_min":0,"x_max":760,"o":"m 504 697 q 688 620 615 697 q 760 399 760 543 l 760 0 l 529 0 l 529 369 q 500 452 529 424 q 424 481 471 481 q 341 448 371 481 q 311 353 311 415 l 311 0 l 81 0 l 81 746 l 0 746 l 0 892 l 81 892 l 81 972 l 311 972 l 311 892 l 499 892 l 499 746 l 311 746 l 311 610 q 504 697 372 697 z "},"Ī":{"ha":401,"x_min":-14,"x_max":415,"o":"m -14 1047 l -14 1228 l 415 1228 l 415 1047 l -14 1047 m 76 972 l 325 972 l 325 0 l 76 0 l 76 972 z "},"ī":{"ha":364,"x_min":3,"x_max":363,"o":"m 3 769 l 3 957 l 363 957 l 363 769 l 3 769 m 67 0 l 67 694 l 297 694 l 297 0 l 67 0 z "},"Į":{"ha":401,"x_min":68,"x_max":336,"o":"m 307 -140 q 336 -136 314 -142 l 336 -274 q 214 -297 278 -297 q 109 -265 150 -297 q 68 -171 68 -233 q 143 0 68 -89 l 76 0 l 76 972 l 325 972 l 325 0 q 276 -108 276 -62 q 307 -140 276 -140 z "},"į":{"ha":364,"x_min":44,"x_max":315,"o":"m 276 791 q 256 771 276 791 q 182 751 236 751 q 88 791 128 751 q 49 885 49 831 q 88 978 49 939 q 182 1017 128 1017 q 276 978 236 1017 q 315 885 315 939 q 276 791 315 831 m 283 -140 q 313 -136 290 -142 l 313 -274 q 190 -297 254 -297 q 85 -265 126 -297 q 44 -171 44 -233 q 106 0 44 -87 l 67 0 l 67 694 l 297 694 l 297 0 q 253 -108 253 -64 q 283 -140 253 -140 z "},"İ":{"ha":401,"x_min":76,"x_max":325,"o":"m 201 1032 q 113 1069 150 1032 q 76 1156 76 1106 q 113 1244 76 1207 q 201 1281 150 1281 q 288 1244 251 1281 q 325 1156 325 1207 q 288 1069 325 1106 q 201 1032 251 1032 m 76 972 l 325 972 l 325 0 l 76 0 l 76 972 z "},"ı":{"ha":364,"x_min":67,"x_max":297,"o":"m 67 0 l 67 694 l 297 694 l 297 0 l 67 0 z "},"Ķ":{"ha":876,"x_min":76,"x_max":882,"o":"m 560 500 l 882 0 l 604 0 l 325 435 l 325 0 l 76 0 l 76 972 l 325 972 l 325 564 l 590 972 l 868 972 l 560 500 m 321 -385 l 335 -79 l 549 -79 l 500 -385 l 321 -385 z "},"ķ":{"ha":753,"x_min":67,"x_max":753,"o":"m 297 296 l 297 0 l 67 0 l 67 972 l 297 972 l 297 404 l 476 694 l 743 694 l 510 347 l 753 0 l 494 0 l 297 296 m 283 -385 l 297 -79 l 511 -79 l 463 -385 l 283 -385 z "},"Ĺ":{"ha":674,"x_min":74,"x_max":660,"o":"m 454 1250 l 293 1049 l 74 1049 l 185 1250 l 454 1250 m 325 240 l 660 240 l 660 0 l 76 0 l 76 972 l 325 972 l 325 240 z "},"ĺ":{"ha":364,"x_min":65,"x_max":446,"o":"m 65 1056 l 285 1056 l 446 1257 l 176 1257 l 65 1056 m 67 0 l 67 1014 l 297 1014 l 297 0 l 67 0 z "},"Ļ":{"ha":674,"x_min":76,"x_max":660,"o":"m 325 240 l 660 240 l 660 0 l 76 0 l 76 972 l 325 972 l 325 240 m 260 -385 l 274 -79 l 488 -79 l 439 -385 l 260 -385 z "},"ļ":{"ha":364,"x_min":63,"x_max":297,"o":"m 67 0 l 67 1014 l 297 1014 l 297 0 l 67 0 m 242 -385 l 290 -79 l 76 -79 l 63 -385 l 242 -385 z "},"Ľ":{"ha":674,"x_min":76,"x_max":660,"o":"m 325 240 l 660 240 l 660 0 l 76 0 l 76 972 l 325 972 l 325 240 m 631 972 l 583 696 l 389 696 l 403 972 l 631 972 z "},"ľ":{"ha":556,"x_min":67,"x_max":575,"o":"m 67 0 l 67 1014 l 297 1014 l 297 0 l 67 0 m 528 710 l 575 1014 l 361 1014 l 347 710 l 528 710 z "},"Ł":{"ha":701,"x_min":21,"x_max":688,"o":"m 353 240 l 688 240 l 688 0 l 104 0 l 104 275 l 21 226 l 21 472 l 104 521 l 104 972 l 353 972 l 353 664 l 519 761 l 519 515 l 353 418 l 353 240 z "},"ł":{"ha":388,"x_min":7,"x_max":381,"o":"m 381 704 l 381 486 l 310 442 l 310 0 l 79 0 l 79 294 l 7 249 l 7 467 l 79 513 l 79 1014 l 310 1014 l 310 660 l 381 704 z "},"Ń":{"ha":938,"x_min":76,"x_max":860,"o":"m 314 1049 l 533 1049 l 694 1250 l 425 1250 l 314 1049 m 613 972 l 860 972 l 860 0 l 668 0 l 325 489 l 325 0 l 76 0 l 76 972 l 269 972 l 613 483 l 613 972 z "},"ń":{"ha":804,"x_min":67,"x_max":746,"o":"m 657 986 l 496 785 l 276 785 l 388 986 l 657 986 m 490 714 q 674 637 603 714 q 746 415 746 560 l 746 0 l 515 0 l 515 386 q 487 468 515 440 q 411 496 458 496 q 327 463 357 496 q 297 369 297 431 l 297 0 l 67 0 l 67 694 l 297 694 l 297 625 q 490 714 360 714 z "},"Ņ":{"ha":938,"x_min":76,"x_max":860,"o":"m 613 972 l 860 972 l 860 0 l 668 0 l 325 489 l 325 0 l 76 0 l 76 972 l 269 972 l 613 483 l 613 972 m 546 -385 l 594 -79 l 381 -79 l 367 -385 l 546 -385 z "},"ņ":{"ha":804,"x_min":67,"x_max":746,"o":"m 490 714 q 674 637 603 714 q 746 415 746 560 l 746 0 l 515 0 l 515 386 q 487 468 515 440 q 411 496 458 496 q 327 463 357 496 q 297 369 297 431 l 297 0 l 67 0 l 67 694 l 297 694 l 297 625 q 490 714 360 714 m 299 -385 l 313 -79 l 526 -79 l 478 -385 l 299 -385 z "},"Ň":{"ha":938,"x_min":76,"x_max":860,"o":"m 329 1035 l 182 1250 l 390 1250 l 446 1172 l 500 1250 l 708 1250 l 561 1035 l 329 1035 m 613 972 l 860 972 l 860 0 l 668 0 l 325 489 l 325 0 l 76 0 l 76 972 l 269 972 l 613 483 l 613 972 z "},"ň":{"ha":804,"x_min":67,"x_max":746,"o":"m 292 771 l 144 986 l 353 986 l 408 908 l 463 986 l 671 986 l 524 771 l 292 771 m 490 714 q 674 637 603 714 q 746 415 746 560 l 746 0 l 515 0 l 515 386 q 487 468 515 440 q 411 496 458 496 q 327 463 357 496 q 297 369 297 431 l 297 0 l 67 0 l 67 694 l 297 694 l 297 625 q 490 714 360 714 z "},"Ŋ":{"ha":938,"x_min":76,"x_max":860,"o":"m 613 972 l 860 972 l 860 0 q 521 -287 860 -308 l 521 -74 q 597 -57 572 -76 q 622 7 622 -37 l 622 65 l 325 489 l 325 0 l 76 0 l 76 972 l 269 972 l 613 483 l 613 972 z "},"ŋ":{"ha":804,"x_min":67,"x_max":746,"o":"m 490 714 q 674 637 603 714 q 746 415 746 560 l 746 0 q 435 -290 746 -312 l 435 -82 q 495 -66 475 -85 q 515 0 515 -47 l 515 386 q 487 468 515 440 q 411 496 458 496 q 327 463 357 496 q 297 369 297 431 l 297 0 l 67 0 l 67 694 l 297 694 l 297 625 q 490 714 360 714 z "},"Ō":{"ha":1097,"x_min":39,"x_max":1058,"o":"m 333 1061 l 333 1242 l 763 1242 l 763 1061 l 333 1061 m 910 126 q 836 52 910 126 q 549 -21 763 -21 q 187 126 335 -21 q 39 486 39 272 q 187 847 39 700 q 549 993 335 993 q 910 847 763 993 q 1058 486 1058 700 q 910 126 1058 272 m 361 297 q 399 259 361 297 q 549 222 436 222 q 736 297 661 222 q 811 486 811 371 q 736 676 811 601 q 549 750 661 750 q 361 676 436 750 q 286 486 286 601 q 361 297 286 371 z "},"ō":{"ha":810,"x_min":33,"x_max":775,"o":"m 189 783 l 189 964 l 618 964 l 618 783 l 189 783 m 404 -19 q 142 87 250 -19 q 33 347 33 193 q 142 608 33 501 q 404 714 250 714 q 667 608 560 714 q 775 347 775 501 q 667 87 775 193 q 404 -19 560 -19 m 404 203 q 505 243 465 203 q 544 347 544 283 q 505 451 544 411 q 404 492 465 492 q 305 451 344 492 q 265 347 265 411 q 305 243 265 283 q 404 203 344 203 z "},"Ő":{"ha":1097,"x_min":39,"x_max":1058,"o":"m 272 1049 l 490 1049 l 610 1257 l 383 1257 l 272 1049 m 539 1049 l 758 1049 l 892 1257 l 664 1257 l 539 1049 m 910 126 q 836 52 910 126 q 549 -21 763 -21 q 187 126 335 -21 q 39 486 39 272 q 187 847 39 700 q 549 993 335 993 q 910 847 763 993 q 1058 486 1058 700 q 910 126 1058 272 m 361 297 q 399 259 361 297 q 549 222 436 222 q 736 297 661 222 q 811 486 811 371 q 736 676 811 601 q 549 750 661 750 q 361 676 436 750 q 286 486 286 601 q 361 297 286 371 z "},"ő":{"ha":810,"x_min":33,"x_max":775,"o":"m 128 771 l 346 771 l 465 979 l 239 979 l 128 771 m 394 771 l 614 771 l 747 979 l 519 979 l 394 771 m 404 -19 q 142 87 250 -19 q 33 347 33 193 q 142 608 33 501 q 404 714 250 714 q 667 608 560 714 q 775 347 775 501 q 667 87 775 193 q 404 -19 560 -19 m 404 203 q 505 243 465 203 q 544 347 544 283 q 505 451 544 411 q 404 492 465 492 q 305 451 344 492 q 265 347 265 411 q 305 243 265 283 q 404 203 344 203 z "},"Œ":{"ha":1297,"x_min":39,"x_max":1256,"o":"m 936 233 l 1256 233 l 1256 0 l 688 0 q 542 -21 617 -21 q 184 126 329 -21 q 39 486 39 272 q 184 847 39 700 q 542 993 329 993 q 688 972 617 993 l 1249 972 l 1249 740 l 936 740 l 936 606 l 1214 606 l 1214 376 l 936 376 l 936 233 m 688 247 l 688 725 q 542 750 625 750 q 358 676 429 750 q 286 486 286 603 q 358 296 286 369 q 542 222 429 222 q 688 247 625 222 z "},"œ":{"ha":1301,"x_min":33,"x_max":1269,"o":"m 781 263 q 932 178 817 178 q 1063 226 1011 178 l 1229 110 q 931 -19 1126 -19 q 658 106 754 -19 q 394 -19 567 -19 q 136 88 239 -19 q 33 346 33 196 q 135 606 33 497 q 394 714 238 714 q 658 590 564 714 q 929 714 756 714 q 1173 610 1076 714 q 1269 349 1269 506 q 1260 263 1269 303 l 781 263 m 778 424 l 1044 424 q 915 519 1018 519 q 778 424 808 519 m 404 203 q 505 243 465 203 q 544 347 544 283 q 505 451 544 411 q 404 492 465 492 q 305 451 344 492 q 265 347 265 411 q 305 243 265 283 q 404 203 344 203 z "},"Ŕ":{"ha":861,"x_min":76,"x_max":850,"o":"m 646 1250 l 485 1049 l 265 1049 l 376 1250 l 646 1250 m 583 0 l 414 314 l 325 314 l 325 0 l 76 0 l 76 972 l 465 972 q 715 877 614 972 q 815 636 815 782 q 771 476 815 549 q 650 360 726 403 l 850 0 l 583 0 m 325 743 l 325 525 l 463 525 q 538 554 508 524 q 567 633 567 585 q 538 713 567 682 q 463 743 508 743 l 325 743 z "},"ŕ":{"ha":526,"x_min":67,"x_max":514,"o":"m 514 972 l 353 771 l 133 771 l 244 972 l 514 972 m 297 565 q 375 671 317 633 q 506 708 433 708 l 506 453 q 362 424 426 465 q 297 288 297 382 l 297 0 l 67 0 l 67 694 l 297 694 l 297 565 z "},"Ŗ":{"ha":861,"x_min":76,"x_max":850,"o":"m 650 360 l 850 0 l 583 0 l 414 314 l 325 314 l 325 0 l 76 0 l 76 972 l 465 972 q 715 877 614 972 q 815 636 815 782 q 771 476 815 549 q 650 360 726 403 m 325 743 l 325 525 l 463 525 q 538 554 508 524 q 567 633 567 585 q 538 713 567 682 q 463 743 508 743 l 325 743 m 336 -385 l 350 -79 l 564 -79 l 515 -385 l 336 -385 z "},"ŗ":{"ha":526,"x_min":61,"x_max":506,"o":"m 297 565 q 375 671 317 633 q 506 708 433 708 l 506 453 q 362 424 426 465 q 297 288 297 382 l 297 0 l 67 0 l 67 694 l 297 694 l 297 565 m 61 -385 l 75 -79 l 289 -79 l 240 -385 l 61 -385 z "},"Ř":{"ha":861,"x_min":76,"x_max":850,"o":"m 281 1035 l 133 1250 l 342 1250 l 397 1172 l 451 1250 l 660 1250 l 513 1035 l 281 1035 m 583 0 l 414 314 l 325 314 l 325 0 l 76 0 l 76 972 l 465 972 q 715 877 614 972 q 815 636 815 782 q 771 476 815 549 q 650 360 726 403 l 850 0 l 583 0 m 325 743 l 325 525 l 463 525 q 538 554 508 524 q 567 633 567 585 q 538 713 567 682 q 463 743 508 743 l 325 743 z "},"ř":{"ha":526,"x_min":1,"x_max":528,"o":"m 149 757 l 1 972 l 210 972 l 265 894 l 319 972 l 528 972 l 381 757 l 149 757 m 297 565 q 375 671 317 633 q 506 708 433 708 l 506 453 q 362 424 426 465 q 297 288 297 382 l 297 0 l 67 0 l 67 694 l 297 694 l 297 565 z "},"Ś":{"ha":813,"x_min":25,"x_max":792,"o":"m 267 1063 l 486 1063 l 647 1264 l 378 1264 l 267 1063 m 422 -21 q 167 44 268 -21 q 25 221 65 110 l 238 344 q 429 215 292 215 q 543 281 543 215 q 478 350 543 324 q 356 388 450 361 q 144 497 222 426 q 67 692 67 567 q 163 910 67 826 q 404 993 260 993 q 621 936 526 993 q 765 771 715 879 l 557 649 q 406 757 511 757 q 338 739 361 757 q 315 693 315 721 q 349 639 315 661 q 482 588 383 617 q 596 549 553 567 q 690 497 639 531 q 767 409 742 463 q 792 283 792 356 q 690 60 792 140 q 422 -21 589 -21 z "},"ś":{"ha":660,"x_min":21,"x_max":632,"o":"m 569 986 l 408 785 l 189 785 l 300 986 l 569 986 m 288 492 q 323 460 288 472 q 409 436 358 447 q 510 405 460 425 q 597 336 561 385 q 632 214 632 288 q 543 38 632 94 q 332 -19 454 -19 q 21 146 99 -19 l 222 247 q 331 171 249 171 q 393 208 393 171 q 358 240 393 228 q 274 265 324 253 q 174 299 224 278 q 89 366 124 319 q 54 481 54 413 q 136 653 54 592 q 333 714 218 714 q 619 553 539 714 l 425 465 q 339 525 394 525 q 288 492 288 525 z "},"Ş":{"ha":813,"x_min":25,"x_max":792,"o":"m 792 283 q 719 87 792 164 q 522 -12 647 10 l 522 -64 q 578 -100 553 -74 q 603 -171 603 -126 q 278 -307 603 -326 l 278 -156 q 410 -136 410 -165 q 336 -108 410 -115 l 336 -15 q 139 64 218 1 q 25 221 60 126 l 238 344 q 429 215 292 215 q 543 281 543 215 q 478 350 543 324 q 356 388 450 361 q 144 497 222 426 q 67 692 67 567 q 163 910 67 826 q 404 993 260 993 q 621 936 526 993 q 765 771 715 879 l 557 649 q 406 757 511 757 q 338 739 361 757 q 315 693 315 721 q 349 639 315 661 q 482 588 383 617 q 596 549 553 567 q 690 497 639 531 q 767 409 742 463 q 792 283 792 356 z "},"ş":{"ha":660,"x_min":21,"x_max":632,"o":"m 632 214 q 580 69 632 124 q 444 -6 528 15 l 444 -64 q 500 -100 475 -74 q 525 -171 525 -126 q 200 -307 525 -326 l 200 -156 q 332 -136 332 -165 q 258 -108 332 -115 l 258 -15 q 21 146 86 8 l 222 247 q 331 171 249 171 q 393 208 393 171 q 358 240 393 228 q 274 265 324 253 q 174 299 224 278 q 89 366 124 319 q 54 481 54 413 q 136 653 54 592 q 333 714 218 714 q 619 553 539 714 l 425 465 q 339 525 394 525 q 288 492 288 525 q 323 460 288 472 q 409 436 358 447 q 510 405 460 425 q 597 336 561 385 q 632 214 632 288 z "},"Š":{"ha":813,"x_min":25,"x_max":792,"o":"m 282 1049 l 135 1264 l 343 1264 l 399 1186 l 453 1264 l 661 1264 l 514 1049 l 282 1049 m 482 588 q 596 549 553 567 q 690 497 639 531 q 767 409 742 463 q 792 283 792 356 q 690 60 792 140 q 422 -21 589 -21 q 167 44 268 -21 q 25 221 65 110 l 238 344 q 429 215 292 215 q 543 281 543 215 q 478 350 543 324 q 356 388 450 361 q 144 497 222 426 q 67 692 67 567 q 163 910 67 826 q 404 993 260 993 q 621 936 526 993 q 765 771 715 879 l 557 649 q 406 757 511 757 q 338 739 361 757 q 315 693 315 721 q 349 639 315 661 q 482 588 383 617 z "},"š":{"ha":660,"x_min":21,"x_max":632,"o":"m 204 771 l 57 986 l 265 986 l 321 908 l 375 986 l 583 986 l 436 771 l 204 771 m 288 492 q 323 460 288 472 q 409 436 358 447 q 510 405 460 425 q 597 336 561 385 q 632 214 632 288 q 543 38 632 94 q 332 -19 454 -19 q 21 146 99 -19 l 222 247 q 331 171 249 171 q 393 208 393 171 q 358 240 393 228 q 274 265 324 253 q 174 299 224 278 q 89 366 124 319 q 54 481 54 413 q 136 653 54 592 q 333 714 218 714 q 619 553 539 714 l 425 465 q 339 525 394 525 q 288 492 288 525 z "},"Ţ":{"ha":757,"x_min":14,"x_max":743,"o":"m 743 972 l 743 732 l 503 732 l 503 0 l 254 0 l 254 732 l 14 732 l 14 972 l 743 972 m 261 -385 l 275 -79 l 489 -79 l 440 -385 l 261 -385 z "},"ţ":{"ha":547,"x_min":18,"x_max":497,"o":"m 497 474 l 353 474 l 353 272 q 386 215 353 226 q 497 208 419 204 l 497 0 q 206 38 290 -25 q 122 267 122 101 l 122 474 l 18 474 l 18 694 l 122 694 l 122 819 l 353 889 l 353 694 l 497 694 l 497 474 m 203 -378 l 217 -72 l 431 -72 l 382 -378 l 203 -378 z "},"Ť":{"ha":757,"x_min":14,"x_max":743,"o":"m 256 1035 l 108 1250 l 317 1250 l 372 1172 l 426 1250 l 635 1250 l 488 1035 l 256 1035 m 743 972 l 743 732 l 503 732 l 503 0 l 254 0 l 254 732 l 14 732 l 14 972 l 743 972 z "},"ť":{"ha":597,"x_min":18,"x_max":625,"o":"m 418 1008 l 625 1008 l 576 744 l 404 744 l 418 1008 m 353 889 l 353 694 l 497 694 l 497 474 l 353 474 l 353 272 q 386 215 353 226 q 497 208 419 204 l 497 0 q 206 38 290 -25 q 122 267 122 101 l 122 474 l 18 474 l 18 694 l 122 694 l 122 819 l 353 889 z "},"Ŧ":{"ha":757,"x_min":14,"x_max":743,"o":"m 743 732 l 503 732 l 503 572 l 649 572 l 649 353 l 503 353 l 503 0 l 254 0 l 254 353 l 108 353 l 108 572 l 254 572 l 254 732 l 14 732 l 14 972 l 743 972 l 743 732 z "},"ŧ":{"ha":547,"x_min":18,"x_max":497,"o":"m 497 493 l 353 493 l 353 436 l 454 436 l 454 269 l 353 269 q 370 224 353 239 q 419 208 388 210 q 497 208 451 206 l 497 0 q 206 38 290 -25 q 122 267 122 101 l 122 269 l 53 269 l 53 436 l 122 436 l 122 493 l 18 493 l 18 694 l 122 694 l 122 819 l 353 889 l 353 694 l 497 694 l 497 493 z "},"Ū":{"ha":903,"x_min":67,"x_max":836,"o":"m 236 1047 l 236 1228 l 665 1228 l 665 1047 l 236 1047 m 728 72 q 675 26 728 72 q 451 -21 621 -21 q 174 72 282 -21 q 67 319 67 165 l 67 972 l 315 972 l 315 343 q 451 221 315 221 q 588 343 588 221 l 588 972 l 836 972 l 836 319 q 728 72 836 165 z "},"ū":{"ha":804,"x_min":58,"x_max":738,"o":"m 613 950 l 613 769 l 183 769 l 183 950 l 613 950 m 507 694 l 738 694 l 738 0 l 507 0 l 507 69 q 314 -19 444 -19 q 130 58 201 -19 q 58 279 58 135 l 58 694 l 289 694 l 289 308 q 317 226 289 254 q 393 199 346 199 q 477 231 447 199 q 507 325 507 264 l 507 694 z "},"Ů":{"ha":903,"x_min":67,"x_max":836,"o":"m 451 983 q 312 1035 367 983 q 257 1167 257 1088 q 312 1298 257 1246 q 451 1350 367 1350 q 593 1298 539 1350 q 647 1167 647 1246 q 593 1035 647 1086 q 451 983 539 983 m 451 1122 q 499 1167 499 1122 q 451 1211 499 1211 q 418 1199 431 1211 q 406 1167 406 1186 q 418 1135 406 1147 q 451 1122 431 1122 m 728 72 q 675 26 728 72 q 451 -21 621 -21 q 174 72 282 -21 q 67 319 67 165 l 67 972 l 315 972 l 315 343 q 451 221 315 221 q 588 343 588 221 l 588 972 l 836 972 l 836 319 q 728 72 836 165 z "},"ů":{"ha":804,"x_min":58,"x_max":738,"o":"m 399 740 q 259 792 314 740 q 204 924 204 844 q 259 1055 204 1003 q 399 1107 314 1107 q 540 1055 486 1107 q 594 924 594 1003 q 540 792 594 843 q 399 740 486 740 m 399 968 q 365 956 378 968 q 353 924 353 943 q 365 892 353 904 q 399 879 378 879 q 446 924 446 879 q 399 968 446 968 m 507 694 l 738 694 l 738 0 l 507 0 l 507 69 q 314 -19 444 -19 q 130 58 201 -19 q 58 279 58 135 l 58 694 l 289 694 l 289 308 q 317 226 289 254 q 393 199 346 199 q 477 231 447 199 q 507 325 507 264 l 507 694 z "},"Ű":{"ha":903,"x_min":67,"x_max":836,"o":"m 175 1035 l 393 1035 l 513 1243 l 286 1243 l 175 1035 m 442 1035 l 661 1035 l 794 1243 l 567 1243 l 442 1035 m 728 72 q 675 26 728 72 q 451 -21 621 -21 q 174 72 282 -21 q 67 319 67 165 l 67 972 l 315 972 l 315 343 q 451 221 315 221 q 588 343 588 221 l 588 972 l 836 972 l 836 319 q 728 72 836 165 z "},"ű":{"ha":804,"x_min":58,"x_max":742,"o":"m 460 965 l 340 757 l 122 757 l 233 965 l 460 965 m 608 757 l 389 757 l 514 965 l 742 965 l 608 757 m 507 325 l 507 694 l 738 694 l 738 0 l 507 0 l 507 69 q 314 -19 444 -19 q 130 58 201 -19 q 58 279 58 135 l 58 694 l 289 694 l 289 308 q 317 226 289 254 q 393 199 346 199 q 477 231 447 199 q 507 325 507 264 z "},"Ų":{"ha":903,"x_min":67,"x_max":836,"o":"m 588 972 l 836 972 l 836 319 q 708 56 836 150 q 622 -37 646 -1 q 596 -108 597 -74 q 625 -140 594 -137 q 654 -136 635 -142 l 654 -274 q 532 -297 596 -297 q 428 -265 468 -297 q 388 -171 388 -233 q 454 -21 388 -101 l 451 -21 q 174 72 282 -21 q 67 319 67 165 l 67 972 l 315 972 l 315 343 q 451 221 315 221 q 588 343 588 221 l 588 972 z "},"ų":{"ha":804,"x_min":58,"x_max":738,"o":"m 738 0 q 679 -108 679 -64 q 708 -140 676 -140 q 738 -136 718 -142 l 738 -274 q 615 -297 679 -297 q 511 -265 551 -297 q 471 -171 471 -233 q 556 0 471 -89 l 507 0 l 507 69 q 314 -19 444 -19 q 130 58 201 -19 q 58 279 58 135 l 58 694 l 289 694 l 289 308 q 317 226 289 254 q 393 199 346 199 q 477 231 447 199 q 507 325 507 264 l 507 694 l 738 694 l 738 0 z "},"Ŵ":{"ha":1394,"x_min":7,"x_max":1386,"o":"m 736 1113 l 681 1035 l 472 1035 l 619 1250 l 851 1250 l 999 1035 l 790 1035 l 736 1113 m 1119 972 l 1386 972 l 1115 0 l 853 0 l 697 549 l 542 0 l 279 0 l 7 972 l 275 972 l 425 360 l 599 972 l 794 972 l 968 360 l 1119 972 z "},"ŵ":{"ha":1108,"x_min":17,"x_max":1092,"o":"m 549 835 l 493 757 l 285 757 l 432 972 l 664 972 l 811 757 l 603 757 l 549 835 m 847 694 l 1092 694 l 879 0 l 654 0 l 554 353 l 454 0 l 229 0 l 17 694 l 261 694 l 353 317 l 457 694 l 651 694 l 756 317 l 847 694 z "},"Ŷ":{"ha":904,"x_min":0,"x_max":904,"o":"m 446 1113 l 390 1035 l 182 1035 l 329 1250 l 561 1250 l 708 1035 l 500 1035 l 446 1113 m 904 972 l 576 374 l 576 0 l 328 0 l 328 371 l 0 972 l 279 972 l 451 613 l 625 972 l 904 972 z "},"ŷ":{"ha":763,"x_min":0,"x_max":763,"o":"m 381 835 l 325 757 l 117 757 l 264 972 l 496 972 l 643 757 l 435 757 l 381 835 m 507 694 l 763 694 l 525 11 q 368 -215 469 -146 q 106 -278 267 -285 l 106 -61 q 217 -43 179 -61 q 278 22 254 -25 l 0 694 l 258 694 l 399 292 l 507 694 z "},"Ÿ":{"ha":904,"x_min":0,"x_max":904,"o":"m 317 1021 q 238 1053 271 1021 q 206 1132 206 1086 q 238 1210 206 1178 q 317 1243 271 1243 q 394 1210 361 1243 q 426 1132 426 1178 q 394 1053 426 1086 q 317 1021 361 1021 m 586 1021 q 509 1053 542 1021 q 476 1132 476 1086 q 509 1210 476 1178 q 586 1243 542 1243 q 665 1210 632 1243 q 697 1132 697 1178 q 665 1053 697 1086 q 586 1021 632 1021 m 904 972 l 576 374 l 576 0 l 328 0 l 328 371 l 0 972 l 279 972 l 451 613 l 625 972 l 904 972 z "},"Ź":{"ha":753,"x_min":46,"x_max":722,"o":"m 629 1250 l 468 1049 l 249 1049 l 360 1250 l 629 1250 m 368 240 l 722 240 l 722 0 l 46 0 l 46 192 l 389 732 l 53 732 l 53 972 l 711 972 l 711 781 l 368 240 z "},"ź":{"ha":672,"x_min":56,"x_max":624,"o":"m 583 972 l 422 771 l 203 771 l 314 972 l 583 972 m 364 214 l 624 214 l 624 0 l 56 0 l 56 158 l 301 481 l 69 481 l 69 694 l 610 694 l 610 536 l 364 214 z "},"Ż":{"ha":753,"x_min":46,"x_max":722,"o":"m 386 1032 q 298 1069 335 1032 q 261 1156 261 1106 q 298 1244 261 1207 q 386 1281 335 1281 q 473 1244 436 1281 q 510 1156 510 1207 q 473 1069 510 1106 q 386 1032 436 1032 m 368 240 l 722 240 l 722 0 l 46 0 l 46 192 l 389 732 l 53 732 l 53 972 l 711 972 l 711 781 l 368 240 z "},"ż":{"ha":672,"x_min":56,"x_max":624,"o":"m 340 754 q 252 791 289 754 q 215 878 215 828 q 252 966 215 929 q 340 1003 289 1003 q 427 966 390 1003 q 464 878 464 929 q 427 791 464 828 q 340 754 390 754 m 364 214 l 624 214 l 624 0 l 56 0 l 56 158 l 301 481 l 69 481 l 69 694 l 610 694 l 610 536 l 364 214 z "},"Ž":{"ha":753,"x_min":46,"x_max":722,"o":"m 264 1035 l 117 1250 l 325 1250 l 381 1172 l 435 1250 l 643 1250 l 496 1035 l 264 1035 m 368 240 l 722 240 l 722 0 l 46 0 l 46 192 l 389 732 l 53 732 l 53 972 l 711 972 l 711 781 l 368 240 z "},"ž":{"ha":672,"x_min":56,"x_max":624,"o":"m 218 757 l 71 972 l 279 972 l 335 894 l 389 972 l 597 972 l 450 757 l 218 757 m 364 214 l 624 214 l 624 0 l 56 0 l 56 158 l 301 481 l 69 481 l 69 694 l 610 694 l 610 536 l 364 214 z "},"ƒ":{"ha":640,"x_min":0,"x_max":640,"o":"m 263 746 q 392 958 289 901 q 640 981 496 1014 l 640 753 q 555 756 600 775 q 501 681 510 736 l 488 599 l 590 599 l 590 378 l 450 378 l 378 -43 q 248 -255 351 -199 q 0 -278 144 -311 l 0 -50 q 85 -53 40 -72 q 139 22 129 -33 l 200 378 l 106 378 l 106 599 l 238 599 l 263 746 z "},"Ș":{"ha":813,"x_min":25,"x_max":792,"o":"m 422 -21 q 167 44 268 -21 q 25 221 65 110 l 238 344 q 429 215 292 215 q 543 281 543 215 q 478 350 543 324 q 356 388 450 361 q 144 497 222 426 q 67 692 67 567 q 163 910 67 826 q 404 993 260 993 q 621 936 526 993 q 765 771 715 879 l 557 649 q 406 757 511 757 q 338 739 361 757 q 315 693 315 721 q 349 639 315 661 q 482 588 383 617 q 596 549 553 567 q 690 497 639 531 q 767 409 742 463 q 792 283 792 356 q 690 60 792 140 q 422 -21 589 -21 m 496 -385 l 544 -79 l 331 -79 l 317 -385 l 496 -385 z "},"ș":{"ha":660,"x_min":21,"x_max":632,"o":"m 288 492 q 323 460 288 472 q 409 436 358 447 q 510 405 460 425 q 597 336 561 385 q 632 214 632 288 q 543 38 632 94 q 332 -19 454 -19 q 21 146 99 -19 l 222 247 q 331 171 249 171 q 393 208 393 171 q 358 240 393 228 q 274 265 324 253 q 174 299 224 278 q 89 366 124 319 q 54 481 54 413 q 136 653 54 592 q 333 714 218 714 q 619 553 539 714 l 425 465 q 339 525 394 525 q 288 492 288 525 m 239 -385 l 253 -79 l 467 -79 l 418 -385 l 239 -385 z "},"Ț":{"ha":757,"x_min":14,"x_max":743,"o":"m 743 972 l 743 732 l 503 732 l 503 0 l 254 0 l 254 732 l 14 732 l 14 972 l 743 972 m 261 -385 l 275 -79 l 489 -79 l 440 -385 l 261 -385 z "},"ț":{"ha":547,"x_min":18,"x_max":497,"o":"m 497 474 l 353 474 l 353 272 q 386 215 353 226 q 497 208 419 204 l 497 0 q 206 38 290 -25 q 122 267 122 101 l 122 474 l 18 474 l 18 694 l 122 694 l 122 819 l 353 889 l 353 694 l 497 694 l 497 474 m 203 -378 l 217 -72 l 431 -72 l 382 -378 l 203 -378 z "},"ˆ":{"ha":582,"x_min":28,"x_max":554,"o":"m 554 757 l 346 757 l 292 835 l 236 757 l 28 757 l 175 972 l 407 972 l 554 757 z "},"ˇ":{"ha":582,"x_min":28,"x_max":554,"o":"m 346 972 l 554 972 l 407 757 l 175 757 l 28 972 l 236 972 l 292 894 l 346 972 z "},"˘":{"ha":554,"x_min":28,"x_max":526,"o":"m 462 803 q 430 774 462 803 q 276 746 397 746 q 92 803 156 746 q 28 968 28 860 l 222 968 q 276 907 222 907 q 332 968 332 907 l 526 968 q 462 803 526 860 z "},"˙":{"ha":313,"x_min":28,"x_max":276,"o":"m 153 754 q 65 791 101 754 q 28 878 28 828 q 65 966 28 929 q 153 1003 101 1003 q 240 966 203 1003 q 276 878 276 929 q 240 791 276 828 q 153 754 203 754 z "},"˚":{"ha":446,"x_min":28,"x_max":418,"o":"m 222 740 q 83 792 138 740 q 28 924 28 844 q 83 1055 28 1003 q 222 1107 138 1107 q 364 1055 310 1107 q 418 924 418 1003 q 364 792 418 843 q 222 740 310 740 m 222 879 q 269 924 269 879 q 222 968 269 968 q 189 956 201 968 q 176 924 176 943 q 189 892 176 904 q 222 879 201 879 z "},"˛":{"ha":324,"x_min":28,"x_max":296,"o":"m 296 -274 q 174 -297 238 -297 q 69 -265 110 -297 q 28 -171 28 -233 q 114 0 28 -90 l 296 0 q 236 -108 236 -64 q 267 -140 233 -140 q 296 -136 274 -142 l 296 -274 z "},"˜":{"ha":554,"x_min":28,"x_max":526,"o":"m 28 761 q 44 878 28 829 q 86 951 60 926 q 147 984 113 975 q 218 986 182 993 q 292 960 254 979 q 342 940 325 938 q 360 986 360 943 l 526 986 q 510 869 526 918 q 468 795 494 819 q 407 763 442 771 q 335 762 372 754 q 261 789 299 769 q 211 808 228 811 q 194 761 194 804 l 28 761 z "},"˝":{"ha":675,"x_min":28,"x_max":647,"o":"m 28 757 l 246 757 l 365 965 l 139 965 l 28 757 m 294 757 l 514 757 l 647 965 l 419 965 l 294 757 z "},"̀":{"ha":0,"x_min":-408,"x_max":-28,"o":"m -28 771 l -139 972 l -408 972 l -247 771 l -28 771 z "},"́":{"ha":0,"x_min":-389,"x_max":-8,"o":"m -389 771 l -169 771 l -8 972 l -278 972 l -389 771 z "},"̂":{"ha":0,"x_min":-554,"x_max":-28,"o":"m -28 757 l -236 757 l -290 835 l -346 757 l -554 757 l -407 972 l -175 972 l -28 757 z "},"̃":{"ha":0,"x_min":-518,"x_max":-19,"o":"m -518 761 q -502 878 -518 829 q -460 951 -486 926 q -399 984 -433 975 q -328 986 -364 993 q -254 960 -292 979 q -203 940 -221 938 q -186 986 -186 943 l -19 986 q -35 869 -19 918 q -78 795 -51 819 q -139 763 -104 771 q -210 762 -174 754 q -285 789 -247 769 q -335 808 -318 811 q -351 761 -351 804 l -518 761 z "},"̄":{"ha":0,"x_min":-457,"x_max":-28,"o":"m -457 769 l -457 950 l -28 950 l -28 769 l -457 769 z "},"̆":{"ha":0,"x_min":-533,"x_max":-35,"o":"m -99 803 q -132 774 -99 803 q -285 746 -164 746 q -469 803 -406 746 q -533 968 -533 860 l -339 968 q -285 907 -339 907 q -229 968 -229 907 l -35 968 q -99 803 -35 860 z "},"̇":{"ha":0,"x_min":-276,"x_max":-28,"o":"m -151 754 q -240 791 -203 754 q -276 878 -276 828 q -240 966 -276 929 q -151 1003 -203 1003 q -65 966 -101 1003 q -28 878 -28 929 q -65 791 -28 828 q -151 754 -101 754 z "},"̈":{"ha":0,"x_min":-519,"x_max":-28,"o":"m -408 743 q -487 776 -454 743 q -519 854 -519 808 q -487 933 -519 900 q -408 965 -454 965 q -331 933 -364 965 q -299 854 -299 900 q -331 776 -299 808 q -408 743 -364 743 m -139 743 q -216 776 -183 743 q -249 854 -249 808 q -216 933 -249 900 q -139 965 -183 965 q -60 933 -93 965 q -28 854 -28 900 q -60 776 -28 808 q -139 743 -93 743 z "},"̊":{"ha":0,"x_min":-421,"x_max":-31,"o":"m -226 740 q -366 792 -311 740 q -421 924 -421 844 q -366 1055 -421 1003 q -226 1107 -311 1107 q -85 1055 -139 1107 q -31 924 -31 1003 q -85 792 -31 843 q -226 740 -139 740 m -226 879 q -179 924 -179 879 q -226 968 -179 968 q -260 956 -247 968 q -272 924 -272 943 q -260 892 -272 904 q -226 879 -247 879 z "},"̋":{"ha":0,"x_min":-647,"x_max":-28,"o":"m -647 757 l -429 757 l -310 965 l -536 965 l -647 757 m -381 757 l -161 757 l -28 965 l -256 965 l -381 757 z "},"̌":{"ha":0,"x_min":-554,"x_max":-28,"o":"m -236 972 l -28 972 l -175 757 l -407 757 l -554 972 l -346 972 l -290 894 l -236 972 z "},"̒":{"ha":0,"x_min":-256,"x_max":-28,"o":"m -207 1368 l -256 1063 l -42 1063 l -28 1368 l -207 1368 z "},"̦":{"ha":0,"x_min":-256,"x_max":-28,"o":"m -76 -385 l -28 -79 l -242 -79 l -256 -385 l -76 -385 z "},"̧":{"ha":0,"x_min":-353,"x_max":-28,"o":"m -108 -64 q -53 -100 -78 -74 q -28 -171 -28 -126 q -353 -307 -28 -326 l -353 -156 q -221 -136 -221 -165 q -294 -108 -221 -115 l -294 0 l -108 0 l -108 -64 z "},"̨":{"ha":0,"x_min":-303,"x_max":-35,"o":"m -35 -274 q -157 -297 -93 -297 q -262 -265 -221 -297 q -303 -171 -303 -233 q -217 0 -303 -90 l -35 0 q -94 -108 -94 -64 q -64 -140 -97 -140 q -35 -136 -57 -142 l -35 -274 z "},"Δ":{"ha":917,"x_min":-7,"x_max":924,"o":"m 607 972 l 924 0 l -7 0 l 310 972 l 607 972 m 324 215 l 593 215 l 458 690 l 324 215 z "},"Ω":{"ha":1076,"x_min":28,"x_max":1049,"o":"m 1049 514 q 933 233 1049 349 l 1028 233 l 1028 0 l 638 0 l 638 240 q 756 333 711 268 q 800 486 800 399 q 725 676 800 601 q 538 750 650 750 q 351 676 425 750 q 276 486 276 601 q 321 333 276 399 q 439 240 365 268 l 439 0 l 49 0 l 49 233 l 142 233 q 28 514 28 350 q 175 857 28 721 q 538 993 322 993 q 901 857 753 993 q 1049 514 1049 721 z "},"π":{"ha":918,"x_min":21,"x_max":896,"o":"m 896 694 l 896 476 l 793 476 l 793 0 l 563 0 l 563 476 l 358 476 l 358 0 l 128 0 l 128 476 l 21 476 l 21 694 l 896 694 z "},"Ё":{"ha":743,"x_min":76,"x_max":701,"o":"m 251 1021 q 173 1053 206 1021 q 140 1132 140 1086 q 173 1210 140 1178 q 251 1243 206 1243 q 328 1210 296 1243 q 361 1132 361 1178 q 328 1053 361 1086 q 251 1021 296 1021 m 521 1021 q 444 1053 476 1021 q 411 1132 411 1086 q 444 1210 411 1178 q 521 1243 476 1243 q 599 1210 567 1243 q 632 1132 632 1178 q 599 1053 632 1086 q 521 1021 567 1021 m 325 233 l 701 233 l 701 0 l 76 0 l 76 972 l 694 972 l 694 740 l 325 740 l 325 606 l 660 606 l 660 376 l 325 376 l 325 233 z "},"Ђ":{"ha":979,"x_min":14,"x_max":924,"o":"m 669 625 q 856 556 789 625 q 924 353 924 486 l 924 281 q 844 45 924 118 q 597 -18 764 -28 l 597 203 q 660 218 643 200 q 678 281 678 236 l 678 324 q 599 403 678 403 q 489 383 547 403 l 489 0 l 240 0 l 240 732 l 14 732 l 14 972 l 743 972 l 743 732 l 489 732 l 489 601 q 669 625 585 625 z "},"Ѓ":{"ha":660,"x_min":76,"x_max":651,"o":"m 600 1249 l 439 1047 l 219 1047 l 331 1249 l 600 1249 m 651 972 l 651 732 l 325 732 l 325 0 l 76 0 l 76 972 l 651 972 z "},"Є":{"ha":999,"x_min":39,"x_max":967,"o":"m 543 218 q 669 249 613 218 q 753 335 725 281 l 967 210 q 792 42 904 104 q 546 -21 679 -21 q 182 124 325 -21 q 39 486 39 269 q 182 848 39 703 q 546 993 325 993 q 791 931 678 993 q 967 763 904 868 l 753 639 q 668 723 724 692 q 543 754 613 754 q 394 713 456 754 q 303 600 332 672 l 654 600 l 654 372 l 303 372 q 394 259 332 300 q 543 218 456 218 z "},"Ѕ":{"ha":813,"x_min":25,"x_max":792,"o":"m 422 -21 q 167 44 268 -21 q 25 221 65 110 l 238 344 q 429 215 292 215 q 543 281 543 215 q 478 350 543 324 q 356 388 450 361 q 144 497 222 426 q 67 692 67 567 q 163 910 67 826 q 404 993 260 993 q 621 936 526 993 q 765 771 715 879 l 557 649 q 406 757 511 757 q 338 739 361 757 q 315 693 315 721 q 349 639 315 661 q 482 588 383 617 q 596 549 553 567 q 690 497 639 531 q 767 409 742 463 q 792 283 792 356 q 690 60 792 140 q 422 -21 589 -21 z "},"І":{"ha":401,"x_min":76,"x_max":325,"o":"m 76 972 l 325 972 l 325 0 l 76 0 l 76 972 z "},"Ї":{"ha":401,"x_min":-44,"x_max":447,"o":"m 67 1021 q -12 1053 21 1021 q -44 1132 -44 1086 q -12 1210 -44 1178 q 67 1243 21 1243 q 144 1210 111 1243 q 176 1132 176 1178 q 144 1053 176 1086 q 67 1021 111 1021 m 336 1021 q 259 1053 292 1021 q 226 1132 226 1086 q 259 1210 226 1178 q 336 1243 292 1243 q 415 1210 382 1243 q 447 1132 447 1178 q 415 1053 447 1086 q 336 1021 382 1021 m 76 972 l 325 972 l 325 0 l 76 0 l 76 972 z "},"Ј":{"ha":793,"x_min":35,"x_max":726,"o":"m 371 -21 q 35 174 132 -21 l 247 297 q 296 239 268 257 q 371 221 324 221 q 478 319 478 221 l 478 972 l 726 972 l 726 315 q 630 69 726 158 q 371 -21 533 -21 z "},"Љ":{"ha":1303,"x_min":7,"x_max":1282,"o":"m 935 644 q 1181 556 1081 644 q 1282 322 1282 468 q 1181 88 1282 176 q 935 0 1081 0 l 585 0 l 585 732 l 404 732 l 404 379 q 370 177 404 260 q 277 56 336 94 q 152 3 218 17 q 7 -3 86 -10 l 7 229 q 120 254 85 221 q 156 390 156 288 l 156 972 l 833 972 l 833 644 l 935 644 m 935 236 q 1033 322 1033 236 q 935 408 1033 408 l 833 408 l 833 236 l 935 236 z "},"Њ":{"ha":1310,"x_min":76,"x_max":1289,"o":"m 942 646 q 1188 557 1088 646 q 1289 322 1289 468 q 1188 89 1289 178 q 942 0 1088 0 l 592 0 l 592 408 l 325 408 l 325 0 l 76 0 l 76 972 l 325 972 l 325 646 l 592 646 l 592 972 l 840 972 l 840 646 l 942 646 m 942 238 q 1040 322 1040 238 q 942 408 1040 408 l 840 408 l 840 238 l 942 238 z "},"Ћ":{"ha":986,"x_min":14,"x_max":924,"o":"m 669 632 q 856 563 789 632 q 924 360 924 493 l 924 0 l 678 0 l 678 329 q 599 410 678 410 q 489 390 547 410 l 489 0 l 240 0 l 240 732 l 14 732 l 14 972 l 743 972 l 743 732 l 489 732 l 489 607 q 669 632 592 632 z "},"Ќ":{"ha":876,"x_min":76,"x_max":882,"o":"m 682 1249 l 521 1047 l 301 1047 l 413 1249 l 682 1249 m 882 0 l 604 0 l 325 435 l 325 0 l 76 0 l 76 972 l 325 972 l 325 564 l 590 972 l 868 972 l 560 500 l 882 0 z "},"Ў":{"ha":874,"x_min":21,"x_max":865,"o":"m 668 1240 l 668 1046 l 219 1046 l 219 1240 l 668 1240 m 611 972 l 865 972 l 585 299 q 410 67 518 140 q 144 0 303 -7 l 144 232 q 339 303 276 221 l 21 972 l 276 972 l 456 575 l 611 972 z "},"Џ":{"ha":903,"x_min":76,"x_max":826,"o":"m 578 972 l 826 972 l 826 0 l 575 0 l 575 -186 l 328 -186 l 328 0 l 76 0 l 76 972 l 325 972 l 325 240 l 578 240 l 578 972 z "},"А":{"ha":932,"x_min":-7,"x_max":938,"o":"m 669 0 l 628 140 l 304 140 l 263 0 l -7 0 l 314 972 l 617 972 l 938 0 l 669 0 m 368 354 l 564 354 l 465 685 l 368 354 z "},"Б":{"ha":822,"x_min":76,"x_max":804,"o":"m 478 614 q 715 531 626 614 q 804 308 804 447 q 715 85 804 169 q 478 0 626 0 l 76 0 l 76 972 l 721 972 l 721 732 l 325 732 l 325 614 l 478 614 m 468 228 q 533 248 508 228 q 557 308 557 268 q 533 369 557 349 q 468 390 508 390 l 325 390 l 325 228 l 468 228 z "},"В":{"ha":836,"x_min":76,"x_max":813,"o":"m 690 503 q 813 285 813 431 q 724 78 813 156 q 486 0 635 0 l 76 0 l 76 972 l 460 972 q 693 898 606 972 q 781 696 781 824 q 690 503 781 574 m 453 750 l 325 750 l 325 597 l 453 597 q 509 617 486 597 q 532 674 532 638 q 510 729 532 708 q 453 750 488 750 m 479 222 q 540 245 517 222 q 564 304 564 268 q 540 364 564 342 q 479 386 517 386 l 325 386 l 325 222 l 479 222 z "},"Г":{"ha":660,"x_min":76,"x_max":651,"o":"m 651 972 l 651 732 l 325 732 l 325 0 l 76 0 l 76 972 l 651 972 z "},"Д":{"ha":989,"x_min":14,"x_max":964,"o":"m 860 240 l 964 240 l 964 -186 l 717 -186 l 717 0 l 263 0 l 263 -186 l 14 -186 l 14 240 l 117 240 q 183 549 183 347 l 183 972 l 860 972 l 860 240 m 375 240 l 613 240 l 613 742 l 431 742 l 431 546 q 375 240 431 351 z "},"Е":{"ha":743,"x_min":76,"x_max":701,"o":"m 325 233 l 701 233 l 701 0 l 76 0 l 76 972 l 694 972 l 694 740 l 325 740 l 325 606 l 660 606 l 660 376 l 325 376 l 325 233 z "},"Ж":{"ha":1288,"x_min":7,"x_max":1279,"o":"m 1279 0 l 1004 0 l 768 424 l 768 0 l 519 0 l 519 424 l 282 0 l 7 0 l 300 492 l 21 972 l 296 972 l 519 551 l 519 972 l 768 972 l 768 551 l 990 972 l 1265 972 l 988 492 l 1279 0 z "},"З":{"ha":778,"x_min":14,"x_max":754,"o":"m 624 501 q 754 274 754 428 q 654 60 754 140 q 390 -21 554 -21 q 14 207 107 -21 l 226 329 q 390 214 268 214 q 506 300 506 214 q 413 383 506 375 l 265 385 l 265 600 l 361 600 q 474 681 474 600 q 374 761 474 761 q 235 663 274 761 l 26 783 q 162 938 71 882 q 378 993 253 993 q 626 913 531 993 q 722 701 722 833 q 624 501 722 574 z "},"И":{"ha":938,"x_min":76,"x_max":860,"o":"m 613 0 l 613 489 l 269 0 l 76 0 l 76 972 l 325 972 l 325 483 l 668 972 l 860 972 l 860 0 l 613 0 z "},"Й":{"ha":938,"x_min":76,"x_max":860,"o":"m 243 1047 l 243 1242 l 692 1242 l 692 1047 l 243 1047 m 613 0 l 613 489 l 269 0 l 76 0 l 76 972 l 325 972 l 325 483 l 668 972 l 860 972 l 860 0 l 613 0 z "},"К":{"ha":876,"x_min":76,"x_max":882,"o":"m 882 0 l 604 0 l 325 435 l 325 0 l 76 0 l 76 972 l 325 972 l 325 564 l 590 972 l 868 972 l 560 500 l 882 0 z "},"Л":{"ha":924,"x_min":7,"x_max":847,"o":"m 7 0 l 7 232 q 120 255 85 222 q 156 390 156 288 l 156 972 l 847 972 l 847 0 l 599 0 l 599 732 l 404 732 l 404 379 q 370 177 404 260 q 277 56 336 94 q 151 4 218 17 q 7 0 85 -8 z "},"М":{"ha":1146,"x_min":76,"x_max":1068,"o":"m 1068 972 l 1068 0 l 821 0 l 821 524 l 585 133 l 560 133 l 325 522 l 325 0 l 76 0 l 76 972 l 325 972 l 572 557 l 821 972 l 1068 972 z "},"Н":{"ha":924,"x_min":76,"x_max":846,"o":"m 599 972 l 846 972 l 846 0 l 599 0 l 599 374 l 325 374 l 325 0 l 76 0 l 76 972 l 325 972 l 325 613 l 599 613 l 599 972 z "},"О":{"ha":1097,"x_min":39,"x_max":1058,"o":"m 910 126 q 836 52 910 126 q 549 -21 763 -21 q 187 126 335 -21 q 39 486 39 272 q 187 847 39 700 q 549 993 335 993 q 910 847 763 993 q 1058 486 1058 700 q 910 126 1058 272 m 361 297 q 399 259 361 297 q 549 222 436 222 q 736 297 661 222 q 811 486 811 371 q 736 676 811 601 q 549 750 661 750 q 361 676 436 750 q 286 486 286 601 q 361 297 286 371 z "},"П":{"ha":903,"x_min":76,"x_max":826,"o":"m 826 972 l 826 0 l 578 0 l 578 732 l 325 732 l 325 0 l 76 0 l 76 972 l 826 972 z "},"Р":{"ha":822,"x_min":76,"x_max":801,"o":"m 454 972 q 701 876 601 972 q 801 632 801 781 q 701 388 801 483 q 454 292 601 292 l 325 292 l 325 0 l 76 0 l 76 972 l 454 972 m 454 528 q 524 557 496 528 q 553 632 553 586 q 524 706 553 678 q 454 735 496 735 l 325 735 l 325 528 l 454 528 z "},"С":{"ha":999,"x_min":39,"x_max":967,"o":"m 546 -21 q 183 124 326 -21 q 39 486 39 269 q 183 848 39 703 q 546 993 326 993 q 790 931 678 993 q 967 763 903 868 l 751 639 q 669 720 724 690 q 546 750 614 750 q 358 677 429 750 q 286 486 286 604 q 358 295 286 368 q 546 222 429 222 q 669 252 614 222 q 751 335 724 282 l 967 210 q 791 41 903 103 q 546 -21 679 -21 z "},"Т":{"ha":757,"x_min":14,"x_max":743,"o":"m 743 972 l 743 732 l 503 732 l 503 0 l 254 0 l 254 732 l 14 732 l 14 972 l 743 972 z "},"У":{"ha":874,"x_min":21,"x_max":865,"o":"m 611 972 l 865 972 l 585 299 q 410 67 518 140 q 144 0 303 -7 l 144 232 q 339 303 276 221 l 21 972 l 276 972 l 456 575 l 611 972 z "},"Ф":{"ha":1157,"x_min":28,"x_max":1129,"o":"m 1015 755 q 1072 702 1015 755 q 1129 486 1129 650 q 1015 217 1129 322 q 699 88 901 113 l 699 -28 l 460 -28 l 460 88 q 142 217 257 113 q 28 486 28 322 q 142 755 28 650 q 460 885 257 860 l 460 1000 l 699 1000 l 699 885 q 1015 755 901 860 m 276 486 q 460 315 276 342 l 460 661 q 321 604 365 647 q 276 486 276 561 m 699 315 q 838 372 793 329 q 882 486 882 414 q 838 604 882 561 q 699 661 793 647 l 699 315 z "},"Х":{"ha":878,"x_min":7,"x_max":869,"o":"m 869 0 l 592 0 l 439 258 l 286 0 l 7 0 l 300 496 l 18 972 l 297 972 l 439 732 l 581 972 l 860 972 l 578 494 l 869 0 z "},"Ц":{"ha":975,"x_min":76,"x_max":950,"o":"m 839 240 l 950 240 l 950 -186 l 701 -186 l 701 0 l 76 0 l 76 972 l 332 972 l 332 240 l 585 240 l 585 972 l 839 972 l 839 240 z "},"Ч":{"ha":899,"x_min":60,"x_max":821,"o":"m 574 972 l 821 972 l 821 0 l 574 0 l 574 322 q 408 296 494 296 q 156 383 251 296 q 60 625 60 471 l 60 972 l 307 972 l 307 651 q 340 565 307 596 q 426 535 374 535 q 574 560 503 535 l 574 972 z "},"Ш":{"ha":1318,"x_min":76,"x_max":1242,"o":"m 993 972 l 1242 972 l 1242 0 l 76 0 l 76 972 l 325 972 l 325 240 l 535 240 l 535 972 l 783 972 l 783 240 l 993 240 l 993 972 z "},"Щ":{"ha":1378,"x_min":76,"x_max":1353,"o":"m 1242 240 l 1353 240 l 1353 -186 l 1104 -186 l 1104 0 l 76 0 l 76 972 l 325 972 l 325 240 l 535 240 l 535 972 l 783 972 l 783 240 l 993 240 l 993 972 l 1242 972 l 1242 240 z "},"Ъ":{"ha":968,"x_min":0,"x_max":947,"o":"m 222 0 l 222 732 l 0 732 l 0 972 l 471 972 l 471 681 l 600 681 q 847 584 746 681 q 947 340 947 488 q 847 96 947 192 q 600 0 747 0 l 222 0 m 471 236 l 600 236 q 670 265 642 236 q 699 340 699 294 q 670 415 699 386 q 600 443 642 443 l 471 443 l 471 236 z "},"Ы":{"ha":1207,"x_min":76,"x_max":1129,"o":"m 76 0 l 76 972 l 325 972 l 325 681 l 454 681 q 701 584 601 681 q 801 340 801 488 q 701 96 801 192 q 454 0 601 0 l 76 0 m 882 0 l 882 972 l 1129 972 l 1129 0 l 882 0 m 325 236 l 454 236 q 524 265 496 236 q 553 340 553 294 q 524 415 553 386 q 454 443 496 443 l 325 443 l 325 236 z "},"Ь":{"ha":822,"x_min":76,"x_max":801,"o":"m 454 681 q 701 585 601 681 q 801 340 801 489 q 701 96 801 192 q 454 0 601 0 l 76 0 l 76 972 l 325 972 l 325 681 l 454 681 m 454 238 q 524 266 496 238 q 553 340 553 294 q 524 415 553 386 q 454 444 496 444 l 325 444 l 325 238 l 454 238 z "},"Э":{"ha":999,"x_min":32,"x_max":960,"o":"m 453 993 q 817 848 674 993 q 960 486 960 703 q 817 124 960 269 q 453 -21 674 -21 q 207 42 319 -21 q 32 210 94 104 l 246 335 q 330 249 274 281 q 456 218 386 218 q 605 259 543 218 q 696 372 667 300 l 344 372 l 344 600 l 696 600 q 605 713 667 672 q 456 754 543 754 q 331 723 386 754 q 246 639 275 692 l 32 763 q 208 931 94 868 q 453 993 321 993 z "},"Ю":{"ha":1483,"x_min":76,"x_max":1444,"o":"m 935 993 q 1297 847 1149 993 q 1444 486 1444 700 q 1296 126 1444 274 q 935 -21 1147 -21 q 615 92 751 -21 q 444 381 479 204 l 325 381 l 325 0 l 76 0 l 76 972 l 325 972 l 325 619 l 451 619 q 626 889 493 785 q 935 993 758 993 m 747 297 q 785 259 747 297 q 935 222 822 222 q 1122 297 1047 222 q 1197 486 1197 371 q 1122 676 1197 601 q 935 750 1047 750 q 747 676 822 750 q 672 486 672 603 q 747 297 672 371 z "},"Я":{"ha":875,"x_min":25,"x_max":797,"o":"m 797 972 l 797 0 l 550 0 l 550 314 l 497 314 l 301 0 l 25 0 l 247 349 q 110 465 161 389 q 60 636 60 542 q 160 877 60 782 q 408 972 260 972 l 797 972 m 411 525 l 550 525 l 550 743 l 411 743 q 337 712 367 743 q 307 633 307 681 q 337 554 307 585 q 411 525 367 524 z "},"а":{"ha":854,"x_min":33,"x_max":788,"o":"m 557 694 l 788 694 l 788 0 l 557 0 l 557 64 q 360 -19 486 -19 q 127 85 221 -19 q 33 347 33 190 q 127 609 33 504 q 360 714 221 714 q 557 631 486 714 l 557 694 m 306 238 q 326 217 306 238 q 411 196 346 196 q 517 238 476 196 q 557 347 557 279 q 517 457 557 415 q 411 499 476 499 q 306 457 346 499 q 265 347 265 415 q 306 238 265 279 z "},"б":{"ha":790,"x_min":35,"x_max":774,"o":"m 414 -21 q 138 85 242 -21 q 35 364 35 192 q 91 641 35 539 q 292 814 147 743 q 485 919 447 890 q 547 1004 525 953 l 736 896 q 658 772 715 818 q 485 681 600 726 q 353 616 393 644 q 297 549 314 588 q 476 608 367 608 q 683 525 592 608 q 774 304 774 442 q 676 71 774 163 q 414 -21 578 -21 m 315 215 q 335 197 315 215 q 411 179 354 179 q 505 215 468 179 q 542 303 542 250 q 503 392 542 357 q 407 428 465 428 q 315 395 354 428 q 276 307 276 363 q 315 215 276 251 z "},"в":{"ha":722,"x_min":67,"x_max":697,"o":"m 600 354 q 697 200 697 308 q 635 54 697 108 q 454 0 572 0 l 67 0 l 67 694 l 431 694 q 610 640 547 694 q 672 494 672 586 q 600 354 672 403 m 396 522 l 288 522 l 288 431 l 396 431 q 451 475 451 431 q 396 522 451 522 m 414 175 q 468 224 468 175 q 414 269 468 269 l 288 269 l 288 175 l 414 175 z "},"г":{"ha":579,"x_min":67,"x_max":565,"o":"m 565 694 l 565 474 l 297 474 l 297 0 l 67 0 l 67 694 l 565 694 z "},"д":{"ha":833,"x_min":7,"x_max":813,"o":"m 722 218 l 813 218 l 813 -186 l 590 -186 l 590 0 l 229 0 l 229 -186 l 7 -186 l 7 218 l 90 218 q 143 454 143 304 l 143 694 l 722 694 l 722 218 m 329 218 l 497 218 l 497 489 l 368 489 l 368 454 q 329 218 368 315 z "},"е":{"ha":793,"x_min":33,"x_max":761,"o":"m 272 263 q 428 178 307 178 q 554 226 503 178 l 721 110 q 422 -19 618 -19 q 140 84 246 -19 q 33 346 33 188 q 138 608 33 503 q 403 714 242 714 q 660 610 558 714 q 761 349 761 506 q 751 263 761 303 l 272 263 m 269 422 l 536 422 q 406 519 508 519 q 269 422 299 519 z "},"ж":{"ha":1082,"x_min":7,"x_max":1075,"o":"m 1075 0 l 821 0 l 656 285 l 656 0 l 426 0 l 426 285 l 261 0 l 7 0 l 224 347 l 21 694 l 275 694 l 426 414 l 426 694 l 656 694 l 656 414 l 807 694 l 1061 694 l 858 347 l 1075 0 z "},"з":{"ha":633,"x_min":14,"x_max":608,"o":"m 506 354 q 608 189 608 300 q 529 38 608 97 q 315 -21 450 -21 q 14 146 97 -21 l 194 251 q 311 171 226 171 q 360 183 340 171 q 379 218 379 196 q 322 261 379 261 l 239 261 l 239 442 l 311 442 q 363 483 363 442 q 301 528 363 528 q 201 453 231 528 l 21 551 q 313 714 113 714 q 508 653 433 714 q 583 506 583 593 q 506 354 583 404 z "},"и":{"ha":806,"x_min":67,"x_max":739,"o":"m 561 694 l 739 694 l 739 0 l 514 0 l 514 325 l 244 0 l 67 0 l 67 694 l 292 694 l 292 369 l 561 694 z "},"й":{"ha":806,"x_min":67,"x_max":739,"o":"m 178 769 l 178 964 l 626 964 l 626 769 l 178 769 m 561 694 l 739 694 l 739 0 l 514 0 l 514 325 l 244 0 l 67 0 l 67 694 l 292 694 l 292 369 l 561 694 z "},"к":{"ha":753,"x_min":67,"x_max":753,"o":"m 753 0 l 494 0 l 297 296 l 297 0 l 67 0 l 67 694 l 297 694 l 297 404 l 476 694 l 743 694 l 510 347 l 753 0 z "},"л":{"ha":781,"x_min":14,"x_max":714,"o":"m 714 694 l 714 0 l 483 0 l 483 474 l 344 474 l 344 288 q 263 53 344 124 q 14 0 182 -18 l 14 214 q 89 227 64 200 q 114 321 114 254 l 114 694 l 714 694 z "},"м":{"ha":900,"x_min":67,"x_max":833,"o":"m 833 694 l 833 0 l 611 0 l 611 335 l 463 104 l 438 104 l 290 333 l 290 0 l 67 0 l 67 694 l 290 694 l 450 444 l 611 694 l 833 694 z "},"н":{"ha":799,"x_min":67,"x_max":732,"o":"m 501 694 l 732 694 l 732 0 l 501 0 l 501 239 l 297 239 l 297 0 l 67 0 l 67 694 l 297 694 l 297 456 l 501 456 l 501 694 z "},"о":{"ha":810,"x_min":33,"x_max":775,"o":"m 404 -19 q 142 87 250 -19 q 33 347 33 193 q 142 608 33 501 q 404 714 250 714 q 667 608 560 714 q 775 347 775 501 q 667 87 775 193 q 404 -19 560 -19 m 404 203 q 505 243 465 203 q 544 347 544 283 q 505 451 544 411 q 404 492 465 492 q 305 451 344 492 q 265 347 265 411 q 305 243 265 283 q 404 203 344 203 z "},"п":{"ha":799,"x_min":67,"x_max":732,"o":"m 732 694 l 732 0 l 501 0 l 501 476 l 297 476 l 297 0 l 67 0 l 67 694 l 732 694 z "},"р":{"ha":854,"x_min":67,"x_max":821,"o":"m 494 714 q 727 609 633 714 q 821 347 821 504 q 727 85 821 190 q 494 -19 633 -19 q 297 64 368 -19 l 297 -278 l 67 -278 l 67 694 l 297 694 l 297 631 q 494 714 368 714 m 338 238 q 358 217 338 238 q 443 196 378 196 q 549 238 508 196 q 589 347 589 279 q 549 457 589 415 q 443 499 508 499 q 338 457 378 499 q 297 347 297 415 q 338 238 297 279 z "},"с":{"ha":733,"x_min":33,"x_max":719,"o":"m 403 -19 q 139 86 244 -19 q 33 347 33 192 q 139 608 33 503 q 403 714 244 714 q 590 665 506 714 q 719 535 674 617 l 522 421 q 401 489 485 489 q 304 449 343 489 q 265 347 265 410 q 304 245 265 285 q 401 206 343 206 q 522 275 488 206 l 719 161 q 590 29 674 78 q 403 -19 506 -19 z "},"т":{"ha":653,"x_min":11,"x_max":642,"o":"m 642 694 l 642 474 l 443 474 l 443 0 l 213 0 l 213 474 l 11 474 l 11 694 l 642 694 z "},"у":{"ha":763,"x_min":0,"x_max":763,"o":"m 507 694 l 763 694 l 528 21 q 106 -278 419 -293 l 106 -61 q 215 -46 178 -61 q 275 11 253 -31 l 0 694 l 254 694 l 397 292 l 507 694 z "},"ф":{"ha":985,"x_min":33,"x_max":950,"o":"m 860 582 q 905 533 860 582 q 950 347 950 485 q 860 112 950 210 q 604 -11 771 14 l 604 -278 l 379 -278 l 379 -11 q 123 112 213 14 q 33 347 33 210 q 123 582 33 485 q 379 704 213 679 l 379 972 l 604 972 l 604 704 q 860 582 771 679 m 604 208 q 721 347 721 240 q 604 486 721 454 l 604 208 m 379 486 q 263 347 263 453 q 379 208 263 242 l 379 486 z "},"х":{"ha":763,"x_min":0,"x_max":763,"o":"m 763 0 l 501 0 l 381 171 l 260 0 l 0 0 l 251 354 l 10 694 l 269 694 l 381 538 l 492 694 l 753 694 l 511 354 l 763 0 z "},"ц":{"ha":850,"x_min":67,"x_max":829,"o":"m 711 218 l 829 218 l 829 -186 l 607 -186 l 607 0 l 67 0 l 67 694 l 297 694 l 297 218 l 481 218 l 481 694 l 711 694 l 711 218 z "},"ч":{"ha":754,"x_min":35,"x_max":688,"o":"m 456 694 l 688 694 l 688 0 l 456 0 l 456 194 q 317 176 383 176 q 113 244 192 176 q 35 435 35 311 l 35 694 l 267 694 l 267 475 q 368 390 267 390 q 456 404 414 390 l 456 694 z "},"ш":{"ha":1160,"x_min":67,"x_max":1093,"o":"m 863 694 l 1093 694 l 1093 0 l 67 0 l 67 694 l 297 694 l 297 218 l 467 218 l 467 694 l 694 694 l 694 218 l 863 218 l 863 694 z "},"щ":{"ha":1197,"x_min":67,"x_max":1175,"o":"m 1072 218 l 1175 218 l 1175 -186 l 954 -186 l 954 0 l 67 0 l 67 694 l 297 694 l 297 218 l 456 218 l 456 694 l 683 694 l 683 218 l 842 218 l 842 694 l 1072 694 l 1072 218 z "},"ъ":{"ha":810,"x_min":0,"x_max":788,"o":"m 515 499 q 714 431 640 499 q 788 250 788 364 q 715 67 788 135 q 515 0 642 0 l 171 0 l 171 474 l 0 474 l 0 694 l 403 694 l 403 499 l 515 499 m 501 193 q 546 208 529 193 q 563 250 563 224 q 546 290 563 275 q 501 306 529 306 l 403 306 l 403 193 l 501 193 z "},"ы":{"ha":1038,"x_min":67,"x_max":971,"o":"m 411 499 q 610 431 536 499 q 683 250 683 364 q 610 67 683 135 q 411 0 538 0 l 67 0 l 67 694 l 297 694 l 297 499 l 411 499 m 740 694 l 971 694 l 971 0 l 740 0 l 740 694 m 397 193 q 442 208 425 193 q 458 250 458 224 q 442 290 458 275 q 397 306 425 306 l 297 306 l 297 193 l 397 193 z "},"ь":{"ha":704,"x_min":67,"x_max":683,"o":"m 411 499 q 610 431 536 499 q 683 250 683 364 q 610 67 683 135 q 411 0 538 0 l 67 0 l 67 694 l 297 694 l 297 499 l 411 499 m 397 193 q 442 208 425 193 q 458 250 458 224 q 442 290 458 275 q 397 306 425 306 l 297 306 l 297 193 l 397 193 z "},"э":{"ha":735,"x_min":11,"x_max":700,"o":"m 331 714 q 596 611 492 714 q 700 347 700 508 q 596 83 700 186 q 331 -19 492 -19 q 142 29 226 -19 q 11 161 57 78 l 200 269 q 247 211 213 233 q 336 189 282 189 q 460 253 417 189 l 272 253 l 272 442 l 460 442 q 336 506 417 506 q 200 426 231 506 l 11 535 q 142 665 57 617 q 331 714 226 714 z "},"ю":{"ha":1121,"x_min":67,"x_max":1088,"o":"m 717 714 q 979 608 871 714 q 1088 347 1088 501 q 979 87 1088 193 q 717 -19 871 -19 q 498 52 592 -19 q 371 239 404 124 l 297 239 l 297 0 l 67 0 l 67 694 l 297 694 l 297 456 l 371 456 q 498 642 404 571 q 717 714 592 714 m 717 203 q 816 243 776 203 q 856 347 856 283 q 816 451 856 411 q 717 492 776 492 q 616 451 656 492 q 576 347 576 411 q 616 243 576 283 q 717 203 656 203 z "},"я":{"ha":739,"x_min":18,"x_max":672,"o":"m 672 694 l 672 0 l 444 0 l 444 197 l 413 197 l 281 0 l 18 0 l 181 232 q 88 322 121 265 q 56 443 56 378 q 127 623 56 551 q 321 694 199 694 l 672 694 m 346 500 q 299 484 317 500 q 281 439 281 468 q 299 396 281 411 q 346 381 317 381 l 444 381 l 444 500 l 346 500 z "},"ё":{"ha":793,"x_min":33,"x_max":761,"o":"m 268 753 q 190 785 222 753 q 157 864 157 818 q 190 942 157 910 q 268 975 222 975 q 345 942 313 975 q 378 864 378 910 q 345 785 378 818 q 268 753 313 753 m 538 753 q 460 785 493 753 q 428 864 428 818 q 460 942 428 910 q 538 975 493 975 q 616 942 583 975 q 649 864 649 910 q 616 785 649 818 q 538 753 583 753 m 272 263 q 428 178 307 178 q 554 226 503 178 l 721 110 q 422 -19 618 -19 q 140 84 246 -19 q 33 346 33 188 q 138 608 33 503 q 403 714 242 714 q 660 610 558 714 q 761 349 761 506 q 751 263 761 303 l 272 263 m 269 422 l 536 422 q 406 519 508 519 q 269 422 299 519 z "},"ђ":{"ha":818,"x_min":0,"x_max":760,"o":"m 504 697 q 688 620 615 697 q 760 399 760 543 l 760 0 q 679 -236 760 -164 q 428 -299 599 -308 l 428 -85 q 505 -67 481 -87 q 529 0 529 -47 l 529 369 q 500 452 529 424 q 424 481 471 481 q 341 448 371 481 q 311 353 311 415 l 311 0 l 81 0 l 81 749 l 0 749 l 0 896 l 81 896 l 81 972 l 311 972 l 311 896 l 499 896 l 499 749 l 311 749 l 311 610 q 504 697 372 697 z "},"ѓ":{"ha":579,"x_min":67,"x_max":565,"o":"m 531 972 l 369 771 l 150 771 l 261 972 l 531 972 m 565 694 l 565 474 l 297 474 l 297 0 l 67 0 l 67 694 l 565 694 z "},"є":{"ha":735,"x_min":35,"x_max":724,"o":"m 399 189 q 488 211 453 189 q 535 269 522 233 l 724 161 q 593 29 678 78 q 404 -19 508 -19 q 139 83 243 -19 q 35 347 35 186 q 139 611 35 508 q 404 714 243 714 q 593 665 508 714 q 724 535 678 617 l 535 426 q 399 506 504 506 q 275 442 318 506 l 463 442 l 463 253 l 275 253 q 399 189 318 189 z "},"ѕ":{"ha":660,"x_min":21,"x_max":632,"o":"m 288 492 q 323 460 288 472 q 409 436 358 447 q 510 405 460 425 q 597 336 561 385 q 632 214 632 288 q 543 38 632 94 q 332 -19 454 -19 q 21 146 99 -19 l 222 247 q 331 171 249 171 q 393 208 393 171 q 358 240 393 228 q 274 265 324 253 q 174 299 224 278 q 89 366 124 319 q 54 481 54 413 q 136 653 54 592 q 333 714 218 714 q 619 553 539 714 l 425 465 q 339 525 394 525 q 288 492 288 525 z "},"і":{"ha":364,"x_min":49,"x_max":315,"o":"m 276 791 q 256 771 276 791 q 182 751 236 751 q 88 791 128 751 q 49 885 49 831 q 88 978 49 939 q 182 1017 128 1017 q 276 978 236 1017 q 315 885 315 939 q 276 791 315 831 m 67 0 l 67 694 l 297 694 l 297 0 l 67 0 z "},"ї":{"ha":364,"x_min":-65,"x_max":426,"o":"m 46 743 q -33 776 0 743 q -65 854 -65 808 q -33 933 -65 900 q 46 965 0 965 q 123 933 90 965 q 156 854 156 900 q 123 776 156 808 q 46 743 90 743 m 315 743 q 238 776 271 743 q 206 854 206 808 q 238 933 206 900 q 315 965 271 965 q 394 933 361 965 q 426 854 426 900 q 394 776 426 808 q 315 743 361 743 m 67 0 l 67 694 l 297 694 l 297 0 l 67 0 z "},"ј":{"ha":385,"x_min":-14,"x_max":336,"o":"m 297 791 q 277 771 297 791 q 203 751 257 751 q 109 791 149 751 q 69 885 69 831 q 109 978 69 939 q 203 1017 149 1017 q 297 978 257 1017 q 336 885 336 939 q 297 791 336 831 m 88 0 l 88 694 l 318 694 l 318 0 q 238 -236 318 -164 q -14 -299 157 -308 l -14 -85 q 63 -67 39 -87 q 88 0 88 -47 z "},"љ":{"ha":1079,"x_min":14,"x_max":1058,"o":"m 807 485 q 989 419 919 485 q 1058 243 1058 354 q 988 65 1058 131 q 807 0 918 0 l 472 0 l 472 474 l 344 474 l 344 288 q 263 52 344 125 q 14 -11 182 -21 l 14 203 q 89 225 64 196 q 114 321 114 254 l 114 694 l 704 694 l 704 485 l 807 485 m 793 193 q 826 206 813 193 q 840 243 840 219 q 826 278 840 265 q 793 292 813 292 l 704 292 l 704 193 l 793 193 z "},"њ":{"ha":1088,"x_min":53,"x_max":1067,"o":"m 808 485 q 994 419 921 485 q 1067 243 1067 354 q 993 66 1067 132 q 808 0 919 0 l 474 0 l 474 274 l 283 274 l 283 0 l 53 0 l 53 694 l 283 694 l 283 485 l 474 485 l 474 694 l 704 694 l 704 485 l 808 485 m 793 193 q 828 206 814 193 q 842 243 842 219 q 828 278 842 265 q 793 292 814 292 l 704 292 l 704 193 l 793 193 z "},"ћ":{"ha":818,"x_min":0,"x_max":760,"o":"m 504 697 q 688 620 615 697 q 760 399 760 543 l 760 0 l 529 0 l 529 369 q 500 452 529 424 q 424 481 471 481 q 341 448 371 481 q 311 353 311 415 l 311 0 l 81 0 l 81 746 l 0 746 l 0 892 l 81 892 l 81 972 l 311 972 l 311 892 l 499 892 l 499 746 l 311 746 l 311 610 q 504 697 372 697 z "},"ќ":{"ha":753,"x_min":67,"x_max":753,"o":"m 614 972 l 453 771 l 233 771 l 344 972 l 614 972 m 753 0 l 494 0 l 297 296 l 297 0 l 67 0 l 67 694 l 297 694 l 297 404 l 476 694 l 743 694 l 510 347 l 753 0 z "},"ў":{"ha":763,"x_min":0,"x_max":763,"o":"m 610 964 l 610 769 l 161 769 l 161 964 l 610 964 m 507 694 l 763 694 l 528 21 q 106 -278 419 -293 l 106 -61 q 215 -46 178 -61 q 275 11 253 -31 l 0 694 l 254 694 l 397 292 l 507 694 z "},"џ":{"ha":799,"x_min":67,"x_max":732,"o":"m 501 694 l 732 694 l 732 0 l 511 0 l 511 -186 l 289 -186 l 289 0 l 67 0 l 67 694 l 297 694 l 297 218 l 501 218 l 501 694 z "},"Ґ":{"ha":660,"x_min":76,"x_max":651,"o":"m 404 1139 l 651 1139 l 651 732 l 325 732 l 325 0 l 76 0 l 76 972 l 404 972 l 404 1139 z "},"ґ":{"ha":579,"x_min":67,"x_max":565,"o":"m 344 836 l 565 836 l 565 474 l 297 474 l 297 0 l 67 0 l 67 694 l 344 694 l 344 836 z "},"Ẁ":{"ha":1394,"x_min":7,"x_max":1386,"o":"m 874 1049 l 763 1250 l 493 1250 l 654 1049 l 874 1049 m 279 0 l 7 972 l 275 972 l 425 360 l 599 972 l 794 972 l 968 360 l 1119 972 l 1386 972 l 1115 0 l 853 0 l 697 549 l 542 0 l 279 0 z "},"ẁ":{"ha":1108,"x_min":17,"x_max":1092,"o":"m 686 771 l 467 771 l 306 972 l 575 972 l 686 771 m 847 694 l 1092 694 l 879 0 l 654 0 l 554 353 l 454 0 l 229 0 l 17 694 l 261 694 l 353 317 l 457 694 l 651 694 l 756 317 l 847 694 z "},"Ẃ":{"ha":1394,"x_min":7,"x_max":1386,"o":"m 604 1049 l 824 1049 l 985 1250 l 715 1250 l 604 1049 m 279 0 l 7 972 l 275 972 l 425 360 l 599 972 l 794 972 l 968 360 l 1119 972 l 1386 972 l 1115 0 l 853 0 l 697 549 l 542 0 l 279 0 z "},"ẃ":{"ha":1108,"x_min":17,"x_max":1092,"o":"m 797 972 l 636 771 l 417 771 l 528 972 l 797 972 m 847 694 l 1092 694 l 879 0 l 654 0 l 554 353 l 454 0 l 229 0 l 17 694 l 261 694 l 353 317 l 457 694 l 651 694 l 756 317 l 847 694 z "},"Ẅ":{"ha":1394,"x_min":7,"x_max":1386,"o":"m 607 1021 q 528 1053 561 1021 q 496 1132 496 1086 q 528 1210 496 1178 q 607 1243 561 1243 q 684 1210 651 1243 q 717 1132 717 1178 q 684 1053 717 1086 q 607 1021 651 1021 m 876 1021 q 799 1053 832 1021 q 767 1132 767 1086 q 799 1210 767 1178 q 876 1243 832 1243 q 955 1210 922 1243 q 988 1132 988 1178 q 955 1053 988 1086 q 876 1021 922 1021 m 279 0 l 7 972 l 275 972 l 425 360 l 599 972 l 794 972 l 968 360 l 1119 972 l 1386 972 l 1115 0 l 853 0 l 697 549 l 542 0 l 279 0 z "},"ẅ":{"ha":1108,"x_min":17,"x_max":1092,"o":"m 419 743 q 341 776 374 743 q 308 854 308 808 q 341 933 308 900 q 419 965 374 965 q 497 933 464 965 q 529 854 529 900 q 497 776 529 808 q 419 743 464 743 m 689 743 q 612 776 644 743 q 579 854 579 808 q 612 933 579 900 q 689 965 644 965 q 767 933 735 965 q 800 854 800 900 q 767 776 800 808 q 689 743 735 743 m 847 694 l 1092 694 l 879 0 l 654 0 l 554 353 l 454 0 l 229 0 l 17 694 l 261 694 l 353 317 l 457 694 l 651 694 l 756 317 l 847 694 z "},"Ỳ":{"ha":904,"x_min":0,"x_max":904,"o":"m 583 1049 l 364 1049 l 203 1250 l 472 1250 l 583 1049 m 904 972 l 576 374 l 576 0 l 328 0 l 328 371 l 0 972 l 279 972 l 451 613 l 625 972 l 904 972 z "},"ỳ":{"ha":763,"x_min":0,"x_max":763,"o":"m 518 771 l 299 771 l 138 972 l 407 972 l 518 771 m 507 694 l 763 694 l 525 11 q 368 -215 469 -146 q 106 -278 267 -285 l 106 -61 q 217 -43 179 -61 q 278 22 254 -25 l 0 694 l 258 694 l 399 292 l 507 694 z "},"–":{"ha":889,"x_min":76,"x_max":813,"o":"m 76 308 l 76 528 l 813 528 l 813 308 l 76 308 z "},"—":{"ha":1028,"x_min":76,"x_max":951,"o":"m 76 308 l 76 528 l 951 528 l 951 308 l 76 308 z "},"‘":{"ha":419,"x_min":57,"x_max":360,"o":"m 57 536 l 174 972 l 360 972 l 311 536 l 57 536 z "},"’":{"ha":419,"x_min":60,"x_max":363,"o":"m 363 972 l 246 536 l 60 536 l 108 972 l 363 972 z "},"‚":{"ha":419,"x_min":60,"x_max":363,"o":"m 363 242 l 246 -194 l 60 -194 l 108 242 l 363 242 z "},"“":{"ha":729,"x_min":57,"x_max":669,"o":"m 57 536 l 174 972 l 360 972 l 311 536 l 57 536 m 367 536 l 483 972 l 669 972 l 621 536 l 367 536 z "},"”":{"ha":729,"x_min":60,"x_max":672,"o":"m 363 972 l 246 536 l 60 536 l 108 972 l 363 972 m 672 972 l 556 536 l 369 536 l 418 972 l 672 972 z "},"„":{"ha":729,"x_min":60,"x_max":672,"o":"m 363 242 l 246 -194 l 60 -194 l 108 242 l 363 242 m 672 242 l 556 -194 l 369 -194 l 418 242 l 672 242 z "},"†":{"ha":654,"x_min":49,"x_max":604,"o":"m 604 808 l 604 589 l 443 589 l 443 0 l 211 0 l 211 589 l 49 589 l 49 808 l 211 808 l 211 972 l 443 972 l 443 808 l 604 808 z "},"‡":{"ha":654,"x_min":49,"x_max":604,"o":"m 604 589 l 443 589 l 443 383 l 604 383 l 604 164 l 443 164 l 443 0 l 211 0 l 211 164 l 49 164 l 49 383 l 211 383 l 211 589 l 49 589 l 49 808 l 211 808 l 211 972 l 443 972 l 443 808 l 604 808 l 604 589 z "},"•":{"ha":554,"x_min":49,"x_max":504,"o":"m 279 258 q 116 326 183 258 q 49 489 49 393 q 116 648 49 582 q 279 714 183 714 q 438 648 372 714 q 504 489 504 582 q 438 326 504 393 q 279 258 372 258 z "},"…":{"ha":1094,"x_min":56,"x_max":1039,"o":"m 201 -19 q 98 23 140 -19 q 56 125 56 65 q 99 227 56 185 q 201 269 142 269 q 303 227 261 269 q 346 125 346 185 q 303 23 346 65 q 201 -19 261 -19 m 547 -19 q 444 23 486 -19 q 401 125 401 65 q 444 227 401 185 q 547 269 488 269 q 649 227 607 269 q 692 125 692 185 q 649 23 692 65 q 547 -19 607 -19 m 894 -19 q 791 23 833 -19 q 749 125 749 65 q 792 227 749 185 q 894 269 835 269 q 997 227 954 269 q 1039 125 1039 185 q 997 23 1039 65 q 894 -19 954 -19 z "},"‰":{"ha":1694,"x_min":49,"x_max":1644,"o":"m 304 494 q 122 567 196 494 q 49 744 49 640 q 122 921 49 849 q 304 993 196 993 q 485 921 413 993 q 557 744 557 849 q 484 567 557 639 q 304 494 411 494 m 193 153 l 832 847 l 929 792 l 289 99 l 193 153 m 303 671 q 355 692 335 671 q 375 744 375 714 q 355 796 375 775 q 303 817 335 817 q 252 796 272 817 q 232 744 232 775 q 252 692 232 713 q 303 671 272 671 m 842 -19 q 659 53 732 -19 q 586 229 586 125 q 659 407 586 335 q 842 479 732 479 q 1022 406 950 479 q 1094 229 1094 333 q 1022 53 1094 125 q 842 -19 949 -19 m 1392 -19 q 1209 53 1282 -19 q 1136 229 1136 125 q 1209 407 1136 335 q 1392 479 1282 479 q 1572 406 1500 479 q 1644 229 1644 333 q 1572 53 1644 125 q 1392 -19 1499 -19 m 790 178 q 800 167 790 178 q 840 157 810 157 q 891 178 871 157 q 911 229 911 200 q 891 282 911 261 q 840 303 871 303 q 790 282 810 303 q 769 229 769 261 q 790 178 769 199 m 1340 178 q 1350 167 1340 178 q 1390 157 1360 157 q 1442 178 1421 157 q 1463 229 1463 200 q 1442 282 1463 261 q 1390 303 1421 303 q 1340 282 1360 303 q 1319 229 1319 261 q 1340 178 1319 199 z "},"‹":{"ha":506,"x_min":76,"x_max":429,"o":"m 429 700 l 274 429 l 429 158 l 233 158 l 76 429 l 233 700 l 429 700 z "},"›":{"ha":506,"x_min":76,"x_max":429,"o":"m 272 700 l 429 429 l 272 158 l 76 158 l 232 429 l 76 700 l 272 700 z "},"⁄":{"ha":250,"x_min":-235,"x_max":485,"o":"m -76 0 l -235 0 l 326 972 l 485 972 l -76 0 z "},"€":{"ha":874,"x_min":18,"x_max":851,"o":"m 643 322 l 851 203 q 510 -21 744 -21 q 247 78 350 -21 q 113 347 143 176 l 18 347 l 18 464 l 101 464 l 101 486 l 101 513 l 18 513 l 18 629 l 114 629 q 248 896 144 799 q 510 993 351 993 q 844 781 740 993 l 638 661 q 510 751 592 751 q 367 629 401 751 l 597 629 l 597 513 l 349 513 l 349 486 l 349 464 l 597 464 l 597 347 l 365 347 q 510 221 400 221 q 643 322 593 221 z "},"₽":{"ha":847,"x_min":14,"x_max":829,"o":"m 482 321 l 353 321 l 353 265 l 638 265 l 638 128 l 353 128 l 353 0 l 104 0 l 104 128 l 14 128 l 14 265 l 104 265 l 104 321 l 14 321 l 14 542 l 104 542 l 104 972 l 482 972 q 729 881 629 972 q 829 646 829 789 q 731 408 829 494 q 482 321 633 321 m 353 736 l 353 542 l 482 542 q 553 568 525 542 q 581 639 581 594 q 553 710 581 683 q 482 736 525 736 l 353 736 z "},"№":{"ha":1465,"x_min":76,"x_max":1431,"o":"m 1185 508 q 1008 579 1079 508 q 938 750 938 650 q 1008 923 938 853 q 1185 993 1078 993 q 1360 922 1290 993 q 1431 750 1431 851 q 1361 578 1431 649 q 1185 508 1292 508 m 613 972 l 860 972 l 860 0 l 668 0 l 325 489 l 325 0 l 76 0 l 76 972 l 269 972 l 613 483 l 613 972 m 1140 705 q 1148 696 1140 705 q 1185 688 1157 688 q 1229 705 1213 688 q 1246 750 1246 722 q 1228 796 1246 778 q 1185 814 1211 814 q 1140 796 1157 814 q 1122 750 1122 778 q 1140 705 1122 722 m 958 231 l 958 451 l 1413 451 l 1413 231 l 958 231 z "},"™":{"ha":668,"x_min":42,"x_max":626,"o":"m 285 972 l 285 876 l 214 876 l 214 694 l 113 694 l 113 876 l 42 876 l 42 972 l 285 972 m 529 972 l 626 972 l 626 694 l 529 694 l 529 826 l 472 740 l 463 740 l 407 825 l 407 694 l 310 694 l 310 972 l 407 972 l 468 879 l 529 972 z "},"℮":{"ha":1083,"x_min":28,"x_max":1056,"o":"m 172 842 q 243 914 172 842 q 542 986 315 986 q 912 842 768 986 q 1056 486 1056 697 q 1035 465 1056 465 l 257 465 q 236 444 236 465 l 236 178 q 246 151 236 163 q 569 28 363 28 q 890 163 771 28 q 915 175 900 175 l 967 175 q 985 167 981 175 q 979 149 989 158 q 569 -14 828 -14 q 176 130 325 -14 q 28 486 28 274 q 172 842 28 697 m 847 794 q 838 821 847 810 q 542 944 721 944 q 246 821 363 944 q 236 794 236 810 l 236 528 q 257 507 236 507 l 826 507 q 847 528 847 507 l 847 794 z "},"⅛":{"ha":1118,"x_min":0,"x_max":1097,"o":"m 151 417 l 151 786 l 42 757 l 0 908 l 176 972 l 333 972 l 333 417 l 151 417 m 710 972 l 868 972 l 307 0 l 149 0 l 710 972 m 1018 290 q 1097 153 1097 243 q 1039 27 1097 74 q 876 -19 981 -19 q 713 27 772 -19 q 654 153 654 74 q 735 290 654 243 q 674 406 674 336 q 731 529 674 483 q 876 575 789 575 q 1021 529 964 575 q 1078 406 1078 483 q 1018 290 1078 335 m 876 428 q 829 389 829 428 q 876 351 829 351 q 922 389 922 351 q 876 428 922 428 m 876 129 q 915 142 901 129 q 929 176 929 156 q 915 210 929 197 q 876 222 901 222 q 824 176 824 222 q 876 129 824 129 z "},"⅜":{"ha":1200,"x_min":4,"x_max":1179,"o":"m 453 590 q 392 447 453 497 q 229 397 332 397 q 4 528 63 397 l 154 614 q 229 554 175 554 q 274 590 274 554 q 229 625 274 625 l 190 625 l 126 719 l 204 811 l 32 811 l 32 972 l 429 972 l 429 851 l 339 746 q 453 590 453 704 m 792 972 l 950 972 l 389 0 l 231 0 l 792 972 m 1100 290 q 1179 153 1179 243 q 1121 27 1179 74 q 958 -19 1063 -19 q 795 27 854 -19 q 736 153 736 74 q 817 290 736 243 q 756 406 756 336 q 813 529 756 483 q 958 575 871 575 q 1103 529 1046 575 q 1160 406 1160 483 q 1100 290 1160 335 m 958 428 q 911 389 911 428 q 958 351 911 351 q 1004 389 1004 351 q 958 428 1004 428 m 958 129 q 997 142 983 129 q 1011 176 1011 156 q 997 210 1011 197 q 958 222 983 222 q 906 176 906 222 q 958 129 906 129 z "},"⅝":{"ha":1194,"x_min":7,"x_max":1174,"o":"m 443 583 q 385 444 443 490 q 232 397 326 397 q 7 528 65 397 l 156 606 q 228 549 176 549 q 276 586 276 549 q 229 624 276 624 l 44 624 l 68 972 l 418 972 l 418 811 l 221 811 l 217 765 l 239 765 q 388 720 333 765 q 443 583 443 675 m 786 972 l 944 972 l 383 0 l 225 0 l 786 972 m 1094 290 q 1174 153 1174 243 q 1115 27 1174 74 q 953 -19 1057 -19 q 790 27 849 -19 q 731 153 731 74 q 811 290 731 243 q 750 406 750 336 q 808 529 750 483 q 953 575 865 575 q 1097 529 1040 575 q 1154 406 1154 483 q 1094 290 1154 335 m 953 428 q 906 389 906 428 q 953 351 906 351 q 999 389 999 351 q 953 428 999 428 m 953 129 q 992 142 978 129 q 1006 176 1006 156 q 992 210 1006 197 q 953 222 978 222 q 900 176 900 222 q 953 129 900 129 z "},"⅞":{"ha":1154,"x_min":0,"x_max":1133,"o":"m 244 417 l 57 417 l 206 811 l 0 811 l 0 972 l 401 972 l 401 835 l 244 417 m 746 972 l 904 972 l 343 0 l 185 0 l 746 972 m 1054 290 q 1133 153 1133 243 q 1075 27 1133 74 q 913 -19 1017 -19 q 749 27 808 -19 q 690 153 690 74 q 771 290 690 243 q 710 406 710 336 q 767 529 710 483 q 913 575 825 575 q 1057 529 1000 575 q 1114 406 1114 483 q 1054 290 1114 335 m 913 428 q 865 389 865 428 q 913 351 865 351 q 958 389 958 351 q 913 428 958 428 m 913 129 q 951 142 938 129 q 965 176 965 156 q 951 210 965 197 q 913 222 938 222 q 860 176 860 222 q 913 129 860 129 z "},"←":{"ha":1090,"x_min":49,"x_max":1042,"o":"m 1042 596 l 1042 376 l 460 376 l 767 69 l 465 69 l 49 486 l 465 903 l 767 903 l 460 596 l 1042 596 z "},"↑":{"ha":932,"x_min":49,"x_max":882,"o":"m 882 556 l 882 254 l 582 554 l 582 0 l 350 0 l 350 556 l 49 254 l 49 556 l 465 972 l 882 556 z "},"→":{"ha":1090,"x_min":49,"x_max":1042,"o":"m 625 903 l 1042 486 l 625 69 l 324 69 l 631 376 l 49 376 l 49 596 l 631 596 l 324 903 l 625 903 z "},"↓":{"ha":932,"x_min":49,"x_max":882,"o":"m 582 418 l 882 718 l 882 417 l 465 0 l 49 417 l 49 718 l 350 417 l 350 972 l 582 972 l 582 418 z "},"↔":{"ha":1579,"x_min":49,"x_max":1531,"o":"m 1135 882 l 1531 486 l 1135 90 l 838 90 l 1121 376 l 457 376 l 743 90 l 444 90 l 49 486 l 444 882 l 743 882 l 457 596 l 1122 596 l 838 882 l 1135 882 z "},"↕":{"ha":889,"x_min":49,"x_max":840,"o":"m 840 526 l 560 807 l 560 165 l 840 446 l 840 147 l 444 -249 l 49 147 l 49 446 l 329 165 l 329 807 l 49 526 l 49 825 l 444 1221 l 840 825 l 840 526 z "},"↖":{"ha":906,"x_min":49,"x_max":857,"o":"m 857 222 l 697 63 l 261 497 l 261 69 l 49 282 l 49 871 l 638 871 l 850 658 l 421 658 l 857 222 z "},"↗":{"ha":906,"x_min":49,"x_max":857,"o":"m 268 871 l 857 871 l 857 282 l 644 69 l 644 497 l 208 63 l 49 222 l 485 658 l 56 658 l 268 871 z "},"↘":{"ha":906,"x_min":49,"x_max":857,"o":"m 644 892 l 857 679 l 857 90 l 268 90 l 56 303 l 483 303 l 49 738 l 208 897 l 644 463 l 644 892 z "},"↙":{"ha":906,"x_min":49,"x_max":857,"o":"m 857 738 l 422 303 l 850 303 l 638 90 l 49 90 l 49 679 l 261 892 l 261 463 l 697 897 l 857 738 z "},"∂":{"ha":811,"x_min":43,"x_max":756,"o":"m 333 993 q 631 852 507 993 q 756 486 756 711 q 644 110 756 240 q 353 -21 532 -21 q 126 65 210 -21 q 43 278 43 150 q 129 513 43 421 q 360 604 215 604 q 514 568 442 604 q 304 776 482 772 q 144 733 224 778 l 144 943 q 333 993 222 993 m 367 193 q 514 371 485 193 q 390 404 458 404 q 307 373 340 404 q 274 288 274 342 q 300 219 274 244 q 367 193 326 193 z "},"∅":{"ha":1117,"x_min":56,"x_max":1061,"o":"m 917 839 q 1061 486 1061 690 q 914 131 1061 278 q 558 -17 767 -17 q 313 47 426 -17 l 256 -28 l 76 -28 l 200 133 q 56 486 56 282 q 203 842 56 694 q 558 989 350 989 q 804 925 690 989 l 861 1000 l 1040 1000 l 917 839 m 214 486 q 296 260 214 357 l 708 800 q 558 833 635 833 q 315 732 415 833 q 214 486 214 631 m 558 139 q 802 240 701 139 q 903 486 903 342 q 821 713 903 615 l 408 172 q 558 139 482 139 z "},"∏":{"ha":876,"x_min":76,"x_max":799,"o":"m 76 -278 l 76 972 l 799 972 l 799 -278 l 568 -278 l 568 751 l 308 751 l 308 -278 l 76 -278 z "},"∑":{"ha":779,"x_min":35,"x_max":729,"o":"m 35 -278 l 35 -85 l 307 361 l 56 778 l 56 972 l 708 972 l 708 746 l 339 746 l 569 361 l 319 -51 l 729 -51 l 729 -278 l 35 -278 z "},"−":{"ha":778,"x_min":57,"x_max":721,"o":"m 57 376 l 57 596 l 721 596 l 721 376 l 57 376 z "},"√":{"ha":963,"x_min":43,"x_max":963,"o":"m 351 0 l 194 249 l 43 249 l 43 468 l 326 468 l 443 265 l 726 1111 l 963 1111 l 574 0 l 351 0 z "},"∞":{"ha":1138,"x_min":57,"x_max":1082,"o":"m 811 753 q 1005 678 928 753 q 1082 486 1082 604 q 1005 294 1082 368 q 811 219 928 219 q 569 339 686 219 q 328 219 453 219 q 133 294 210 219 q 57 486 57 368 q 133 678 57 604 q 328 753 210 753 q 569 633 453 753 q 811 753 686 753 m 350 431 q 446 486 399 431 q 350 542 399 542 q 308 526 325 542 q 290 486 290 511 q 308 446 290 461 q 350 431 325 431 m 789 431 q 831 446 814 431 q 847 486 847 461 q 831 526 847 511 q 789 542 814 542 q 693 486 740 542 q 789 431 740 431 z "},"∫":{"ha":640,"x_min":0,"x_max":640,"o":"m 0 -283 l 0 -56 q 85 -58 40 -78 q 139 17 129 -39 l 263 740 q 392 952 289 896 q 640 975 496 1008 l 640 747 q 555 750 600 769 q 501 675 510 731 l 378 -49 q 248 -260 351 -204 q 0 -283 144 -317 z "},"≈":{"ha":789,"x_min":49,"x_max":740,"o":"m 403 515 q 293 549 339 543 q 222 547 247 556 q 160 518 196 539 l 49 571 q 174 770 83 722 q 386 763 264 818 q 513 724 475 721 q 567 788 550 728 l 740 707 q 618 510 711 561 q 403 515 525 460 m 222 182 l 49 263 q 171 460 78 410 q 386 454 264 510 q 496 421 450 426 q 569 423 542 415 q 631 453 596 431 l 740 399 q 615 199 706 247 q 403 207 525 151 q 276 245 314 249 q 222 182 239 242 z "},"≠":{"ha":710,"x_min":49,"x_max":660,"o":"m 660 528 l 432 528 l 396 444 l 660 444 l 660 224 l 297 224 l 229 69 l 111 69 l 179 224 l 49 224 l 49 444 l 276 444 l 314 528 l 49 528 l 49 749 l 411 749 l 479 903 l 599 903 l 531 749 l 660 749 l 660 528 z "},"≤":{"ha":724,"x_min":50,"x_max":675,"o":"m 675 950 l 675 710 l 286 614 l 675 518 l 675 278 l 50 497 l 50 731 l 675 950 m 50 29 l 50 250 l 675 250 l 675 29 l 50 29 z "},"≥":{"ha":724,"x_min":49,"x_max":674,"o":"m 49 950 l 674 731 l 674 497 l 49 278 l 49 518 l 438 614 l 49 710 l 49 950 m 49 29 l 49 250 l 674 250 l 674 29 l 49 29 z "},"◊":{"ha":817,"x_min":49,"x_max":768,"o":"m 307 0 l 49 486 l 307 972 l 510 972 l 768 486 l 510 0 l 307 0 m 408 288 l 514 486 l 408 685 l 303 486 l 408 288 z "},"ﬁ":{"ha":794,"x_min":21,"x_max":728,"o":"m 728 694 l 728 0 l 497 0 l 497 474 l 339 474 l 339 0 l 108 0 l 108 474 l 21 474 l 21 694 l 108 694 q 458 993 108 993 q 639 972 550 993 l 639 771 q 468 783 549 783 q 372 764 404 783 q 339 694 339 744 l 728 694 z "},"ﬂ":{"ha":794,"x_min":21,"x_max":728,"o":"m 458 993 q 728 965 585 993 l 728 0 l 497 0 l 497 796 q 456 797 483 797 q 371 772 403 797 q 339 694 339 746 l 431 694 l 431 474 l 339 474 l 339 0 l 108 0 l 108 474 l 21 474 l 21 694 l 108 694 q 458 993 108 993 z "}}}
